<svg width="26" height="26" viewBox="0 0 26 26" fill="none" xmlns="http://www.w3.org/2000/svg">
<path d="M23.2917 0H16.4201C15.1179 0 13.8938 0.507 12.9729 1.42782L0.924066 13.4767C0.32825 14.0725 0 14.8644 0 15.7105C0 16.5522 0.32825 17.3442 0.924066 17.94L8.06 25.0759C8.65582 25.6718 9.44775 26 10.2938 26C11.1356 26 11.9275 25.6718 12.5233 25.0759L24.5721 13.0271C25.493 12.1062 26 10.8821 26 9.57993V2.70832C26 1.2155 24.7845 0 23.2917 0ZM24.9167 9.57993C24.9167 10.5929 24.5224 11.5451 23.8074 12.2601L11.7574 24.31C10.9785 25.0889 9.61243 25.0943 8.827 24.31L1.69 17.173C1.29893 16.783 1.08332 16.263 1.08332 15.7062C1.08332 15.1537 1.29888 14.6337 1.69 14.2426L13.7388 2.19375C14.456 1.47768 15.4071 1.08332 16.4201 1.08332H23.2916C24.1876 1.08332 24.9166 1.81238 24.9166 2.70832V9.57993H24.9167Z" fill="#FA3187"/>
<path d="M20.0417 3.25C18.5489 3.25 17.3334 4.4655 17.3334 5.95832C17.3334 7.45113 18.5489 8.66663 20.0417 8.66663C21.5345 8.66663 22.75 7.45118 22.75 5.95832C22.75 4.4655 21.5345 3.25 20.0417 3.25ZM20.0417 7.58332C19.1458 7.58332 18.4167 6.85425 18.4167 5.95832C18.4167 5.06238 19.1458 4.33332 20.0417 4.33332C20.9376 4.33332 21.6667 5.06238 21.6667 5.95832C21.6667 6.85425 20.9376 7.58332 20.0417 7.58332Z" fill="#FA3187"/>
</svg>
