<svg width="53" height="53" viewBox="0 0 53 53" fill="none" xmlns="http://www.w3.org/2000/svg">
<path d="M24.9234 38.739C25.0877 38.5674 25.1276 38.3115 25.0233 38.098L23.0163 33.9894C23.0163 33.9893 23.0163 33.9893 23.0163 33.9893C22.8788 33.7079 22.5393 33.5913 22.2579 33.7286L22.2579 33.7286C22.1977 33.758 22.1433 33.7978 22.0971 33.8461L22.0971 33.8461L20.0308 36.0047L20.0306 36.0049C18.9965 37.0876 19.034 38.8032 20.1144 39.8398L20.1147 39.8402C20.16 39.8834 20.2064 39.9249 20.2539 39.9646L20.2544 39.965C21.3498 40.877 22.9642 40.7858 23.9498 39.7562L23.9499 39.7562L24.9234 38.739ZM24.9234 38.739L24.7428 38.5662M24.9234 38.739L24.9234 38.739L24.7428 38.5662M24.7428 38.5662L23.7693 39.5833L24.7986 38.2077C24.857 38.3271 24.8347 38.4702 24.7428 38.5662ZM23.1306 38.9719C22.5277 39.6017 21.5286 39.6235 20.8988 39.0207C20.269 38.4179 20.2472 37.4187 20.85 36.7889C20.85 36.7889 20.85 36.7889 20.85 36.7889L22.3541 35.2177L23.8309 38.2403L23.1306 38.9719Z" fill="#FA3187" stroke="#FA3187" stroke-width="0.5"/>
<path d="M26.5039 26.9358L26.5041 26.9359L26.5135 26.9193L26.5177 26.912L26.5178 26.9121C27.6438 25.0825 29.0587 24.3601 30.0592 24.08C31.0589 23.8001 31.8338 23.8967 31.9939 23.9217C33.3301 24.0555 34.4802 25.0943 34.8861 26.485L34.8861 26.485C35.2186 27.6246 35.0443 28.9134 34.4148 30.2043C33.6761 31.7193 32.3275 33.2331 30.4282 34.7088C30.4185 34.7163 30.4097 34.7226 30.4035 34.727L30.4017 34.7282L30.4017 34.7282L26.3489 37.516L26.3488 37.5161L26.2071 37.3101C26.1925 37.3202 26.1771 37.329 26.1611 37.3365L26.5039 26.9358ZM26.5039 26.9358L26.4995 26.9441L23.5469 32.5241L23.5469 32.5242C23.4639 32.6809 23.459 32.8675 23.5338 33.0284L26.5039 26.9358ZM24.681 32.8057L27.4932 27.491C28.2465 26.274 29.2045 25.506 30.3367 25.1804L30.3777 25.1686C30.7872 25.0553 31.1467 25.0234 31.4056 25.0202C31.5393 25.0186 31.6456 25.0246 31.7176 25.0308C31.7536 25.0339 31.7809 25.0371 31.7987 25.0394C31.8148 25.0415 31.8232 25.0429 31.8248 25.0432L31.825 25.0432L24.681 32.8057Z" fill="#FA3187" stroke="#FA3187" stroke-width="0.5"/>
<path d="M18.7906 24.8994C18.562 24.8344 18.3172 24.9187 18.1772 25.1107L18.1772 25.1107L17.3476 26.2483L17.3475 26.2484C16.5067 27.4017 16.7034 29.0093 17.7974 29.9259L17.7977 29.9262C17.8439 29.9648 17.8915 30.002 17.9406 30.038L17.941 30.0383C19.1491 30.9194 20.8417 30.6565 21.7259 29.452L21.7262 29.4516L21.731 29.4449L23.4917 27.0306L23.4917 27.0306C23.6009 26.8808 23.63 26.6871 23.5697 26.5118C23.5093 26.3365 23.3671 26.2018 23.1888 26.1511L23.1888 26.1511L18.7906 24.8994ZM18.7906 24.8994L18.7221 25.1399M18.7906 24.8994L18.7905 24.8994L18.7221 25.1399M18.7221 25.1399L23.1204 26.3915C23.22 26.4199 23.2996 26.4952 23.3333 26.5932C23.3671 26.6912 23.3508 26.7996 23.2897 26.8833L21.529 29.2976L21.5288 29.2979C20.7275 30.3967 19.1871 30.6377 18.0883 29.8363C18.0435 29.8035 18.0001 29.7695 17.958 29.7343C16.9648 28.9021 16.7862 27.4427 17.5496 26.3956L18.3792 25.258C18.4575 25.1507 18.5943 25.1035 18.7221 25.1399ZM17.9795 28.0915C17.9145 27.6776 18.0168 27.2548 18.2638 26.9164L18.2638 26.9163L18.8604 26.0982L22.0962 27.0192L20.8146 28.7765L20.8142 28.7771C20.5686 29.1158 20.1978 29.3422 19.7843 29.4058L19.7836 29.406C18.9224 29.5412 18.1147 28.9527 17.9795 28.0915ZM17.9795 28.0915L17.7325 28.1303L17.9795 28.0915Z" fill="#FA3187" stroke="#FA3187" stroke-width="0.5"/>
<path d="M24.0436 25.4721L24.0436 25.4721C24.215 25.5173 24.3978 25.4798 24.5376 25.3705C24.5376 25.3705 24.5376 25.3705 24.5376 25.3705L29.5101 21.4808L29.5107 21.4803C29.52 21.4729 29.5292 21.4652 29.5381 21.4573L29.5383 21.4571C31.1409 20.0263 31.6026 18.5062 31.7021 17.4721L31.4533 17.4482L31.7021 17.4721C31.8016 16.4387 31.5698 15.693 31.517 15.5398C31.15 14.2479 29.9247 13.2989 28.4843 13.1445L28.4843 13.1445C27.3038 13.018 26.066 13.4167 24.9061 14.2638L24.9061 14.2638C23.5458 15.2573 22.2937 16.8506 21.1762 18.9787C21.1693 18.9911 21.1639 19.0025 21.1598 19.0118C21.1596 19.0122 21.1594 19.0125 21.1593 19.0129L19.13 23.4917C19.13 23.4917 19.13 23.4918 19.13 23.4918C19.0007 23.777 19.1272 24.113 19.4124 24.2423L19.4127 24.2424C19.4412 24.2553 19.4709 24.2659 19.5018 24.2741C19.5018 24.2741 19.5018 24.2741 19.5019 24.2741L24.0436 25.4721ZM19.3577 23.5949C19.2854 23.7544 19.3561 23.9423 19.5156 24.0146C19.5318 24.0219 19.5485 24.0278 19.5656 24.0324L19.3577 23.5949ZM28.3633 14.272L28.3633 14.272C29.5345 14.3975 30.2397 15.1759 30.4294 15.8618C30.4337 15.8772 30.4388 15.8927 30.4438 15.9063L30.6786 15.8205L30.4434 15.9053L30.4433 15.9051C30.4433 15.9051 30.6606 16.5174 30.5702 17.3929L30.5702 17.3929C30.4491 18.5647 29.8619 19.643 28.7964 20.5989L24.0605 24.3035L20.44 23.3484L22.1865 19.4939C23.1322 17.6956 24.1762 16.3293 25.2383 15.4435C26.3015 14.5568 27.3652 14.165 28.3633 14.272Z" fill="#FA3187" stroke="#FA3187" stroke-width="0.5"/>
</svg>
