<svg width="27" height="27" viewBox="0 0 27 27" fill="none" xmlns="http://www.w3.org/2000/svg">
<path d="M25.418 15.4116V2.42578C25.418 1.98887 25.0639 1.63477 24.627 1.63477H20.6191V0.791016C20.6191 0.354103 20.265 0 19.8281 0C19.3912 0 19.0371 0.354103 19.0371 0.791016V1.63477H15.873V0.791016C15.873 0.354103 15.5189 0 15.082 0C14.6451 0 14.291 0.354103 14.291 0.791016V1.63477H11.127V0.791016C11.127 0.354103 10.7729 0 10.3359 0C9.89902 0 9.54492 0.354103 9.54492 0.791016V1.63477H6.38086V0.791016C6.38086 0.354103 6.02676 0 5.58984 0C5.15293 0 4.79883 0.354103 4.79883 0.791016V1.63477H0.791016C0.354103 1.63477 0 1.98887 0 2.42578V23.0449C0 23.4818 0.354103 23.8359 0.791016 23.8359H13.9643C15.2431 25.7424 17.4178 27 19.8809 27C23.8063 27 27 23.8063 27 19.8809C27 18.1897 26.4067 16.6344 25.418 15.4116ZM4.79883 3.2168V4.00781C4.79883 4.44473 5.15293 4.79883 5.58984 4.79883C6.02676 4.79883 6.38086 4.44473 6.38086 4.00781V3.2168H9.54492V4.00781C9.54492 4.44473 9.89902 4.79883 10.3359 4.79883C10.7729 4.79883 11.127 4.44473 11.127 4.00781V3.2168H14.291V4.00781C14.291 4.44473 14.6451 4.79883 15.082 4.79883C15.5189 4.79883 15.873 4.44473 15.873 4.00781V3.2168H19.0371V4.00781C19.0371 4.44473 19.3912 4.79883 19.8281 4.79883C20.265 4.79883 20.6191 4.44473 20.6191 4.00781V3.2168H23.8359V6.38086H1.58203V3.2168H4.79883ZM1.58203 22.2539V7.96289H23.8359V13.9643C22.704 13.2052 21.3432 12.7617 19.8809 12.7617C17.3813 12.7617 15.1788 14.0568 13.9083 16.0109C13.8014 15.9569 13.6809 15.9258 13.5527 15.9258H11.9707C11.5338 15.9258 11.1797 16.2799 11.1797 16.7168C11.1797 17.1537 11.5338 17.5078 11.9707 17.5078H13.169C12.9904 18.0117 12.8668 18.5415 12.806 19.0898H11.9707C11.5338 19.0898 11.1797 19.4439 11.1797 19.8809C11.1797 20.3178 11.5338 20.6719 11.9707 20.6719H12.806C12.8668 21.2202 12.9902 21.75 13.169 22.2539H1.58203ZM19.8809 25.418C16.8276 25.418 14.3438 22.9341 14.3438 19.8809C14.3438 16.8276 16.8276 14.3438 19.8809 14.3438C22.9341 14.3438 25.418 16.8276 25.418 19.8809C25.418 22.9341 22.9341 25.418 19.8809 25.418Z" fill="#FA3187"/>
<path d="M23.0449 19.0898H20.6719V16.7168C20.6719 16.2799 20.3178 15.9258 19.8809 15.9258C19.4439 15.9258 19.0898 16.2799 19.0898 16.7168V19.8809C19.0898 20.3178 19.4439 20.6719 19.8809 20.6719H23.0449C23.4818 20.6719 23.8359 20.3178 23.8359 19.8809C23.8359 19.4439 23.4818 19.0898 23.0449 19.0898Z" fill="#FA3187"/>
<path d="M7.17188 9.59766H5.58984C5.15293 9.59766 4.79883 9.95176 4.79883 10.3887C4.79883 10.8256 5.15293 11.1797 5.58984 11.1797H7.17188C7.60879 11.1797 7.96289 10.8256 7.96289 10.3887C7.96289 9.95176 7.60879 9.59766 7.17188 9.59766Z" fill="#FA3187"/>
<path d="M7.17188 12.7617H5.58984C5.15293 12.7617 4.79883 13.1158 4.79883 13.5527C4.79883 13.9896 5.15293 14.3438 5.58984 14.3438H7.17188C7.60879 14.3438 7.96289 13.9896 7.96289 13.5527C7.96289 13.1158 7.60879 12.7617 7.17188 12.7617Z" fill="#FA3187"/>
<path d="M7.17188 15.9258H5.58984C5.15293 15.9258 4.79883 16.2799 4.79883 16.7168C4.79883 17.1537 5.15293 17.5078 5.58984 17.5078H7.17188C7.60879 17.5078 7.96289 17.1537 7.96289 16.7168C7.96289 16.2799 7.60879 15.9258 7.17188 15.9258Z" fill="#FA3187"/>
<path d="M11.9707 11.1797H13.5527C13.9896 11.1797 14.3438 10.8256 14.3438 10.3887C14.3438 9.95176 13.9896 9.59766 13.5527 9.59766H11.9707C11.5338 9.59766 11.1797 9.95176 11.1797 10.3887C11.1797 10.8256 11.5338 11.1797 11.9707 11.1797Z" fill="#FA3187"/>
<path d="M11.9707 14.3438H13.5527C13.9896 14.3438 14.3438 13.9896 14.3438 13.5527C14.3438 13.1158 13.9896 12.7617 13.5527 12.7617H11.9707C11.5338 12.7617 11.1797 13.1158 11.1797 13.5527C11.1797 13.9896 11.5338 14.3438 11.9707 14.3438Z" fill="#FA3187"/>
<path d="M7.17188 19.0898H5.58984C5.15293 19.0898 4.79883 19.4439 4.79883 19.8809C4.79883 20.3178 5.15293 20.6719 5.58984 20.6719H7.17188C7.60879 20.6719 7.96289 20.3178 7.96289 19.8809C7.96289 19.4439 7.60879 19.0898 7.17188 19.0898Z" fill="#FA3187"/>
<path d="M18.2988 11.1797H19.8809C20.3178 11.1797 20.6719 10.8256 20.6719 10.3887C20.6719 9.95176 20.3178 9.59766 19.8809 9.59766H18.2988C17.8619 9.59766 17.5078 9.95176 17.5078 10.3887C17.5078 10.8256 17.8619 11.1797 18.2988 11.1797Z" fill="#FA3187"/>
</svg>
