<svg width="28" height="28" viewBox="0 0 28 28" fill="none" xmlns="http://www.w3.org/2000/svg">
<path d="M14.586 2.61381L14.4592 2.5338C15.2469 1.28446 17.0817 1.31838 17.8215 2.59975L19.4381 5.39996C19.958 5.22836 20.5168 5.21095 21.0573 5.35575C23.2471 5.94242 23.8819 8.7307 22.217 10.2131L23.8338 13.0135C24.5725 14.2927 23.6884 15.9007 22.2099 15.9583C18.2934 16.1109 14.5386 17.1235 11.1632 18.8475L7.82667 20.7739L10.4616 25.3378C10.5701 25.5256 10.8096 25.5898 10.9974 25.4814L11.9479 24.9326L11.9479 24.9326C12.1357 24.8242 12.1998 24.5846 12.0914 24.3969L10.1708 21.0702C10.0097 20.7913 10.1053 20.4345 10.3843 20.2734C10.6633 20.1123 11.0201 20.2079 11.1812 20.4869L13.1018 23.8135L12.9719 23.8885L13.1018 23.8135C13.5326 24.5597 13.2773 25.5122 12.5312 25.943L11.5807 26.4918L11.5057 26.3619L11.5807 26.4918C10.8343 26.9226 9.88189 26.6671 9.45123 25.9211L6.81613 21.357C5.61025 22.0318 4.07717 21.6127 3.38408 20.4123L1.18909 16.6104L1.31899 16.5354L1.18909 16.6104C0.490287 15.4 0.906387 13.8471 2.11675 13.1483L4.75845 11.6231C4.75846 11.6231 4.75846 11.6231 4.75847 11.6231C5.03739 11.4621 5.39424 11.5576 5.55533 11.8367M14.586 2.61381L5.42542 11.9116M14.586 2.61381L14.4592 2.53381C12.4055 5.79109 9.66967 8.56147 6.42143 10.6639C6.42139 10.6639 6.42135 10.6639 6.42131 10.6639L6.50282 10.7899C6.3168 10.91 6.24785 11.1583 6.35792 11.3604C6.37433 11.3905 8.77904 15.5552 9.13228 16.1669L9.17531 16.2415C9.29491 16.4486 9.55979 16.5198 9.76725 16.4001C9.9745 16.2804 10.0455 16.0154 9.92586 15.8081L7.31767 11.2905M14.586 2.61381L4.3944 19.829C4.77137 20.482 5.60969 20.7067 6.26276 20.3296L6.33777 20.4595L6.26277 20.3296C6.29718 20.3097 6.39103 20.2556 6.52893 20.1759C7.48858 19.6218 10.5814 17.836 10.6187 17.8156C10.6188 17.8155 10.6189 17.8155 10.619 17.8155L10.687 17.9492C14.2634 16.12 18.175 15.0981 22.1703 14.9424C22.8824 14.9147 23.3101 14.1399 22.9534 13.5219L16.9409 3.10809C16.5846 2.49095 15.6998 2.47221 15.3192 3.07602C13.1909 6.45161 10.4324 9.20828 7.31767 11.2905M5.55533 11.8367L5.42542 11.9116M5.55533 11.8367C5.55532 11.8366 5.55532 11.8366 5.55532 11.8366L5.42542 11.9116M5.55533 11.8367C5.71639 12.1156 5.6208 12.4724 5.34181 12.6335L5.26681 12.5036C5.47406 12.3839 5.54507 12.1189 5.42542 11.9116M7.31767 11.2905L7.40103 11.4152C7.43995 11.3892 7.47881 11.3631 7.51762 11.3368L7.44757 11.2155L7.31767 11.2905ZM25.0931 6.03768L25.0932 6.03767L26.2144 5.3903C26.4934 5.22923 26.589 4.87244 26.4279 4.59346C26.2669 4.31454 25.9102 4.21881 25.631 4.37994L25.631 4.37995L24.5098 5.02731C24.2309 5.18836 24.1351 5.54513 24.2963 5.82415C24.4573 6.10308 24.814 6.1988 25.0931 6.03768ZM21.1726 2.75173L21.1726 2.75175C21.0892 3.06293 21.2738 3.38276 21.585 3.46618L21.5851 3.46621C21.8972 3.54959 22.2163 3.36411 22.2995 3.0537L22.1546 3.01487L22.2995 3.0537L22.5729 2.0334C22.5729 2.0334 22.5729 2.03339 22.5729 2.03339C22.6564 1.72223 22.4717 1.40235 22.1605 1.31893L22.1604 1.31891C21.8491 1.23568 21.5294 1.42017 21.446 1.73141L21.5909 1.77025L21.446 1.73142L21.1726 2.75173ZM25.6971 8.93853L25.6971 8.93851C25.386 8.85534 25.0661 9.03974 24.9827 9.35101C24.8993 9.66226 25.084 9.98207 25.3952 10.0655L25.434 9.92059L25.3952 10.0655C25.6342 10.1295 25.8195 10.1795 25.9638 10.2183C26.1535 10.2694 26.2723 10.3014 26.3493 10.3214C26.4159 10.3386 26.4574 10.3486 26.4884 10.3536C26.5216 10.3591 26.5439 10.359 26.5608 10.3589C26.5629 10.3589 26.5649 10.3589 26.5668 10.3589C26.8243 10.3589 27.0601 10.1872 27.13 9.92643C27.2134 9.61519 27.0286 9.29533 26.7175 9.21192L26.7175 9.21192L25.6971 8.93853ZM21.771 7.262C22.1294 7.88271 22.0431 8.64065 21.6113 9.16396L20.0436 6.44846C20.7049 6.33661 21.4072 6.6317 21.771 7.26199L21.9009 7.187L21.771 7.262Z" fill="#FA3187" stroke="#FA3187" stroke-width="0.3"/>
</svg>
