<svg width="21" height="15" viewBox="0 0 21 15" fill="none" xmlns="http://www.w3.org/2000/svg">
<path d="M19.9231 0.44458H1.07695C0.4846 0.44458 0 0.921506 0 1.50443V13.163C0 13.7459 0.4846 14.2229 1.07695 14.2229H19.9231C20.5154 14.2229 21 13.746 21 13.163V1.50443C21 0.921506 20.5154 0.44458 19.9231 0.44458ZM19.5189 1.23943L11.1195 7.43976C10.9685 7.55286 10.7367 7.62362 10.5 7.62257C10.2633 7.62362 10.0315 7.55286 9.88046 7.43976L1.48103 1.23943H19.5189ZM15.0322 7.84887L19.6092 13.4132C19.6138 13.4188 19.6194 13.423 19.6243 13.4281H1.37575C1.38059 13.4228 1.38625 13.4188 1.39084 13.4132L5.96777 7.84887C6.10801 7.67824 6.08143 7.42809 5.90773 7.28975C5.73435 7.15174 5.48018 7.1779 5.33991 7.34857L0.80768 12.8586V1.73626L9.39611 8.0756C9.71894 8.31223 10.1117 8.41637 10.4999 8.41742C10.8876 8.41662 11.2807 8.31247 11.6037 8.0756L20.1922 1.73626V12.8585L15.6601 7.34857C15.5198 7.17794 15.2654 7.1517 15.0922 7.28975C14.9186 7.42777 14.8919 7.67824 15.0322 7.84887Z" fill="white"/>
</svg>
