<svg width="13" height="13" viewBox="0 0 13 13" fill="none" xmlns="http://www.w3.org/2000/svg">
<g clip-path="url(#clip0)">
<path d="M6.49245 0.000976563C6.25943 0.000976563 6.02657 0.0135035 5.79488 0.038476C5.58252 0.0601677 5.37276 0.095742 5.16582 0.138908C5.12577 0.147287 5.0857 0.156126 5.04565 0.165372C3.82639 0.442971 2.71306 1.06636 1.83919 1.96079C1.75793 2.04409 1.67837 2.12985 1.60058 2.21805C-0.760015 4.9281 -0.476722 9.03867 2.23335 11.3993C4.82789 13.6592 8.73334 13.5089 11.1464 11.0561C11.2279 10.9728 11.3074 10.887 11.385 10.7988C12.4268 9.61247 13.0009 8.0873 13 6.50845C13 2.91444 10.0865 0.000949448 6.49245 0.000976563ZM2.12834 2.28617C2.16261 2.25059 2.19818 2.21654 2.23311 2.18205C2.27345 2.14235 2.31358 2.10244 2.3548 2.06404C2.39102 2.0302 2.42833 1.99767 2.46543 1.9647C2.50729 1.9276 2.54894 1.89051 2.59189 1.85472C2.62963 1.82283 2.66846 1.79225 2.70707 1.76144C2.75045 1.72674 2.79384 1.69203 2.83852 1.65863C2.878 1.62891 2.91813 1.60006 2.95848 1.57186C3.00338 1.53976 3.0485 1.50678 3.09427 1.47685C3.13526 1.44908 3.17669 1.42219 3.21834 1.39551C3.26476 1.36579 3.3114 1.3365 3.35847 1.30874C3.40085 1.28344 3.4435 1.25855 3.48645 1.23412C3.53447 1.20679 3.58268 1.18011 3.63114 1.15408C3.67452 1.13095 3.7179 1.10831 3.76128 1.08618C3.81074 1.06124 3.86063 1.03716 3.91074 1.01352C3.95412 0.992909 3.99924 0.972302 4.04393 0.952779C4.0949 0.931088 4.14653 0.909396 4.19815 0.887704C4.24306 0.869266 4.28774 0.851262 4.33308 0.833909C4.38557 0.813953 4.43872 0.795298 4.49186 0.776643C4.5372 0.760808 4.58253 0.744973 4.62852 0.730006C4.68253 0.712653 4.73698 0.696601 4.79164 0.680766C4.83741 0.667534 4.88274 0.653868 4.92873 0.641504C4.9463 0.636949 4.96387 0.633261 4.98144 0.628706C4.33937 1.25215 3.86288 2.02589 3.59513 2.87987C3.08028 2.74408 2.58186 2.55227 2.10881 2.30786C2.11597 2.30027 2.12205 2.29267 2.12834 2.28617ZM1.81641 2.6354C2.33747 2.91772 2.89001 3.13762 3.46259 3.29049C3.1819 4.26651 3.03456 5.27601 3.02464 6.29153H0.423807C0.471068 4.95237 0.960784 3.66665 1.81641 2.6354ZM1.81641 10.3815C0.960838 9.35022 0.471122 8.0645 0.423807 6.72536H3.02464C3.03456 7.74089 3.18187 8.75039 3.46259 9.7264C2.89004 9.87933 2.3375 10.0992 1.81641 10.3815ZM4.92743 12.3763C4.88361 12.3652 4.83828 12.3509 4.79316 12.3376C4.73828 12.3216 4.68318 12.3055 4.62895 12.288C4.58318 12.2732 4.53806 12.2574 4.49294 12.2416C4.43958 12.2231 4.38622 12.2042 4.33351 12.1841C4.28839 12.1669 4.24392 12.1489 4.19924 12.1307C4.1474 12.109 4.09555 12.0873 4.04414 12.0656C3.99989 12.0461 3.95586 12.026 3.91204 12.0053C3.8615 11.9815 3.81118 11.9572 3.7602 11.932C3.71682 11.9103 3.67343 11.8886 3.63005 11.865C3.58103 11.8387 3.53244 11.8118 3.48385 11.7841C3.44047 11.76 3.39925 11.7353 3.35739 11.7101C3.30966 11.6815 3.26281 11.652 3.21596 11.6218C3.17474 11.5956 3.13353 11.5689 3.09297 11.5416C3.04676 11.5103 3.00099 11.4778 2.95566 11.4453C2.91596 11.4168 2.87627 11.3884 2.83722 11.3585C2.79232 11.3246 2.74828 11.2897 2.70447 11.2546C2.66607 11.224 2.6279 11.1936 2.59037 11.1622C2.54699 11.1262 2.50512 11.0886 2.46304 11.0513C2.42616 11.0186 2.38907 10.9863 2.35306 10.9529C2.31163 10.9142 2.2715 10.8741 2.23116 10.8344C2.19623 10.7999 2.16066 10.7659 2.12638 10.7305C2.12009 10.7238 2.11402 10.7168 2.10773 10.7103C2.58074 10.4658 3.07916 10.2739 3.59404 10.1381C3.86185 10.9921 4.33831 11.7658 4.98036 12.3893C4.96279 12.3847 4.945 12.381 4.92743 12.3763ZM6.27557 12.565C5.34738 12.4331 4.53372 11.4643 4.0218 10.0338C4.76192 9.86805 5.5172 9.77914 6.27557 9.76849V12.565ZM6.27557 9.33465C5.47108 9.34523 4.66998 9.44078 3.88558 9.61968C3.61321 8.67862 3.46953 7.70499 3.45847 6.72536H6.27557V9.33465ZM6.27557 6.29153H3.45847C3.46951 5.31191 3.61319 4.33828 3.88558 3.39721C4.66998 3.57609 5.4711 3.67164 6.27557 3.68224V6.29153ZM6.27557 3.24841C5.51717 3.23783 4.76192 3.14892 4.0218 2.98312C4.53372 1.55255 5.34738 0.583804 6.27557 0.451919V3.24841ZM11.1686 2.6354C12.0241 3.66668 12.5138 4.9524 12.5612 6.29153H9.96033C9.9504 5.27601 9.80309 4.26651 9.52237 3.29049C10.0949 3.13754 10.6475 2.91766 11.1686 2.6354ZM8.0558 0.64042C8.10135 0.651699 8.14669 0.666016 8.19181 0.679248C8.24669 0.695299 8.30178 0.711351 8.35601 0.728921C8.40178 0.743672 8.4469 0.759507 8.49202 0.775342C8.54538 0.79378 8.59874 0.812651 8.65145 0.832825C8.69657 0.849961 8.74104 0.867965 8.78572 0.886186C8.83757 0.907878 8.88941 0.929569 8.94082 0.951261C8.98507 0.970783 9.0291 0.990875 9.07292 1.01156C9.12346 1.03542 9.17379 1.05972 9.22476 1.08488C9.26815 1.10657 9.31153 1.12826 9.35491 1.15191C9.40394 1.17816 9.45253 1.20505 9.50111 1.23282C9.5445 1.2569 9.58571 1.28162 9.62758 1.30679C9.6753 1.33542 9.72215 1.36492 9.76901 1.39507C9.81022 1.42132 9.85143 1.448 9.892 1.47533C9.9382 1.50657 9.98375 1.53889 10.0291 1.57143C10.069 1.59984 10.1087 1.62847 10.148 1.65819C10.1926 1.69181 10.2365 1.72674 10.2805 1.76188C10.3187 1.79225 10.3571 1.82261 10.3946 1.85428C10.438 1.89029 10.4798 1.92782 10.5219 1.96513C10.5588 1.99788 10.5959 2.0302 10.6319 2.06361C10.6733 2.10222 10.7135 2.14235 10.7538 2.18205C10.7887 2.21654 10.8243 2.25059 10.8586 2.28595C10.8649 2.29267 10.8709 2.29961 10.8772 2.30612C10.4042 2.55064 9.9058 2.74253 9.39092 2.87835C9.12259 2.02429 8.64551 1.25063 8.00287 0.627405C8.02044 0.63196 8.03823 0.635647 8.0558 0.64042ZM6.7094 0.451919C7.63758 0.583804 8.45124 1.55255 8.96316 2.98312C8.22304 3.14884 7.46777 3.23775 6.7094 3.24841V0.451919ZM6.7094 3.68224C7.51389 3.67167 8.31499 3.57611 9.09939 3.39721C9.37175 4.33828 9.51543 5.31191 9.52649 6.29153H6.7094V3.68224ZM6.7094 6.72536H9.52649C9.51546 7.70499 9.37178 8.67862 9.09939 9.61968C8.31499 9.44081 7.51389 9.34525 6.7094 9.33465V6.72536ZM6.7094 12.565V9.76849C7.46779 9.77906 8.22304 9.86797 8.96316 10.0338C8.45124 11.4643 7.63758 12.4331 6.7094 12.565ZM10.8566 10.7307C10.8224 10.7661 10.787 10.8001 10.7521 10.8346C10.7117 10.8743 10.6714 10.9145 10.6299 10.9531C10.5939 10.9867 10.5568 11.0181 10.52 11.0518C10.4779 11.0891 10.436 11.1264 10.3931 11.1624C10.3551 11.1941 10.3165 11.2246 10.2779 11.2554C10.2345 11.2902 10.1911 11.3249 10.1464 11.3583C10.107 11.388 10.0668 11.4168 10.0265 11.445C9.98158 11.4771 9.93647 11.5101 9.8907 11.54C9.8497 11.5678 9.80827 11.5947 9.76662 11.6212C9.7202 11.6511 9.67343 11.68 9.62628 11.7079C9.58289 11.7333 9.54146 11.758 9.49873 11.7826C9.45071 11.8099 9.40242 11.8366 9.35383 11.8626C9.31044 11.8857 9.26706 11.9084 9.22368 11.9305C9.17422 11.9554 9.12433 11.9795 9.07422 12.0032C9.03084 12.0238 8.98572 12.0444 8.94104 12.0639C8.89006 12.0856 8.83843 12.1073 8.78681 12.129C8.74191 12.1472 8.69722 12.1654 8.6521 12.1826C8.59918 12.2027 8.54603 12.2216 8.49267 12.24C8.44755 12.2559 8.40243 12.2717 8.35666 12.2865C8.30243 12.304 8.2482 12.3201 8.19289 12.3359C8.14756 12.3494 8.102 12.3628 8.05623 12.3752C8.03866 12.3797 8.02109 12.3834 8.00352 12.388C8.6456 11.7645 9.12208 10.9908 9.38984 10.1368C9.90469 10.2726 10.4031 10.4644 10.8761 10.7088C10.869 10.7166 10.8629 10.7242 10.8566 10.7307ZM11.1686 10.3815C10.6475 10.0992 10.095 9.87928 9.52237 9.7264C9.80306 8.75039 9.9504 7.74089 9.96033 6.72536H12.5612C12.5139 8.0645 12.0242 9.35024 11.1686 10.3815Z" fill="white"/>
</g>
<defs>
<clipPath id="clip0">
<rect width="13" height="13" fill="white"/>
</clipPath>
</defs>
</svg>
