<svg width="21" height="21" viewBox="0 0 21 21" fill="none" xmlns="http://www.w3.org/2000/svg">
<g clip-path="url(#clip0)">
<path d="M6.21754 0.211391C7.33426 0.162338 7.68859 0.15 10.5389 0.15C13.3893 0.15 13.7434 0.16234 14.864 0.215534L14.8645 0.215556C15.9655 0.264102 16.7124 0.441632 17.3645 0.693732L17.3657 0.694205C18.0426 0.948978 18.6601 1.35133 19.1701 1.86926L19.1701 1.86928L19.1722 1.87131C19.6937 2.3809 20.092 2.99399 20.351 3.67946L20.3515 3.68079C20.6035 4.32868 20.7811 5.07946 20.8296 6.18066C20.8786 7.29692 20.8828 7.65074 20.8828 10.5021C20.8828 13.3524 20.8705 13.7067 20.8214 14.8234C20.7729 15.9244 20.5952 16.6713 20.3433 17.3236C19.8129 18.6953 18.7282 19.78 17.3563 20.3104L17.356 20.3105C16.7083 20.5624 15.9575 20.74 14.8563 20.7885C13.7396 20.8378 13.3853 20.8499 10.5349 20.8499C7.68456 20.8499 7.33009 20.8378 6.21355 20.7885C5.11235 20.74 4.3656 20.5625 3.7134 20.3104L3.71215 20.3099C3.03525 20.0551 2.41778 19.6528 1.90779 19.1348L1.90616 19.1332C1.38812 18.6231 0.985928 18.0097 0.727029 17.3246L0.72651 17.3233C0.474563 16.6754 0.296837 15.9246 0.248287 14.8235C0.199233 13.7067 0.186896 13.3524 0.186896 10.5021C0.186896 7.65165 0.199236 7.29758 0.25243 6.177L0.252452 6.1765C0.300997 5.07546 0.478526 4.32871 0.730627 3.6765L0.730632 3.6765L0.73109 3.67529C0.986033 2.99834 1.38824 2.38087 1.90616 1.8709L1.90618 1.87092L1.9082 1.86884C2.41779 1.34728 3.03088 0.949025 3.7165 0.689971L3.7165 0.689977L3.71783 0.689462C4.36559 0.437668 5.11635 0.259942 6.21754 0.211391ZM6.21754 0.211391L6.21095 0.0615355M6.21754 0.211391L6.21095 0.0615355M6.21095 0.0615355C5.09514 0.110732 4.32803 0.291332 3.66348 0.549653M6.21095 0.0615355C7.33093 0.0123391 7.6878 0 10.5389 0C13.3901 0 13.747 0.0123391 14.8711 0.0657019C15.9869 0.114898 16.75 0.295338 17.4186 0.553819C18.116 0.816306 18.7518 1.23071 19.277 1.76402C19.8145 2.28915 20.2247 2.92085 20.4913 3.62643C20.7498 4.29114 20.9303 5.05825 20.9795 6.17406C21.0287 7.29403 21.0328 7.65091 21.0328 10.5021C21.0328 13.3532 21.0205 13.7101 20.9713 14.83C20.9221 15.9459 20.7415 16.709 20.4832 17.3777L3.66348 0.549653M3.66348 0.549653C2.95775 0.816306 2.32605 1.22654 1.80091 1.76402C1.2676 2.28915 0.853362 2.92502 0.590715 3.62242L3.66348 0.549653ZM14.7915 19.2012C15.8299 19.1554 16.4038 18.9796 16.7879 18.8302C17.7419 18.4621 18.499 17.705 18.8671 16.751L14.7849 19.0513M14.7915 19.2012L14.7849 19.0513M14.7915 19.2012C14.7915 19.2012 14.7915 19.2012 14.7916 19.2012L14.7849 19.0513M14.7915 19.2012C13.6806 19.2507 13.3458 19.2628 10.5431 19.2628C7.74046 19.2628 7.40143 19.2507 6.29459 19.2012M14.7849 19.0513C13.6773 19.1007 13.3451 19.1128 10.5431 19.1128C7.74117 19.1128 7.4048 19.1007 6.30117 19.0513M6.29459 19.2012L6.30117 19.0513M6.29459 19.2012C6.29455 19.2012 6.29451 19.2012 6.29447 19.2012L6.30117 19.0513M6.29459 19.2012C5.25313 19.1554 4.68329 18.9799 4.2993 18.8307C3.82476 18.6551 3.39207 18.3769 3.04012 18.0126M3.04012 18.0126C3.04065 18.0131 3.04118 18.0136 3.04172 18.0141L3.14652 17.9068L3.03856 18.011C3.03908 18.0115 3.0396 18.012 3.04012 18.0126Z" fill="white" stroke="#8723AA" stroke-width="0.3"/>
<path d="M5.29435 10.502C5.29435 7.60649 7.64358 5.25742 10.539 5.25742C13.4345 5.25742 15.7836 7.60649 15.7836 10.502C15.7836 13.3976 13.4345 15.7466 10.539 15.7466C7.64358 15.7466 5.29435 13.3976 5.29435 10.502ZM6.88961 10.502C6.88961 12.5172 8.524 14.1514 10.539 14.1514C12.5541 14.1514 14.1883 12.5171 14.1883 10.502C14.1883 8.48691 12.5541 6.85268 10.539 6.85268C8.524 6.85268 6.88961 8.4869 6.88961 10.502Z" fill="white" stroke="#8723AA" stroke-width="0.3"/>
<path d="M17.2564 4.89416C17.2564 5.50678 16.7597 6.00355 16.1468 6.00355C15.5342 6.00355 15.0375 5.5068 15.0375 4.89416C15.0375 4.28138 15.5342 3.78477 16.1468 3.78477C16.7597 3.78477 17.2564 4.28139 17.2564 4.89416Z" fill="white" stroke="#8723AA" stroke-width="0.3"/>
</g>
<defs>
<clipPath id="clip0">
<rect width="21" height="21" fill="white"/>
</clipPath>
</defs>
</svg>
