<svg width="73" height="73" viewBox="0 0 73 73" fill="none" xmlns="http://www.w3.org/2000/svg">
<path d="M51.6938 24.6034L50.9127 22.0326C49.9205 19.1123 46.7488 17.5494 43.8285 18.5415C42.1856 19.0997 40.8955 20.3898 40.3374 22.0326L39.5563 24.6034C38.899 26.7715 38.761 29.0639 39.1536 31.2951C39.5116 33.1736 40.7042 34.7875 42.3948 35.6812L41.52 55.2367C41.4029 56.3282 41.7569 57.4179 42.4933 58.2321C44.077 59.9643 46.7652 60.0848 48.4974 58.5011C48.5911 58.4155 48.6808 58.3258 48.7664 58.2321C49.4864 57.441 49.8399 56.3832 49.7398 55.3182L48.8601 35.6788C50.5484 34.7847 51.7391 33.1718 52.0965 31.2951C52.489 29.0639 52.3511 26.7715 51.6938 24.6034ZM49.6996 30.8717C49.4362 32.2213 48.4744 33.3286 47.175 33.7783C46.6818 33.9637 46.3641 34.4455 46.3879 34.9719L47.3125 55.5104C47.3551 55.9133 47.2222 56.3149 46.9475 56.6127C46.2149 57.338 45.0351 57.338 44.3025 56.6127C44.0141 56.2909 43.8832 55.8578 43.9448 55.4301L44.8622 34.9719C44.8859 34.4455 44.5682 33.9637 44.075 33.7783C42.7756 33.3286 41.8138 32.2213 41.5504 30.8717C41.2249 29.0193 41.3396 27.1163 41.885 25.3164L42.6661 22.7444C43.2705 21.1102 45.0851 20.2755 46.7194 20.8798C47.5834 21.1994 48.2644 21.8805 48.5839 22.7444L49.3651 25.3164C49.9098 27.1165 50.0245 29.0193 49.6996 30.8717Z" fill="white"/>
<path d="M32.85 18.25C32.1781 18.25 31.6333 18.7948 31.6333 19.4667V29.913L28.3398 33.2065C28.0962 33.4492 27.9666 33.7839 27.9833 34.1275L29.0479 55.4192C29.0733 55.8783 28.9066 56.3274 28.588 56.659C27.922 57.3309 26.8374 57.3357 26.1653 56.6696C26.1617 56.6661 26.1582 56.6625 26.1547 56.659C25.8359 56.3274 25.6694 55.8783 25.6948 55.4192L26.7667 34.1275C26.7837 33.7841 26.6546 33.4495 26.4114 33.2065L23.1167 29.913V19.4667C23.1167 18.7948 22.5719 18.25 21.9 18.25C21.2281 18.25 20.6833 18.7948 20.6833 19.4667V30.4167C20.6833 30.7394 20.8117 31.0487 21.0398 31.2769L24.3078 34.546L23.27 55.3012C23.1596 57.5683 24.9079 59.4958 27.175 59.6062C29.4421 59.7166 31.3696 57.9682 31.48 55.7011C31.4866 55.5679 31.4866 55.4345 31.48 55.3013L30.4422 34.5462L33.7102 31.277C33.9383 31.0489 34.0667 30.7395 34.0667 30.4168V19.4668C34.0667 18.7948 33.5219 18.25 32.85 18.25Z" fill="white"/>
<path d="M25.55 18.25C24.8781 18.25 24.3333 18.7948 24.3333 19.4667V29.2C24.3333 29.8719 24.8781 30.4167 25.55 30.4167C26.2219 30.4167 26.7667 29.8719 26.7667 29.2V19.4667C26.7667 18.7948 26.2219 18.25 25.55 18.25Z" fill="white"/>
<path d="M29.2 18.25C28.5281 18.25 27.9833 18.7948 27.9833 19.4667V29.2C27.9833 29.8719 28.5281 30.4167 29.2 30.4167C29.8719 30.4167 30.4167 29.8719 30.4167 29.2V19.4667C30.4167 18.7948 29.8719 18.25 29.2 18.25Z" fill="white"/>
<path d="M36.5 0C16.3417 0 0 16.3417 0 36.5C0 56.6583 16.3417 73 36.5 73C56.6583 73 73 56.6583 73 36.5C72.9772 16.3511 56.6489 0.0228125 36.5 0ZM36.5 70.5667C17.6855 70.5667 2.43333 55.3145 2.43333 36.5C2.43333 17.6855 17.6855 2.43333 36.5 2.43333C55.3145 2.43333 70.5667 17.6855 70.5667 36.5C70.5452 55.3056 55.3056 70.5452 36.5 70.5667Z" fill="white"/>
<path d="M40.4495 59.3387C40.3842 58.67 39.7891 58.1807 39.1203 58.2459C39.1046 58.2475 39.0889 58.2493 39.0733 58.2514L39.0781 58.2502C37.3652 58.4491 35.6348 58.4491 33.9219 58.2502C33.2542 58.1719 32.6497 58.6496 32.5714 59.3172C32.4931 59.9849 32.9708 60.5894 33.6384 60.6677C35.5381 60.8896 37.4571 60.8896 39.3567 60.6677C40.0255 60.6026 40.5147 60.0075 40.4495 59.3387Z" fill="white"/>
<path d="M55.115 20.822C54.6832 20.3072 53.9158 20.2399 53.401 20.6718C53.3994 20.6731 53.3977 20.6747 53.3959 20.676C52.8823 21.1092 52.8169 21.8766 53.2498 22.3903C60.5856 31.0986 60.0244 43.9754 51.959 52.0125C51.483 52.4869 51.4816 53.2575 51.9559 53.7335C52.4303 54.2095 53.2009 54.2109 53.6769 53.7365C62.6402 44.8073 63.2653 30.4989 55.115 20.822Z" fill="white"/>
<path d="M28.3477 16.082C28.3469 16.082 28.346 16.0818 28.3452 16.0818C28.3439 16.0818 28.3425 16.082 28.341 16.082H28.3477Z" fill="white"/>
<path d="M42.239 12.8468C37.4841 11.7073 32.4973 12.0135 27.9176 13.7265C27.2886 13.9629 26.9706 14.6647 27.2071 15.2935C27.3853 15.7676 27.8385 16.0813 28.3448 16.0818C28.4904 16.081 28.6346 16.0544 28.7705 16.0028C32.8947 14.4606 37.3854 14.1851 41.6672 15.212C42.3204 15.3699 42.9778 14.9685 43.1357 14.3153C43.2936 13.6621 42.8922 13.0047 42.239 12.8468Z" fill="white"/>
<path d="M20.9863 51.9516C16.8848 47.8571 14.586 42.2956 14.6 36.5C14.588 31.8696 16.0547 27.3564 18.7866 23.6179C19.1903 23.0807 19.0822 22.318 18.545 21.9143C18.0079 21.5105 17.2452 21.6186 16.8414 22.1558C16.8343 22.1653 16.8273 22.1749 16.8204 22.1847C9.7861 31.8553 10.8212 45.2038 19.2623 53.6744C19.738 54.1504 20.5097 54.1507 20.9857 53.675C21.4617 53.1993 21.462 52.4276 20.9863 51.9516Z" fill="white"/>
</svg>
