<svg width="75" height="75" viewBox="0 0 75 75" fill="none" xmlns="http://www.w3.org/2000/svg">
<path d="M53.9062 56.25H58.1084C58.788 56.2518 59.4612 56.1189 60.089 55.8588C60.7169 55.5988 61.2869 55.2168 61.7662 54.7349C61.9859 54.5152 62.1094 54.2171 62.1094 53.9063C62.1094 53.5955 61.9859 53.2974 61.7662 53.0776C61.5464 52.8578 61.2483 52.7344 60.9375 52.7344C60.6267 52.7344 60.3286 52.8578 60.1088 53.0776C59.8468 53.3411 59.535 53.5501 59.1916 53.6923C58.8483 53.8345 58.4801 53.9073 58.1084 53.9063H53.9062C53.5954 53.9063 53.2974 54.0297 53.0776 54.2495C52.8578 54.4693 52.7344 54.7673 52.7344 55.0781C52.7344 55.3889 52.8578 55.687 53.0776 55.9068C53.2974 56.1265 53.5954 56.25 53.9062 56.25Z" fill="white"/>
<path d="M57.4218 37.5C56.4947 37.5 55.5885 37.7749 54.8176 38.29C54.0468 38.8051 53.4459 39.5371 53.0912 40.3937C52.7364 41.2502 52.6435 42.1927 52.8244 43.102C53.0053 44.0113 53.4517 44.8465 54.1073 45.5021C54.7628 46.1576 55.5981 46.6041 56.5074 46.7849C57.4166 46.9658 58.3591 46.873 59.2157 46.5182C60.0722 46.1634 60.8043 45.5626 61.3194 44.7917C61.8344 44.0209 62.1093 43.1146 62.1093 42.1875C62.1079 40.9447 61.6136 39.7533 60.7349 38.8745C59.8561 37.9957 58.6646 37.5014 57.4218 37.5ZM57.4218 44.5313C56.9583 44.5313 56.5052 44.3938 56.1197 44.1363C55.7343 43.8787 55.4339 43.5127 55.2565 43.0844C55.0791 42.6561 55.0327 42.1849 55.1231 41.7303C55.2136 41.2756 55.4368 40.858 55.7646 40.5302C56.0923 40.2024 56.51 39.9792 56.9646 39.8888C57.4192 39.7984 57.8905 39.8448 58.3188 40.0222C58.747 40.1996 59.1131 40.5 59.3706 40.8854C59.6281 41.2708 59.7656 41.724 59.7656 42.1875C59.7649 42.8089 59.5177 43.4046 59.0783 43.844C58.6389 44.2833 58.0432 44.5305 57.4218 44.5313Z" fill="white"/>
<path d="M69.1406 31.6406C68.4453 31.6406 67.7656 31.8468 67.1875 32.2331C66.6093 32.6194 66.1587 33.1685 65.8926 33.8109C65.6265 34.4533 65.5569 35.1602 65.6926 35.8421C65.8282 36.5241 66.163 37.1505 66.6547 37.6422C67.1464 38.1338 67.7728 38.4687 68.4548 38.6043C69.1367 38.74 69.8436 38.6704 70.486 38.4043C71.1284 38.1382 71.6775 37.6876 72.0638 37.1094C72.4501 36.5313 72.6562 35.8516 72.6562 35.1562C72.6552 34.2242 72.2845 33.3306 71.6254 32.6715C70.9663 32.0124 70.0727 31.6417 69.1406 31.6406ZM69.1406 36.3281C68.9089 36.3281 68.6823 36.2594 68.4896 36.1306C68.2969 36.0019 68.1467 35.8188 68.058 35.6047C67.9693 35.3906 67.9461 35.1549 67.9913 34.9276C68.0365 34.7003 68.1481 34.4915 68.312 34.3276C68.4759 34.1637 68.6847 34.0521 68.912 34.0069C69.1393 33.9617 69.3749 33.9849 69.5891 34.0736C69.8032 34.1623 69.9862 34.3125 70.115 34.5052C70.2438 34.6979 70.3125 34.9245 70.3125 35.1562C70.3122 35.4669 70.1886 35.7648 69.9689 35.9845C69.7492 36.2042 69.4513 36.3278 69.1406 36.3281Z" fill="white"/>
<path d="M57.4218 21.0938C56.4947 21.0938 55.5885 21.3687 54.8176 21.8837C54.0468 22.3988 53.4459 23.1309 53.0912 23.9874C52.7364 24.844 52.6435 25.7864 52.8244 26.6957C53.0053 27.605 53.4517 28.4403 54.1073 29.0958C54.7628 29.7514 55.5981 30.1978 56.5074 30.3787C57.4166 30.5595 58.3591 30.4667 59.2157 30.1119C60.0722 29.7571 60.8043 29.1563 61.3194 28.3855C61.8344 27.6146 62.1093 26.7083 62.1093 25.7812C62.1079 24.5385 61.6136 23.347 60.7349 22.4682C59.8561 21.5895 58.6646 21.0951 57.4218 21.0938ZM57.4218 28.125C56.9583 28.125 56.5052 27.9875 56.1197 27.73C55.7343 27.4725 55.4339 27.1064 55.2565 26.6782C55.0791 26.2499 55.0327 25.7787 55.1231 25.324C55.2136 24.8694 55.4368 24.4517 55.7646 24.124C56.0923 23.7962 56.51 23.573 56.9646 23.4825C57.4192 23.3921 57.8905 23.4385 58.3188 23.6159C58.747 23.7933 59.1131 24.0937 59.3706 24.4791C59.6281 24.8646 59.7656 25.3177 59.7656 25.7812C59.7649 26.4026 59.5177 26.9983 59.0783 27.4377C58.6389 27.8771 58.0432 28.1243 57.4218 28.125Z" fill="white"/>
<path d="M10.2539 72.6562H22.5586C23.3422 72.6566 24.117 72.4906 24.8316 72.169C24.9398 72.3198 25.0824 72.4426 25.2476 72.5273C25.4127 72.6121 25.5956 72.6562 25.7812 72.6562H66.7969C67.0582 72.6562 67.3121 72.5689 67.5181 72.408C67.724 72.2472 67.8704 72.0221 67.9337 71.7686L68.8837 67.9688H70.3125C70.6233 67.9688 70.9214 67.8453 71.1411 67.6255C71.3609 67.4057 71.4844 67.1077 71.4844 66.7969V62.1094C71.4844 61.7986 71.3609 61.5005 71.1411 61.2807C70.9214 61.061 70.6233 60.9375 70.3125 60.9375H67.3446C68.2512 59.9268 68.8456 58.6752 69.0559 57.3338C69.2662 55.9925 69.0834 54.619 68.5296 53.3794C67.9758 52.1397 67.0747 51.0871 65.9353 50.3487C64.796 49.6103 63.4671 49.2179 62.1094 49.2188H50.3906V26.8066C50.3879 24.8484 49.673 22.9581 48.3793 21.4881C47.0856 20.0182 45.3014 19.069 43.3594 18.8175V15.2344C43.3594 14.9236 43.2359 14.6255 43.0161 14.4057C42.7964 14.186 42.4983 14.0625 42.1875 14.0625V4.6875C42.1875 4.3767 42.064 4.07863 41.8443 3.85886C41.6245 3.63909 41.3264 3.51563 41.0156 3.51562H29.5898C28.8908 3.51644 28.2206 3.7945 27.7263 4.2888C27.232 4.78311 26.9539 5.45329 26.9531 6.15234V8.20312C26.9531 8.51393 27.0766 8.812 27.2964 9.03177C27.5161 9.25153 27.8142 9.375 28.125 9.375H32.8125V14.0625C32.5017 14.0625 32.2036 14.186 31.9839 14.4057C31.7641 14.6255 31.6406 14.9236 31.6406 15.2344V18.8175C29.6986 19.069 27.9144 20.0182 26.6207 21.4881C25.327 22.9581 24.6121 24.8484 24.6094 26.8066V39.065C23.9569 38.8051 23.2609 38.6716 22.5586 38.6719C22.1702 38.6714 21.7979 38.517 21.5233 38.2424C21.2486 37.9677 21.0942 37.5954 21.0938 37.207V36.3281C21.4046 36.3281 21.7026 36.2047 21.9224 35.9849C22.1422 35.7651 22.2656 35.4671 22.2656 35.1562V30.4688C22.2656 30.1579 22.1422 29.8599 21.9224 29.6401C21.7026 29.4203 21.4046 29.2969 21.0938 29.2969H11.7188C11.4079 29.2969 11.1099 29.4203 10.8901 29.6401C10.6703 29.8599 10.5469 30.1579 10.5469 30.4688V35.1562C10.5469 35.4671 10.6703 35.7651 10.8901 35.9849C11.1099 36.2047 11.4079 36.3281 11.7188 36.3281V37.207C11.7183 37.5954 11.5639 37.9677 11.2892 38.2424C11.0146 38.517 10.6423 38.6714 10.2539 38.6719C8.77812 38.6735 7.36325 39.2605 6.3197 40.3041C5.27616 41.3476 4.68917 42.7625 4.6875 44.2383V67.0898C4.68917 68.5656 5.27616 69.9805 6.3197 71.024C7.36325 72.0676 8.77812 72.6546 10.2539 72.6562ZM26.9531 40.8278V37.5H38.6719V53.9062H28.125V44.2383C28.1259 43.0025 27.7134 41.802 26.9531 40.8278ZM65.8819 70.3125H50.3906V67.9688H66.4679L65.8819 70.3125ZM69.1406 65.625H50.3906V63.2812H69.1406V65.625ZM62.1094 51.5625C63.3526 51.5625 64.5449 52.0564 65.4239 52.9354C66.303 53.8145 66.7969 55.0068 66.7969 56.25C66.7969 57.4932 66.303 58.6855 65.4239 59.5646C64.5449 60.4436 63.3526 60.9375 62.1094 60.9375H50.3906V51.5625H62.1094ZM33.9844 16.4062H41.0156V18.75H33.9844V16.4062ZM29.2969 7.03125V6.15234C29.2969 6.07464 29.3277 6.00013 29.3827 5.94518C29.4376 5.89024 29.5121 5.85938 29.5898 5.85938H32.8125V7.03125H29.2969ZM35.1562 5.85938H39.8438V14.0625H35.1562V5.85938ZM32.666 21.0938H42.334C43.8486 21.0955 45.3007 21.6979 46.3717 22.7689C47.4427 23.8399 48.0452 25.292 48.0469 26.8066V70.3125H27.0929C27.765 69.3724 28.1259 68.2455 28.125 67.0898V56.25H39.8438C40.1546 56.25 40.4526 56.1265 40.6724 55.9068C40.8922 55.687 41.0156 55.3889 41.0156 55.0781V36.3281C41.0156 36.0173 40.8922 35.7193 40.6724 35.4995C40.4526 35.2797 40.1546 35.1562 39.8438 35.1562H26.9531V26.8066C26.9548 25.292 27.5573 23.8399 28.6283 22.7689C29.6993 21.6979 31.1514 21.0955 32.666 21.0938ZM12.8906 31.6406H19.9219V33.9844H12.8906V31.6406ZM10.2539 41.0156C11.2637 41.0145 12.2317 40.6129 12.9457 39.8989C13.6598 39.1849 14.0614 38.2168 14.0625 37.207V36.3281H18.75V37.207C18.7511 38.2168 19.1527 39.1849 19.8668 39.8989C20.5808 40.6129 21.5488 41.0145 22.5586 41.0156C23.413 41.0166 24.2321 41.3564 24.8363 41.9606C25.4404 42.5647 25.7803 43.3839 25.7812 44.2383V67.0898C25.7803 67.9442 25.4404 68.7634 24.8363 69.3675C24.2321 69.9717 23.413 70.3115 22.5586 70.3125H10.2539C9.3995 70.3115 8.58037 69.9717 7.97621 69.3675C7.37206 68.7634 7.03222 67.9442 7.03125 67.0898V64.4531H17.5781C17.8889 64.4531 18.187 64.3297 18.4068 64.1099C18.6265 63.8901 18.75 63.5921 18.75 63.2812V46.875C18.75 46.5642 18.6265 46.2661 18.4068 46.0464C18.187 45.8266 17.8889 45.7031 17.5781 45.7031H7.03125V44.2383C7.03222 43.3839 7.37206 42.5647 7.97621 41.9606C8.58037 41.3564 9.3995 41.0166 10.2539 41.0156ZM7.03125 48.0469H16.4062V62.1094H7.03125V48.0469Z" fill="white"/>
<path d="M44.5312 57.4219C44.8421 57.4219 45.1401 57.2984 45.3599 57.0786C45.5797 56.8589 45.7031 56.5608 45.7031 56.25V55.0781C45.7031 54.7673 45.5797 54.4693 45.3599 54.2495C45.1401 54.0297 44.8421 53.9062 44.5312 53.9062C44.2204 53.9062 43.9224 54.0297 43.7026 54.2495C43.4828 54.4693 43.3594 54.7673 43.3594 55.0781V56.25C43.3594 56.5608 43.4828 56.8589 43.7026 57.0786C43.9224 57.2984 44.2204 57.4219 44.5312 57.4219Z" fill="white"/>
<path d="M44.5312 65.625C44.8421 65.625 45.1401 65.5015 45.3599 65.2818C45.5797 65.062 45.7031 64.7639 45.7031 64.4531V60.9375C45.7031 60.6267 45.5797 60.3286 45.3599 60.1089C45.1401 59.8891 44.8421 59.7656 44.5312 59.7656C44.2204 59.7656 43.9224 59.8891 43.7026 60.1089C43.4828 60.3286 43.3594 60.6267 43.3594 60.9375V64.4531C43.3594 64.7639 43.4828 65.062 43.7026 65.2818C43.9224 65.5015 44.2204 65.625 44.5312 65.625Z" fill="white"/>
</svg>
