<svg width="73" height="73" viewBox="0 0 73 73" fill="none" xmlns="http://www.w3.org/2000/svg">
<g clip-path="url(#clip0)">
<path d="M72.1807 40.8481C71.6054 40.2299 70.7906 39.8751 69.9457 39.8751H64.027V39.2953C64.027 33.3844 59.2184 28.5758 53.3075 28.5758C47.3972 28.5758 42.5885 33.3844 42.5885 39.2953V39.8751H36.6699C35.825 39.8751 35.0102 40.2299 34.4348 40.8481C33.859 41.4663 33.5632 42.3039 33.6234 43.1466L34.7946 59.5949H2.13867V22.0467C2.13867 21.1684 2.85323 20.4544 3.73154 20.4544H9.89915V24.1174C9.89915 25.0152 10.6293 25.7454 11.5271 25.7454H14.5413C15.4391 25.7454 16.1698 25.0152 16.1698 24.1174V20.4544H33.2664V24.1174C33.2664 25.0152 33.9965 25.7454 34.8943 25.7454H37.9091C38.8069 25.7454 39.537 25.0152 39.537 24.1174V20.4544H45.7052C46.5829 20.4544 47.2981 21.1684 47.2981 22.0467V26.558C47.2981 27.1483 47.7765 27.6273 48.3674 27.6273C48.9578 27.6273 49.4367 27.1483 49.4367 26.558V22.0467C49.4367 19.9893 47.7626 18.3157 45.7052 18.3157H39.537V8.19936C39.537 4.22833 36.3067 0.998047 32.3357 0.998047H17.0999C13.1294 0.998047 9.89915 4.22833 9.89915 8.19936V13.3717C9.89915 13.9626 10.3776 14.441 10.9685 14.441C11.5589 14.441 12.0378 13.9626 12.0378 13.3717V8.19936C12.0378 5.40794 14.3085 3.13672 17.0999 3.13672H32.3357C35.1271 3.13672 37.3984 5.40794 37.3984 8.19936V23.6067H35.405V19.4068C35.405 19.3995 35.405 19.3923 35.405 19.3845C35.405 19.3773 35.405 19.37 35.405 19.3628V9.08044C35.405 6.90223 33.6323 5.13003 31.4541 5.13003H17.9816C15.8033 5.13003 14.0306 6.90223 14.0306 9.08044V23.6067H12.0378V19.4068C12.0378 19.3995 12.0378 19.3923 12.0378 19.3845C12.0378 19.3773 12.0378 19.37 12.0378 19.3628V17.6491C12.0378 17.0587 11.5589 16.5797 10.9685 16.5797C10.3776 16.5797 9.89915 17.0587 9.89915 17.6491V18.3152H3.73154C1.67362 18.3152 0 19.9893 0 22.0467V64.3595C0 66.4169 1.67362 68.0911 3.73154 68.0911H35.3995L35.4541 68.858C35.5777 70.5906 37.0347 71.9474 38.7712 71.9474H67.8444C69.5809 71.9474 71.0379 70.5906 71.1615 68.858L71.7541 60.5333C71.7964 59.9446 71.3526 59.4328 70.7633 59.391C70.178 59.3487 69.6628 59.7926 69.621 60.3813L69.0284 68.7065C68.9839 69.3247 68.4642 69.8087 67.8444 69.8087H38.7712C38.1519 69.8087 37.6317 69.3247 37.5877 68.7065L37.4641 66.9694C37.4635 66.9532 37.4618 66.9371 37.4607 66.9209L37.0129 60.6341C37.0118 60.6029 37.0096 60.5717 37.0063 60.5411L35.757 42.994C35.7387 42.7378 35.825 42.4933 36.0004 42.305C36.1753 42.1174 36.4131 42.0138 36.6704 42.0138H42.5885V43.8043C41.0931 44.2627 40.0026 45.6567 40.0026 47.3003C40.0026 49.3164 41.6423 50.9561 43.6579 50.9561C45.674 50.9561 47.3137 49.3164 47.3137 47.3003C47.3137 45.6567 46.2232 44.2627 44.7272 43.8043V42.0138H61.8884V43.8043C60.393 44.2627 59.3025 45.6567 59.3025 47.3003C59.3025 49.3164 60.9421 50.9561 62.9577 50.9561C64.9739 50.9561 66.6135 49.3164 66.6135 47.3003C66.6135 45.6567 65.523 44.2627 64.027 43.8043V42.0138H69.9457C70.203 42.0138 70.4408 42.1174 70.6157 42.305C70.7912 42.4933 70.8775 42.7378 70.8591 42.9945L69.924 56.1256C69.8822 56.7149 70.3255 57.2267 70.9148 57.2685C71.5024 57.3125 72.0153 56.8669 72.0576 56.2777L72.9922 43.1466C73.0524 42.3039 72.7566 41.4657 72.1807 40.8481ZM17.9816 7.2687H31.4541C32.4532 7.2687 33.2664 8.08128 33.2664 9.08044V18.3157H16.1693V9.08044C16.1693 8.08128 16.9824 7.2687 17.9816 7.2687ZM3.73154 65.9524C2.85323 65.9524 2.13867 65.2378 2.13867 64.3595V61.7335H34.9472L35.2474 65.9524H3.73154ZM45.175 47.3003C45.175 48.1368 44.4944 48.8174 43.6579 48.8174C42.8213 48.8174 42.1413 48.1368 42.1413 47.3003C42.1413 46.8169 42.3685 46.3852 42.7222 46.1073C42.9043 46.4365 43.2552 46.6587 43.6579 46.6587C44.0605 46.6587 44.4114 46.4365 44.5935 46.1073C44.9472 46.3852 45.175 46.8169 45.175 47.3003ZM64.4748 47.3003C64.4748 48.1368 63.7942 48.8174 62.9577 48.8174C62.1212 48.8174 61.4406 48.1368 61.4406 47.3003C61.4406 46.8169 61.6684 46.3852 62.022 46.1073C62.2042 46.4365 62.555 46.6587 62.9577 46.6587C63.3604 46.6587 63.7113 46.4365 63.8934 46.1073C64.247 46.3852 64.4748 46.8169 64.4748 47.3003ZM49.4362 39.8751V36.0155C49.4362 35.4245 48.9578 34.9461 48.3668 34.9461C47.7759 34.9461 47.2975 35.4245 47.2975 36.0155V39.8751H44.7272V39.2953C44.7272 34.5641 48.5763 30.7144 53.3081 30.7144C58.0393 30.7144 61.8884 34.5641 61.8884 39.2953V39.8751H49.4362Z" fill="white"/>
</g>
<defs>
<clipPath id="clip0">
<rect width="73" height="73" fill="white"/>
</clipPath>
</defs>
</svg>
