<svg width="73" height="73" viewBox="0 0 73 73" fill="none" xmlns="http://www.w3.org/2000/svg">
<path d="M36.5 32.85C32.4745 32.85 29.2 36.1245 29.2 40.15C29.2 44.1755 32.4745 47.45 36.5 47.45C40.5255 47.45 43.8 44.1755 43.8 40.15C43.8 36.1245 40.5255 32.85 36.5 32.85ZM36.5 45.0166C33.8165 45.0166 31.6333 42.8339 31.6333 40.15C31.6333 37.466 33.8165 35.2833 36.5 35.2833C39.1835 35.2833 41.3667 37.466 41.3667 40.15C41.3667 42.8339 39.1835 45.0166 36.5 45.0166Z" fill="white"/>
<path d="M36.5 0C16.3739 0 0 16.3739 0 36.5C0 56.6261 16.3739 73 36.5 73C56.6261 73 73 56.6261 73 36.5C73 16.3739 56.6261 0 36.5 0ZM36.5 70.5667C17.7153 70.5667 2.43333 55.2847 2.43333 36.5C2.43333 17.7153 17.7153 2.43333 36.5 2.43333C55.2847 2.43333 70.5667 17.7153 70.5667 36.5C70.5667 55.2847 55.2847 70.5667 36.5 70.5667Z" fill="white"/>
<path d="M36.5 7.30005C20.3994 7.30005 7.29999 20.3994 7.29999 36.5C7.29999 52.6007 20.3994 65.7001 36.5 65.7001C52.6006 65.7001 65.7 52.6007 65.7 36.5C65.7 20.3994 52.6006 7.30005 36.5 7.30005ZM36.5 9.73338C47.8735 9.73338 57.6063 16.8669 61.4763 26.8922L52.3608 29.9307C49.2341 30.9727 45.8539 30.8099 42.84 29.4697C38.811 27.678 34.1885 27.678 30.1607 29.4697L29.6997 29.6741C26.9598 30.8932 23.8535 31.1391 20.9531 30.3656L11.2043 27.7659C14.8342 17.2837 24.7988 9.73338 36.5 9.73338ZM9.73332 36.5C9.73332 36.2522 9.74534 36.0071 9.75218 35.7609L10.5972 36.0426C22.5929 40.041 31.0762 50.5214 32.5852 62.9776C19.6755 61.0772 9.73332 49.9293 9.73332 36.5ZM36.5 63.2667C36.0168 63.2667 35.537 63.2523 35.0601 63.2269C33.6223 49.5999 24.4334 38.0899 11.367 33.7352L9.9365 33.2584C10.0668 32.1847 10.2586 31.13 10.5126 30.099L20.3256 32.7159C21.6408 33.0665 22.9912 33.2411 24.3403 33.2411C26.5147 33.2411 28.6837 32.7895 30.6874 31.8985L31.1483 31.6941C34.5488 30.1804 38.4495 30.1816 41.8547 31.6953C45.4221 33.2791 49.4262 33.4739 53.1303 32.2382L62.246 29.1996C62.6195 30.5147 62.8947 31.87 63.0632 33.2584L61.6327 33.7352C48.5661 38.0899 39.3774 49.5999 37.9396 63.2269C37.463 63.2523 36.9832 63.2667 36.5 63.2667ZM40.4149 62.9776C41.9239 50.5214 50.4071 40.041 62.403 36.0426L63.248 35.7609C63.2546 36.0071 63.2668 36.2522 63.2668 36.5C63.2667 49.9293 53.3245 61.0772 40.4149 62.9776Z" fill="white"/>
</svg>
