<svg width="73" height="73" viewBox="0 0 73 73" fill="none" xmlns="http://www.w3.org/2000/svg">
<g clip-path="url(#clip0)">
<path d="M36.5 57.0312H28.5156C28.2131 57.0312 27.923 57.1514 27.7091 57.3653C27.4952 57.5792 27.375 57.8694 27.375 58.1719C27.375 58.4744 27.4952 58.7645 27.7091 58.9784C27.923 59.1923 28.2131 59.3125 28.5156 59.3125H36.5C36.8025 59.3125 37.0926 59.1923 37.3065 58.9784C37.5204 58.7645 37.6406 58.4744 37.6406 58.1719C37.6406 57.8694 37.5204 57.5792 37.3065 57.3653C37.0926 57.1514 36.8025 57.0312 36.5 57.0312Z" fill="white"/>
<path d="M17.5395 33.0569C18.3688 32.3345 19.4315 31.9369 20.5313 31.9375H36.5C37.5112 31.9388 38.4934 32.2754 39.2929 32.8946C40.0924 33.5138 40.6639 34.3806 40.9181 35.3594H27.375C27.0725 35.3594 26.7824 35.4795 26.5685 35.6935C26.3545 35.9074 26.2344 36.1975 26.2344 36.5C26.2344 36.8025 26.3545 37.0926 26.5685 37.3065C26.7824 37.5205 27.0725 37.6406 27.375 37.6406H40.9188C40.6649 38.6196 40.0933 39.4868 39.2936 40.106C38.494 40.7253 37.5114 41.0617 36.5 41.0625H33.0781C32.7756 41.0625 32.4855 41.1827 32.2716 41.3966C32.0577 41.6105 31.9375 41.9006 31.9375 42.2031C31.9375 42.5056 32.0577 42.7958 32.2716 43.0097C32.4855 43.2236 32.7756 43.3438 33.0781 43.3438H38.7813C40.4251 43.3495 42.0125 43.9443 43.2553 45.0203C44.4981 46.0963 45.3141 47.5822 45.5551 49.2083C45.5763 49.3566 45.6265 49.4992 45.7029 49.6281C45.7792 49.757 45.8802 49.8696 46 49.9595C46.1199 50.0493 46.2562 50.1147 46.4013 50.1519C46.5465 50.1891 46.6975 50.1973 46.8458 50.1761C46.9941 50.1549 47.1367 50.1047 47.2656 50.0284C47.3945 49.952 47.5071 49.8511 47.597 49.7312C47.6868 49.6114 47.7522 49.475 47.7894 49.3299C47.8266 49.1848 47.8348 49.0338 47.8136 48.8855C47.5556 47.1418 46.8005 45.5093 45.6387 44.1837C44.477 42.858 42.9578 41.8952 41.263 41.4107C41.2881 41.3864 41.314 41.3633 41.3388 41.3394C42.1722 40.506 42.7763 39.4715 43.0925 38.3361C43.4087 37.2007 43.4263 36.0028 43.1436 34.8586C42.8609 33.7144 42.2875 32.6626 41.479 31.8051C40.6704 30.9475 39.6541 30.3133 38.5285 29.9639C39.1581 29.2381 39.5939 28.3649 39.7953 27.4254C39.9967 26.4859 39.9572 25.5107 39.6805 24.5906C39.4038 23.6705 38.8988 22.8353 38.2126 22.1627C37.5263 21.4902 36.6811 21.0022 35.7556 20.7441C36.1149 20.1954 36.3515 19.5755 36.4492 18.9269C36.5469 18.2783 36.5034 17.6162 36.3217 16.986C36.1399 16.3557 35.8243 15.7721 35.3963 15.2751C34.9682 14.7781 34.4379 14.3793 33.8416 14.1061C34.1094 13.5846 34.2386 13.0031 34.2168 12.4173C34.195 11.8315 34.023 11.2611 33.7173 10.761C33.4116 10.2608 32.9824 9.84768 32.471 9.56119C31.9596 9.27469 31.3831 9.12449 30.7969 9.125H26.2344C25.6483 9.12455 25.0719 9.27477 24.5606 9.56122C24.0493 9.84768 23.6202 10.2608 23.3144 10.7608C23.0087 11.2609 22.8367 11.8311 22.8148 12.4168C22.793 13.0025 22.922 13.5839 23.1896 14.1054C22.5933 14.3786 22.063 14.7774 21.635 15.2744C21.207 15.7714 20.8913 16.355 20.7096 16.9853C20.5279 17.6155 20.4844 18.2776 20.5821 18.9262C20.6798 19.5748 20.9163 20.1946 21.2757 20.7434C20.35 21.0016 19.5047 21.4897 18.8184 22.1624C18.1321 22.8351 17.6271 23.6705 17.3505 24.5908C17.0739 25.5111 17.0346 26.4865 17.2363 27.426C17.438 28.3656 17.8741 29.2389 18.5041 29.9646C17.5961 30.2456 16.7569 30.7132 16.04 31.3372C15.812 31.536 15.6723 31.8173 15.6516 32.1191C15.6414 32.2685 15.6606 32.4185 15.7084 32.5605C15.7561 32.7025 15.8313 32.8337 15.9298 32.9466C16.0282 33.0595 16.1479 33.1519 16.282 33.2186C16.4162 33.2852 16.5621 33.3248 16.7116 33.335C17.0134 33.3557 17.3111 33.2557 17.5391 33.0569H17.5395ZM26.2344 11.4063H30.7969C31.0994 11.4063 31.3895 11.5264 31.6034 11.7403C31.8173 11.9542 31.9375 12.2444 31.9375 12.5469C31.9375 12.8494 31.8173 13.1395 31.6034 13.3534C31.3895 13.5673 31.0994 13.6875 30.7969 13.6875H26.2344C25.9319 13.6875 25.6417 13.5673 25.4278 13.3534C25.2139 13.1395 25.0938 12.8494 25.0938 12.5469C25.0938 12.2444 25.2139 11.9542 25.4278 11.7403C25.6417 11.5264 25.9319 11.4063 26.2344 11.4063ZM25.0938 15.9688H31.9375C32.5425 15.9688 33.1228 16.2091 33.5506 16.6369C33.9784 17.0647 34.2188 17.645 34.2188 18.25C34.2188 18.855 33.9784 19.4353 33.5506 19.8631C33.1228 20.2909 32.5425 20.5312 31.9375 20.5312H25.0938C24.4887 20.5312 23.9085 20.2909 23.4807 19.8631C23.0528 19.4353 22.8125 18.855 22.8125 18.25C22.8125 17.645 23.0528 17.0647 23.4807 16.6369C23.9085 16.2091 24.4887 15.9688 25.0938 15.9688ZM22.8125 22.8125H34.2188C34.9261 22.8134 35.6158 23.0332 36.1934 23.4416C36.7709 23.85 37.2079 24.4271 37.4444 25.0937H26.2344C25.9319 25.0937 25.6417 25.2139 25.4278 25.4278C25.2139 25.6417 25.0938 25.9319 25.0938 26.2344C25.0938 26.5369 25.2139 26.827 25.4278 27.0409C25.6417 27.2548 25.9319 27.375 26.2344 27.375H37.4444C37.2079 28.0416 36.7709 28.6187 36.1934 29.0272C35.6158 29.4356 34.9261 29.6553 34.2188 29.6562H22.8125C21.905 29.6562 21.0346 29.2957 20.3929 28.654C19.7511 28.0123 19.3906 27.1419 19.3906 26.2344C19.3906 25.3268 19.7511 24.4565 20.3929 23.8147C21.0346 23.173 21.905 22.8125 22.8125 22.8125Z" fill="white"/>
<path d="M29.6265 44.4768C29.6913 44.1987 29.6495 43.9064 29.5093 43.6577C29.3691 43.4089 29.1407 43.2218 28.8692 43.1333C28.6766 43.0704 24.4778 41.7265 20.6668 42.3873C19.2565 38.743 15.7436 35.7781 15.5583 35.6237C15.3533 35.4529 15.0949 35.3594 14.8281 35.3594C14.5613 35.3594 14.303 35.4529 14.098 35.6237C13.9296 35.7638 10.3 38.8221 8.93067 42.5306C5.13609 41.8941 1.00418 43.215 0.78689 43.2863C0.515439 43.3748 0.287068 43.5619 0.146893 43.8107C0.0067186 44.0594 -0.035064 44.3517 0.0297999 44.6298C0.091964 44.8964 1.53471 50.9149 5.3233 53.5046C3.36256 57.313 4.16428 62.6581 4.20363 62.9106C4.24558 63.1792 4.38212 63.4241 4.58864 63.601C4.79516 63.7778 5.05808 63.8751 5.33 63.8753C5.35452 63.8753 5.37933 63.8753 5.404 63.8728C5.67033 63.8557 11.5063 63.4451 14.7658 60.4205C18.0249 63.4447 23.8612 63.8557 24.1275 63.8728C24.1523 63.8745 24.177 63.8753 24.2015 63.8753C24.4734 63.8751 24.7364 63.7778 24.9429 63.6009C25.1494 63.424 25.286 63.1791 25.3279 62.9104C25.3664 62.6628 26.1762 57.2643 24.181 53.4535C28.083 50.9232 29.5634 44.7471 29.6265 44.4768ZM6.33903 61.4704C6.18362 59.3363 6.3011 55.6618 7.94902 53.6199C9.17975 52.0952 10.9829 50.6152 12.9782 51.4315C12.4153 52.1805 12.0637 53.0667 11.9597 53.9979C11.7961 55.489 12.2522 57.0518 13.3125 58.6553C11.4258 60.5067 8.06208 61.2185 6.33903 61.4704ZM10.9259 49.0022C9.42014 49.2621 7.98138 50.1501 6.64072 51.6408C4.40224 50.1426 3.10036 46.8537 2.55529 45.1615C4.65119 44.6624 8.32485 44.1787 10.6242 45.4657C12.0834 46.2825 13.6375 47.5515 13.6849 49.2623C12.8051 48.9304 11.8523 48.8406 10.9259 49.0022ZM11.7386 43.4752C11.539 43.3635 11.3346 43.2616 11.1255 43.1696C11.9659 41.014 13.8078 39.0323 14.8325 38.041C16.4259 39.5764 18.9657 42.5861 18.9657 45.2447C18.9657 48.025 17.9232 49.6859 15.9357 50.1138C15.9271 50.1052 15.919 50.0962 15.9102 50.0881C16.1608 48.33 15.6862 45.685 11.7383 43.4752H11.7386ZM23.1852 61.4761C21.0538 61.1643 17.4601 60.2525 15.8086 58.2062C14.6478 56.768 14.1011 55.3988 14.2276 54.2465C14.2928 53.6752 14.5214 53.1349 14.8859 52.6902C15.6641 53.816 16.8424 54.6026 18.1806 54.8896C18.5776 54.973 18.9823 55.0146 19.3881 55.0137C20.3305 54.9992 21.2625 54.814 22.1388 54.467C23.3355 56.6903 23.3037 59.8392 23.1849 61.4761H23.1852ZM22.6672 51.7042C21.0257 52.6231 18.9124 53.3095 17.379 52.0531C18.1341 51.7614 18.817 51.3096 19.3808 50.7287C20.6197 49.4485 21.2486 47.6035 21.2486 45.2447C21.2486 45.0309 21.2343 44.8191 21.2141 44.6073C23.3717 44.2698 25.76 44.6971 27.0998 45.0156C26.5244 46.7967 25.1174 50.3326 22.6669 51.7042H22.6672Z" fill="white"/>
<path d="M55.8906 27.375C56.1931 27.375 56.4833 27.2548 56.6972 27.0409C56.9111 26.827 57.0312 26.5369 57.0312 26.2344V18.25C57.0312 17.9475 56.9111 17.6574 56.6972 17.4435C56.4833 17.2295 56.1931 17.1094 55.8906 17.1094C55.5881 17.1094 55.298 17.2295 55.0841 17.4435C54.8702 17.6574 54.75 17.9475 54.75 18.25V26.2344C54.75 26.5369 54.8702 26.827 55.0841 27.0409C55.298 27.2548 55.5881 27.375 55.8906 27.375Z" fill="white"/>
<path d="M55.8906 35.3594C56.1931 35.3594 56.4833 35.2392 56.6972 35.0253C56.9111 34.8114 57.0312 34.5213 57.0312 34.2188V30.7969C57.0312 30.4944 56.9111 30.2042 56.6972 29.9903C56.4833 29.7764 56.1931 29.6562 55.8906 29.6562C55.5881 29.6562 55.298 29.7764 55.0841 29.9903C54.8702 30.2042 54.75 30.4944 54.75 30.7969V34.2188C54.75 34.5213 54.8702 34.8114 55.0841 35.0253C55.298 35.2392 55.5881 35.3594 55.8906 35.3594Z" fill="white"/>
<path d="M51.3281 37.6406C51.6306 37.6406 51.9208 37.5205 52.1347 37.3065C52.3486 37.0926 52.4688 36.8025 52.4688 36.5V27.375C52.4688 27.0725 52.3486 26.7824 52.1347 26.5685C51.9208 26.3545 51.6306 26.2344 51.3281 26.2344C51.0256 26.2344 50.7355 26.3545 50.5216 26.5685C50.3077 26.7824 50.1875 27.0725 50.1875 27.375V36.5C50.1875 36.8025 50.3077 37.0926 50.5216 37.3065C50.7355 37.5205 51.0256 37.6406 51.3281 37.6406Z" fill="white"/>
<path d="M60.4531 37.6406C60.7556 37.6406 61.0458 37.5205 61.2597 37.3065C61.4736 37.0926 61.5938 36.8025 61.5938 36.5V27.375C61.5938 27.0725 61.4736 26.7824 61.2597 26.5685C61.0458 26.3545 60.7556 26.2344 60.4531 26.2344C60.1506 26.2344 59.8605 26.3545 59.6466 26.5685C59.4327 26.7824 59.3125 27.0725 59.3125 27.375V36.5C59.3125 36.8025 59.4327 37.0926 59.6466 37.3065C59.8605 37.5205 60.1506 37.6406 60.4531 37.6406Z" fill="white"/>
<path d="M51.3281 23.9531C51.9581 23.9531 52.4688 23.4424 52.4688 22.8125C52.4688 22.1826 51.9581 21.6719 51.3281 21.6719C50.6982 21.6719 50.1875 22.1826 50.1875 22.8125C50.1875 23.4424 50.6982 23.9531 51.3281 23.9531Z" fill="white"/>
<path d="M22.8125 37.6406C23.4424 37.6406 23.9531 37.1299 23.9531 36.5C23.9531 35.8701 23.4424 35.3594 22.8125 35.3594C22.1826 35.3594 21.6719 35.8701 21.6719 36.5C21.6719 37.1299 22.1826 37.6406 22.8125 37.6406Z" fill="white"/>
<path d="M60.4531 23.9531C61.0831 23.9531 61.5938 23.4424 61.5938 22.8125C61.5938 22.1826 61.0831 21.6719 60.4531 21.6719C59.8232 21.6719 59.3125 22.1826 59.3125 22.8125C59.3125 23.4424 59.8232 23.9531 60.4531 23.9531Z" fill="white"/>
<path d="M60.4531 19.3906C61.0831 19.3906 61.5938 18.8799 61.5938 18.25C61.5938 17.6201 61.0831 17.1094 60.4531 17.1094C59.8232 17.1094 59.3125 17.6201 59.3125 18.25C59.3125 18.8799 59.8232 19.3906 60.4531 19.3906Z" fill="white"/>
<path d="M51.3281 19.3906C51.9581 19.3906 52.4688 18.8799 52.4688 18.25C52.4688 17.6201 51.9581 17.1094 51.3281 17.1094C50.6982 17.1094 50.1875 17.6201 50.1875 18.25C50.1875 18.8799 50.6982 19.3906 51.3281 19.3906Z" fill="white"/>
<path d="M55.8906 14.8281C56.5206 14.8281 57.0312 14.3174 57.0312 13.6875C57.0312 13.0576 56.5206 12.5469 55.8906 12.5469C55.2607 12.5469 54.75 13.0576 54.75 13.6875C54.75 14.3174 55.2607 14.8281 55.8906 14.8281Z" fill="white"/>
<path d="M71.8594 52.4687H57.0312V50.0481C58.9968 49.5585 60.4531 47.834 60.4531 45.7879C60.4531 43.8012 57.6905 39.4432 56.8439 38.1547C56.7401 37.9967 56.5986 37.8669 56.4322 37.7772C56.2658 37.6874 56.0797 37.6404 55.8906 37.6404C55.7015 37.6404 55.5154 37.6874 55.349 37.7772C55.1826 37.8669 55.0412 37.9967 54.9373 38.1547C54.0907 39.4432 51.3281 43.8008 51.3281 45.7879C51.3281 47.834 52.7844 49.5585 54.75 50.0481V52.4687H39.9219C39.6194 52.4687 39.3292 52.5888 39.1153 52.8027C38.9014 53.0167 38.7812 53.3068 38.7812 53.6093C38.7801 55.2513 39.1753 56.8693 39.9334 58.3258C39.9733 58.6196 40.1263 58.8862 40.3597 59.069C41.2832 60.5394 42.5644 61.7515 44.0837 62.592C45.603 63.4324 47.3106 63.8739 49.0469 63.8749H62.7344C64.4706 63.8739 66.1783 63.4324 67.6975 62.592C69.2168 61.7515 70.4981 60.5394 71.4215 59.069C71.655 58.8862 71.8079 58.6196 71.8478 58.3258C72.6059 56.8693 73.0012 55.2513 73 53.6093C73 53.3068 72.8798 53.0167 72.6659 52.8027C72.452 52.5888 72.1619 52.4687 71.8594 52.4687ZM53.6094 45.7879C53.6094 45.0719 54.6726 42.9546 55.8906 40.926C57.1087 42.9536 58.1719 45.0707 58.1719 45.7879C58.1719 46.9559 57.1484 47.9062 55.8906 47.9062C54.6328 47.9062 53.6094 46.9559 53.6094 45.7879ZM69.9458 57.0312H51.3281C51.0256 57.0312 50.7355 57.1513 50.5216 57.3652C50.3077 57.5791 50.1875 57.8693 50.1875 58.1718C50.1875 58.4743 50.3077 58.7644 50.5216 58.9783C50.7355 59.1922 51.0256 59.3124 51.3281 59.3124H68.3146C66.8258 60.7754 64.8217 61.5947 62.7344 61.5937H49.0469C46.9596 61.5947 44.9554 60.7754 43.4666 59.3124H46.7656C47.0681 59.3124 47.3583 59.1922 47.5722 58.9783C47.7861 58.7644 47.9062 58.4743 47.9062 58.1718C47.9062 57.8693 47.7861 57.5791 47.5722 57.3652C47.3583 57.1513 47.0681 57.0312 46.7656 57.0312H41.8354C41.491 56.31 41.2578 55.5409 41.1436 54.7499H70.6376C70.5234 55.5409 70.2902 56.31 69.9458 57.0312Z" fill="white"/>
</g>
<defs>
<clipPath id="clip0">
<rect width="73" height="73" fill="white"/>
</clipPath>
</defs>
</svg>
