<svg width="69" height="69" viewBox="0 0 69 69" fill="none" xmlns="http://www.w3.org/2000/svg">
<path d="M47.0478 43.2714C46.8326 42.6741 46.1739 42.3644 45.5767 42.5797C44.9794 42.7949 44.6697 43.4536 44.885 44.0508C44.8903 44.0655 44.8959 44.08 44.9018 44.0945C45.9502 46.8305 46.026 48.9226 45.1087 49.8423C43.9959 50.9528 41.2244 50.6056 37.6929 48.9157C32.9651 46.4609 28.6677 43.2539 24.9685 39.4204C15.9641 30.4148 12.2488 21.5782 14.5467 19.2803C15.28 18.7012 16.2331 18.4788 17.147 18.6733C17.7801 18.7199 18.3312 18.2442 18.3777 17.6111C18.4227 16.9991 17.9791 16.4597 17.37 16.3857C15.7717 16.1029 14.1319 16.5689 12.9212 17.6502C8.70928 21.861 15.1479 32.845 23.3431 41.0413C27.2258 45.0593 31.7375 48.4176 36.7009 50.9838C37.5997 51.4142 38.5259 51.7847 39.4736 52.0931L31.306 55.19C20.3997 51.0436 12.5484 41.3747 10.729 29.8493C10.6306 29.222 10.0423 28.7933 9.41511 28.8917C8.78788 28.9901 8.3591 29.5784 8.45753 30.2056C8.63801 31.3552 8.87942 32.5047 9.17485 33.629C11.822 43.6587 18.7942 51.9908 28.1999 56.3648L14.7571 61.4516C14.6954 61.3487 14.6178 61.2565 14.5272 61.178C11.1107 58.435 8.96707 54.4123 8.59548 50.0469L8.06208 43.5876C8.02013 42.9618 7.47869 42.4885 6.85275 42.5304C6.84083 42.5313 6.8289 42.5321 6.81712 42.5334C6.18429 42.5837 5.71197 43.1377 5.76226 43.7705C5.7624 43.7731 5.76269 43.7758 5.76298 43.7784L6.30557 50.2354C6.70964 54.9016 8.88631 59.2354 12.3878 62.346L2.79828 65.9762L4.52261 58.8996C4.67306 58.2824 4.29486 57.6602 3.67769 57.5098C3.06053 57.3593 2.43833 57.7376 2.28788 58.3547L0.0451073 67.5511C-0.106059 68.1677 0.271282 68.7902 0.888016 68.9412C1.11419 68.9967 1.35172 68.982 1.56941 68.8996L44.1028 52.8058C44.1705 52.7728 44.2345 52.7327 44.2937 52.6863C45.2142 52.5449 46.0676 52.1193 46.7342 51.4689C47.8732 50.3297 48.8538 47.9812 47.0478 43.2714Z" fill="white"/>
<path d="M57.8962 40.3068C51.6819 37.9804 44.9652 37.3281 38.4193 38.4158L34.312 39.1055C33.6885 39.2253 33.2802 39.8278 33.4001 40.4513C33.5159 41.0537 34.0842 41.4591 34.6913 41.3724L38.7975 40.6884C44.945 39.6663 51.2534 40.2793 57.0892 42.4656C57.2187 42.5115 57.3553 42.5345 57.4927 42.5335C58.1275 42.5345 58.6431 42.0208 58.6441 41.3858C58.645 40.9051 58.3467 40.4747 57.8962 40.3068Z" fill="white"/>
<path d="M61.9829 22.4968C61.7098 21.9234 61.0238 21.68 60.4505 21.953L36.3099 33.4486C35.7367 33.7214 35.4932 34.4073 35.766 34.9806C35.766 34.9808 35.7662 34.9809 35.7662 34.9809C36.039 35.5541 36.7249 35.7977 37.2982 35.5248C37.2984 35.5248 37.2984 35.5246 37.2985 35.5246L61.4391 24.0291C62.0125 23.7561 62.2559 23.0701 61.9829 22.4968Z" fill="white"/>
<path d="M27.9308 7.80202C27.8044 7.17982 27.1975 6.77791 26.5753 6.90436C25.9531 7.03081 25.5512 7.63763 25.6777 8.25982C25.6804 8.27362 25.6836 8.28727 25.6869 8.30092C27.1419 14.8015 26.5423 21.5936 23.9706 27.7387L22.2991 31.7495C22.0576 32.3339 22.3333 33.0036 22.9165 33.2485C23.0561 33.3073 23.2063 33.3373 23.3579 33.337C23.8219 33.337 24.2403 33.0583 24.4189 32.63L26.0915 28.6239C28.8469 22.0414 29.4896 14.7656 27.9308 7.80202Z" fill="white"/>
<path d="M63.2405 41.3839C61.3358 41.3839 59.7918 42.9279 59.7918 44.8326C59.7918 46.7372 61.3358 48.2812 63.2405 48.2812C65.1451 48.2812 66.6891 46.7372 66.6891 44.8326C66.6891 42.9279 65.1451 41.3839 63.2405 41.3839ZM63.2405 45.9821C62.6056 45.9821 62.0909 45.4674 62.0909 44.8326C62.0909 44.1977 62.6056 43.683 63.2405 43.683C63.8753 43.683 64.39 44.1977 64.39 44.8326C64.39 45.4674 63.8753 45.9821 63.2405 45.9821Z" fill="white"/>
<path d="M35.6512 9.19641C33.7465 9.19641 32.2025 10.7404 32.2025 12.6451C32.2025 14.5497 33.7465 16.0937 35.6512 16.0937C37.5559 16.0937 39.0999 14.5497 39.0999 12.6451C39.0999 10.7404 37.5559 9.19641 35.6512 9.19641ZM35.6512 13.7946C35.0164 13.7946 34.5017 13.2799 34.5017 12.6451C34.5017 12.0102 35.0164 11.4955 35.6512 11.4955C36.286 11.4955 36.8008 12.0102 36.8008 12.6451C36.8008 13.2799 36.286 13.7946 35.6512 13.7946Z" fill="white"/>
<path d="M25.3052 4.59821C26.575 4.59821 27.6043 3.56886 27.6043 2.2991C27.6043 1.02934 26.575 0 25.3052 0C24.0355 0 23.0061 1.02934 23.0061 2.2991C23.0061 3.56886 24.0355 4.59821 25.3052 4.59821Z" fill="white"/>
<path d="M57.4927 5.7478C56.8579 5.7478 56.3431 6.26251 56.3431 6.89736V8.04691C56.3431 8.68175 56.8579 9.19646 57.4927 9.19646C58.1275 9.19646 58.6423 8.68175 58.6423 8.04691V6.89736C58.6423 6.26251 58.1275 5.7478 57.4927 5.7478Z" fill="white"/>
<path d="M57.4927 0C56.8579 0 56.3431 0.514712 56.3431 1.14955V2.2991C56.3431 2.93394 56.8579 3.44866 57.4927 3.44866C58.1275 3.44866 58.6423 2.93394 58.6423 2.2991V1.14955C58.6423 0.514712 58.1275 0 57.4927 0Z" fill="white"/>
<path d="M60.9413 3.44861H59.7918C59.157 3.44861 58.6422 3.96332 58.6422 4.59816C58.6422 5.233 59.157 5.74771 59.7918 5.74771H60.9413C61.5762 5.74771 62.0909 5.233 62.0909 4.59816C62.0909 3.96332 61.5762 3.44861 60.9413 3.44861Z" fill="white"/>
<path d="M55.1936 3.44861H54.0441C53.4092 3.44861 52.8945 3.96332 52.8945 4.59816C52.8945 5.233 53.4092 5.74771 54.0441 5.74771H55.1936C55.8284 5.74771 56.3432 5.233 56.3432 4.59816C56.3432 3.96332 55.8284 3.44861 55.1936 3.44861Z" fill="white"/>
<path d="M49.4458 12.621H43.6739C43.0391 12.621 42.5244 13.1357 42.5244 13.7705V19.5424C42.5244 20.1773 43.0391 20.692 43.6739 20.692H49.4458C50.0807 20.692 50.5954 20.1773 50.5954 19.5424V13.7705C50.5954 13.1357 50.0807 12.621 49.4458 12.621ZM48.2963 18.3929H44.8235V14.9201H48.2963V18.3929Z" fill="white"/>
<path d="M41.0715 22.2203C40.6495 21.7699 39.9471 21.7331 39.4804 22.137L27.9848 32.483C27.5132 32.9077 27.4752 33.6344 27.8998 34.1061C28.3245 34.5777 29.0512 34.6158 29.5229 34.1912L41.0185 23.8452C41.4819 23.4111 41.5056 22.6838 41.0715 22.2203Z" fill="white"/>
<path d="M62.0909 26.4397C61.4561 26.4397 60.9413 26.9544 60.9413 27.5892V28.7388C60.9413 29.3736 61.4561 29.8884 62.0909 29.8884C62.7257 29.8884 63.2404 29.3736 63.2404 28.7388V27.5892C63.2404 26.9544 62.7257 26.4397 62.0909 26.4397Z" fill="white"/>
<path d="M66.9684 26.2419L66.1557 25.4292C65.6991 24.9881 64.9714 25.0007 64.5302 25.4574C64.1 25.9028 64.1 26.6091 64.5302 27.0547L65.343 27.8674C65.7996 28.3086 66.5273 28.2959 66.9684 27.8393C67.3988 27.3937 67.3988 26.6874 66.9684 26.2419Z" fill="white"/>
<path d="M67.8387 21.8414H66.6891C66.0543 21.8414 65.5396 22.3561 65.5396 22.991C65.5396 23.6258 66.0543 24.1405 66.6891 24.1405H67.8387C68.4735 24.1405 68.9882 23.6258 68.9882 22.991C68.9882 22.3561 68.4735 21.8414 67.8387 21.8414Z" fill="white"/>
<path d="M66.9403 18.1147C66.4948 17.6844 65.7886 17.6844 65.343 18.1147L64.5302 18.9274C64.0813 19.3764 64.0815 20.1042 64.5305 20.5531C64.7461 20.7685 65.0384 20.8897 65.343 20.8897C65.6479 20.8897 65.9402 20.7684 66.1557 20.5529L66.9685 19.7401C67.4096 19.2835 67.3969 18.5557 66.9403 18.1147Z" fill="white"/>
<path d="M62.0909 16.0938C61.4561 16.0938 60.9413 16.6085 60.9413 17.2433V18.3929C60.9413 19.0277 61.4561 19.5424 62.0909 19.5424C62.7257 19.5424 63.2404 19.0277 63.2404 18.3929V17.2433C63.2404 16.6085 62.7257 16.0938 62.0909 16.0938Z" fill="white"/>
<path d="M59.6516 18.9274L58.8388 18.1147C58.3822 17.6737 57.6545 17.6862 57.2134 18.1429C56.7831 18.5883 56.7831 19.2946 57.2134 19.7402L58.0261 20.5529C58.4827 20.994 59.2104 20.9814 59.6516 20.5247C60.0819 20.0791 60.0819 19.3729 59.6516 18.9274Z" fill="white"/>
<path d="M13.7535 4.97131C13.6182 4.55546 13.2585 4.25255 12.8258 4.18961L9.45191 3.69876L7.94715 0.642097C7.61177 0.0726372 6.87821 -0.117183 6.30875 0.218199C6.13373 0.321228 5.98788 0.467077 5.88485 0.642097L4.37319 3.69876L0.999255 4.18961C0.370881 4.28029 -0.0649433 4.86325 0.0257276 5.49163C0.0617948 5.7418 0.179337 5.973 0.360104 6.1496L2.8006 8.52917L2.22583 11.8893C2.11547 12.5145 2.53276 13.1109 3.15797 13.2212C3.40972 13.2656 3.66895 13.2249 3.89498 13.1055L6.91255 11.5146L9.93013 13.1009C10.4921 13.3964 11.1872 13.1804 11.4826 12.6184C11.6003 12.3947 11.6408 12.1385 11.5981 11.8893L11.0233 8.52917L13.465 6.1496C13.7775 5.84368 13.8893 5.38702 13.7535 4.97131ZM8.98175 7.3049C8.71103 7.56858 8.58731 7.94851 8.65067 8.3211L8.93576 9.98221L7.44709 9.19706C7.11243 9.02133 6.71267 9.02133 6.37801 9.19706L4.88359 9.98106L5.16868 8.31995C5.2332 7.94879 5.11163 7.56944 4.84336 7.3049L3.63518 6.12891L5.30318 5.88635C5.67764 5.83204 6.00139 5.59681 6.16879 5.25755L6.91255 3.74819L7.65746 5.25755C7.82472 5.59652 8.14789 5.83161 8.52192 5.88635L10.1888 6.12891L8.98175 7.3049Z" fill="white"/>
<path d="M65.105 57.6213H65.1004L64.6268 56.9109C61.9712 52.9396 57.7953 50.2393 53.0841 49.4468C52.4556 49.3572 51.8734 49.794 51.7837 50.4225C51.6971 51.0298 52.1024 51.5981 52.7048 51.7138C56.1029 52.2906 59.1996 54.0169 61.477 56.604C59.5623 56.9484 57.8877 58.0984 56.8788 59.7618C55.6408 61.9791 56.4347 64.7802 58.652 66.0182C60.8693 67.2563 63.6704 66.4624 64.9084 64.245C65.3813 63.3321 65.6367 62.3221 65.6545 61.2941C66.8776 63.0706 66.9755 65.3906 65.9063 67.2638C65.5824 67.8098 65.7624 68.5151 66.3085 68.8389C66.8545 69.1628 67.5597 68.9828 67.8836 68.4367C67.894 68.4192 67.9039 68.4015 67.9134 68.3834C70.0182 64.6238 68.7784 59.8731 65.105 57.6213ZM62.9036 63.1231C62.2901 64.2348 60.8915 64.6386 59.7799 64.025C58.6682 63.4115 58.2643 62.0129 58.8779 60.9013C58.8813 60.8951 58.8848 60.8888 58.8882 60.8826C59.5666 59.7718 60.7109 59.0272 62.0012 58.8571C62.2011 58.8516 62.399 58.8976 62.576 58.9904C63.5462 59.5319 63.598 61.8793 62.9036 63.1231Z" fill="white"/>
</svg>
