<svg width="81" height="81" viewBox="0 0 81 81" fill="none" xmlns="http://www.w3.org/2000/svg">
<g filter="url(#filter0_d)">
<path d="M23.9238 13.1855C23.1799 13.1855 22.5762 13.7893 22.5762 14.5332C22.5762 15.2771 23.1799 15.8809 23.9238 15.8809C24.6677 15.8809 25.2715 15.2771 25.2715 14.5332C25.2715 13.7893 24.6677 13.1855 23.9238 13.1855Z" fill="white"/>
<path d="M40.5 2C21.905 2 6 17.8755 6 36.5C6 55.0991 21.8774 71 40.5 71C59.095 71 75 55.1245 75 36.5C75 17.9009 59.1226 2 40.5 2ZM40.5 68.3047C23.2601 68.3047 8.69531 53.7399 8.69531 36.5C8.69531 19.2601 23.2601 4.69531 40.5 4.69531C57.7399 4.69531 72.3047 19.2601 72.3047 36.5C72.3047 53.7399 57.7399 68.3047 40.5 68.3047Z" fill="white"/>
<path d="M40.5 7.79492C36.1787 7.79492 31.6075 8.79219 27.9584 10.5311C27.2866 10.8513 27.0013 11.6556 27.3215 12.3274C27.6416 12.9992 28.4456 13.2847 29.1178 12.9643C32.4173 11.392 36.5661 10.4902 40.5 10.4902C54.5988 10.4902 66.5098 22.4012 66.5098 36.5C66.5098 50.5988 54.5988 62.5098 40.5 62.5098C26.4012 62.5098 14.4902 50.5988 14.4902 36.5C14.4902 30.0601 16.8528 23.7128 20.9723 19.0855C21.4673 18.5295 21.4179 17.6777 20.862 17.1828C20.3059 16.6877 19.4543 16.7377 18.9593 17.2932C14.4061 22.4076 11.7949 29.4081 11.7949 36.5C11.7949 52.0962 24.8811 65.2051 40.5 65.2051C56.0962 65.2051 69.2051 52.1189 69.2051 36.5C69.2051 20.9038 56.1189 7.79492 40.5 7.79492Z" fill="white"/>
<path d="M56.6719 29.7617H47.2383V20.3281C47.2383 19.5839 46.6348 18.9805 45.8906 18.9805H35.1094C34.3652 18.9805 33.7617 19.5839 33.7617 20.3281V29.7617H24.3281C23.5839 29.7617 22.9805 30.3652 22.9805 31.1094V41.8906C22.9805 42.6348 23.5839 43.2383 24.3281 43.2383H33.7617V52.6719C33.7617 53.416 34.3652 54.0195 35.1094 54.0195H45.8906C46.6348 54.0195 47.2383 53.416 47.2383 52.6719V43.2383H56.6719C57.416 43.2383 58.0195 42.6348 58.0195 41.8906V31.1094C58.0195 30.3652 57.416 29.7617 56.6719 29.7617ZM55.3242 40.543H45.8906C45.1465 40.543 44.543 41.1465 44.543 41.8906V51.3242H36.457V41.8906C36.457 41.1465 35.8536 40.543 35.1094 40.543H25.6758V32.457H35.1094C35.8536 32.457 36.457 31.8536 36.457 31.1094V21.6758H44.543V31.1094C44.543 31.8536 45.1465 32.457 45.8906 32.457H55.3242V40.543Z" fill="white"/>
</g>
<defs>
<filter id="filter0_d" x="0" y="0" width="81" height="81" filterUnits="userSpaceOnUse" color-interpolation-filters="sRGB">
<feFlood flood-opacity="0" result="BackgroundImageFix"/>
<feColorMatrix in="SourceAlpha" type="matrix" values="0 0 0 0 0 0 0 0 0 0 0 0 0 0 0 0 0 0 127 0"/>
<feOffset dy="4"/>
<feGaussianBlur stdDeviation="3"/>
<feColorMatrix type="matrix" values="0 0 0 0 0 0 0 0 0 0 0 0 0 0 0 0 0 0 0.6 0"/>
<feBlend mode="normal" in2="BackgroundImageFix" result="effect1_dropShadow"/>
<feBlend mode="normal" in="SourceGraphic" in2="effect1_dropShadow" result="shape"/>
</filter>
</defs>
</svg>
