<svg width="68" height="68" viewBox="0 0 68 68" fill="none" xmlns="http://www.w3.org/2000/svg">
<g clip-path="url(#clip0)">
<path d="M39.4451 20.1818C38.7106 20.1818 38.1149 20.7768 38.1149 21.5099C38.1149 22.2424 38.7106 22.8375 39.4451 22.8375C40.1796 22.8375 40.7753 22.2424 40.7753 21.5099C40.7753 20.7768 40.1796 20.1818 39.4451 20.1818Z" fill="white"/>
<path d="M31.3775 46.1213C31.8968 45.602 31.8968 44.7615 31.3775 44.2422C30.8577 43.7244 30.0156 43.7244 29.4953 44.2422C28.9765 44.7615 28.9765 45.602 29.4953 46.1213C30.0156 46.6391 30.8577 46.6391 31.3775 46.1213Z" fill="white"/>
<path d="M15.3901 67.6072C15.9058 68.126 16.7453 68.1318 17.2677 67.6181L23.7175 61.2763C24.8133 60.1827 25.1465 58.5635 24.6646 57.156L26.052 55.8206C26.799 55.1006 27.7825 54.7037 28.8221 54.7037H46.5078C49.6453 54.7037 52.6109 53.5011 54.8591 51.3175C54.9516 51.2277 54.1568 52.1621 66.9245 36.9322C68.8182 34.6962 68.5349 31.3385 66.2924 29.4465C64.0639 27.572 60.7257 27.8413 58.8268 30.0389L50.9766 38.0917C49.9853 36.8741 48.4737 36.1151 46.8404 36.1151H32.0055C29.8945 35.2337 27.6546 34.7875 25.3435 34.7875C18.9394 34.7875 13.3447 37.7384 10.3417 43.2771C9.07698 43.038 7.74314 43.4198 6.78356 44.3775L0.454822 50.7126C-0.0618728 51.2298 -0.0629123 52.0666 0.452743 52.5849L15.3901 67.6072ZM25.343 37.4427C27.3807 37.4427 29.3508 37.852 31.1997 38.6593C31.3682 38.733 31.5496 38.7708 31.7331 38.7708H46.8404C48.2829 38.7708 49.5014 39.9449 49.5014 41.426C49.5014 42.8906 48.3079 44.0818 46.8404 44.0818H35.9862C35.2517 44.0818 34.656 44.6763 34.656 45.4094C34.656 46.143 35.2517 46.737 35.9862 46.737H46.8404C49.7748 46.737 52.1618 44.3547 52.1618 41.426C52.1618 41.1926 52.1451 40.9612 52.115 40.7319C59.709 32.9411 60.7798 31.8464 60.8255 31.7919C61.7737 30.675 63.4568 30.5333 64.5765 31.4755C65.6972 32.4213 65.8391 34.1001 64.8884 35.2233L52.956 49.4602C51.2136 51.1297 48.9259 52.0485 46.5078 52.0485H28.8221C27.0891 52.0485 25.4485 52.7099 24.2041 53.9099L23.0735 54.9989L12.6512 44.5975C15.0871 40.0367 19.6578 37.4427 25.343 37.4427ZM8.66633 46.254C9.10505 45.8161 9.77873 45.7373 10.3136 46.0672C10.5169 46.1907 21.8956 57.5752 21.9658 57.6691C22.3551 58.1926 22.2995 58.936 21.8436 59.3915L16.345 64.798L3.27325 51.6521L8.66633 46.254Z" fill="white"/>
<path d="M20.8201 28.1485H52.7487C54.9495 28.1485 56.7398 26.3617 56.7398 24.1651C56.7398 20.8184 56.7398 6.39005 56.7398 3.98334C56.7398 1.78674 54.9495 0 52.7487 0H20.8201C18.6192 0 16.829 1.78674 16.829 3.98334V24.1651C16.829 26.3617 18.6192 28.1485 20.8201 28.1485ZM54.0789 10.6219H19.4899V7.96668H54.0789V10.6219ZM52.7487 25.4933H20.8201C20.0867 25.4933 19.4899 24.8972 19.4899 24.1651V13.2776H54.0789V24.1651C54.0789 24.8972 53.4821 25.4933 52.7487 25.4933ZM20.8201 2.65573H52.7487C53.4821 2.65573 54.0789 3.25131 54.0789 3.98334V5.31095H19.4899V3.98334C19.4899 3.25131 20.0867 2.65573 20.8201 2.65573Z" fill="white"/>
<path d="M50.0878 20.1818H44.7664C44.0319 20.1818 43.4362 20.7763 43.4362 21.5099C43.4362 22.243 44.0319 22.8375 44.7664 22.8375H50.0878C50.8228 22.8375 51.4185 22.243 51.4185 21.5099C51.4185 20.7763 50.8228 20.1818 50.0878 20.1818Z" fill="white"/>
</g>
<defs>
<clipPath id="clip0">
<rect width="68" height="68" fill="white"/>
</clipPath>
</defs>
</svg>
