<svg width="67" height="67" viewBox="0 0 67 67" fill="none" xmlns="http://www.w3.org/2000/svg">
<path d="M66.0186 40.6444C66.5606 40.6444 67 40.2051 67 39.663V18.8019C67 16.096 64.7987 13.8946 62.0928 13.8946H51.7989V4.90723C51.7989 2.20132 49.5975 0 46.8916 0H20.1084C17.4025 0 15.2011 2.20132 15.2011 4.90723V13.8946H4.90723C2.20132 13.8946 0 16.096 0 18.8019V52.1239C0 54.8298 2.20132 57.0311 4.90723 57.0311H28.6938V61.1113H27.4539C24.9646 61.1113 22.9393 63.1366 22.9393 65.626C22.9393 66.3837 23.5556 67 24.3133 67H42.6866C43.4443 67 44.0606 66.3837 44.0606 65.626C44.0606 63.1366 42.0353 61.1113 39.546 61.1113H38.3061V57.0311H62.0928C64.7987 57.0311 67 54.8298 67 52.1239V44.2429C67 43.7007 66.5606 43.2615 66.0186 43.2615C65.4765 43.2615 65.0371 43.7007 65.0371 44.2429V52.1239C65.0371 53.7473 63.7163 55.0682 62.0928 55.0682H37.3348C37.3314 55.0682 37.3282 55.0677 37.3248 55.0677C37.3214 55.0677 37.3181 55.0682 37.3147 55.0682H29.6854C29.682 55.0682 29.6788 55.0677 29.6754 55.0677C29.672 55.0677 29.6687 55.0682 29.6653 55.0682H4.90723C3.28365 55.0682 1.96289 53.7473 1.96289 52.1239V18.8019C1.96289 17.1784 3.28365 15.8575 4.90723 15.8575H15.2011V17.8204H5.2998C4.54213 17.8204 3.92578 18.4368 3.92578 19.1945V52.1239C3.92578 52.6661 4.36521 53.1054 4.90723 53.1054H61.7002C62.4579 53.1054 63.0742 52.489 63.0742 51.7313V19.1945C63.0742 18.4368 62.4579 17.8204 61.7002 17.8204H51.7989V15.8575H62.0928C63.7163 15.8575 65.0371 17.1784 65.0371 18.8019V39.663C65.0371 40.205 65.4765 40.6444 66.0186 40.6444ZM30.6567 57.0311H36.3433V61.1113H30.6567V57.0311ZM39.5461 63.0742C40.7505 63.0742 41.7627 63.9129 42.0293 65.0371H24.9707C25.2373 63.9129 26.2495 63.0742 27.4539 63.0742H39.5461ZM15.2011 51.1425H5.88867V19.7833H15.2011V51.1425ZM49.836 51.1425H17.164V4.90723C17.164 3.28379 18.4848 1.96289 20.1084 1.96289H46.8916C48.5152 1.96289 49.836 3.28379 49.836 4.90723V51.1425ZM61.1113 19.7833V51.1425H51.7989V19.7833H61.1113ZM44.8006 35.4629H22.1994C21.6574 35.4629 21.2179 35.9022 21.2179 36.4443C21.2179 36.9865 21.6574 37.4258 22.1994 37.4258H44.8006C45.3426 37.4258 45.7821 36.9865 45.7821 36.4443C45.7821 35.9022 45.3426 35.4629 44.8006 35.4629ZM33.5 5.88867C30.7701 5.88867 28.1723 6.75287 25.9874 8.38809C25.5534 8.71275 25.4648 9.32805 25.7896 9.76185C26.1144 10.1958 26.7295 10.2845 27.1635 9.95971C29.0063 8.58045 31.1974 7.85156 33.5 7.85156C39.3447 7.85156 44.0996 12.6066 44.0996 18.4512C44.0996 24.2957 39.3447 29.0508 33.5 29.0508C27.6553 29.0508 22.9004 24.2957 22.9004 18.4512C22.9004 16.5569 23.4084 14.6968 24.3695 13.0721C24.6455 12.6057 24.4911 12.0037 24.0246 11.7277C23.5581 11.4519 22.9561 11.6062 22.6802 12.0728C21.5401 13.9997 20.9375 16.2055 20.9375 18.4512C20.9375 25.3782 26.573 31.0137 33.5 31.0137C40.427 31.0137 46.0625 25.3782 46.0625 18.4512C46.0625 11.5241 40.427 5.88867 33.5 5.88867ZM28.978 23.503C30.3456 24.8833 32.6919 24.8931 34.0669 23.5026L40.1962 17.3732C41.3728 16.2063 41.3094 14.2179 40.094 13.1118C38.9304 12.0529 37.1289 12.113 35.9931 13.2486L31.5223 17.7194L30.9675 17.1646C29.8379 16.0236 27.9363 16.0316 26.8034 17.1644C25.6555 18.3123 25.6554 20.1802 26.8034 21.3282L28.978 23.503ZM28.1916 18.5525C28.5692 18.1748 29.2036 18.1727 29.5796 18.5523L30.5507 19.5236C31.0748 20.0532 31.9682 20.0552 32.494 19.5238L37.3812 14.6366C37.7678 14.2498 38.3924 14.2171 38.7731 14.5635C39.1813 14.9348 39.2018 15.596 38.8084 15.985L32.6791 22.1145C32.3709 22.4225 31.9602 22.5922 31.5225 22.5922C31.0847 22.5922 30.674 22.4226 30.366 22.1148L28.1917 19.9404C27.8089 19.5577 27.8089 18.9351 28.1916 18.5525ZM44.8006 41.3516H22.1994C21.6574 41.3516 21.2179 41.7909 21.2179 42.333C21.2179 42.8752 21.6574 43.3145 22.1994 43.3145H44.8006C45.3426 43.3145 45.7821 42.8752 45.7821 42.333C45.7821 41.7909 45.3426 41.3516 44.8006 41.3516Z" fill="white"/>
</svg>
