<svg width="1920" height="2192" viewBox="0 0 1920 2192" fill="none" xmlns="http://www.w3.org/2000/svg">
<path opacity="0.15" d="M-767.255 519.01C-713.735 633.319 -616.502 786.758 -435.445 895.333C-21.8461 1143.37 314.176 848.284 820.705 1042.17C1258.02 1209.58 1303.48 1542.84 1837.38 1673.36C1935.26 1697.29 2048.69 1714.22 2182.69 1698.67C2431.72 1669.77 2614.65 1544.56 2712.64 1462.69" stroke="#782A9C" stroke-width="2"/>
<path opacity="0.15" d="M-768.171 528.082C-714.652 642.391 -617.418 795.83 -436.361 904.405C-22.7626 1152.44 313.26 857.357 819.788 1051.24C1257.11 1218.65 1302.56 1551.91 1836.46 1682.43C1934.34 1706.37 2047.77 1723.29 2181.77 1707.74C2430.8 1678.85 2613.73 1553.63 2711.72 1471.76" stroke="#782A9C" stroke-width="2"/>
<path opacity="0.15" d="M-769.087 537.155C-715.568 651.464 -618.334 804.903 -437.277 913.478C-23.6784 1161.51 312.344 866.43 818.872 1060.31C1256.19 1227.72 1301.65 1560.99 1835.55 1691.5C1933.43 1715.44 2046.85 1732.37 2180.86 1716.82C2429.89 1687.92 2612.82 1562.71 2710.8 1480.83" stroke="#782A9C" stroke-width="2"/>
<path opacity="0.15" d="M-770.003 546.228C-716.484 660.537 -619.25 813.976 -438.193 922.551C-24.5946 1170.58 311.428 875.503 817.956 1069.38C1255.27 1236.79 1300.73 1570.06 1834.63 1700.58C1932.51 1724.51 2045.94 1741.44 2179.94 1725.89C2428.97 1696.99 2611.9 1571.78 2709.89 1489.91" stroke="#782A9C" stroke-width="2"/>
<path opacity="0.15" d="M-770.919 555.301C-717.4 669.61 -620.166 823.049 -439.109 931.624C-25.5107 1179.66 310.512 884.575 817.04 1078.46C1254.36 1245.87 1299.81 1579.13 1833.72 1709.65C1931.6 1733.59 2045.02 1750.51 2179.03 1734.96C2428.05 1706.07 2610.98 1580.85 2708.97 1498.98" stroke="#782A9C" stroke-width="2"/>
</svg>
