<svg width="1920" height="894" viewBox="0 0 1920 894" fill="none" xmlns="http://www.w3.org/2000/svg">
<path opacity="0.1" d="M2277.36 264.818C2233.23 316.169 2157.17 383.712 2029.02 425.382C1736.28 520.575 1536.23 362.145 1186.08 426.557C883.771 482.179 828.312 637.924 464.857 670.759C398.224 676.784 321.83 678.632 234.282 663.937C71.5864 636.631 -40.0132 567.201 -98.665 522.984" stroke="#782A9C" stroke-width="2"/>
<path opacity="0.1" d="M2277.28 269.175C2233.14 320.526 2157.08 388.07 2028.93 429.74C1736.19 524.932 1536.15 366.502 1186 430.915C883.688 486.536 828.228 642.281 464.773 675.116C398.14 681.141 321.747 682.989 234.199 668.294C71.503 640.988 -40.0966 571.559 -98.7484 527.341" stroke="#782A9C" stroke-width="2"/>
<path opacity="0.1" d="M2277.19 273.533C2233.06 324.884 2157 392.427 2028.85 434.097C1736.11 529.29 1536.07 370.86 1185.91 435.272C883.604 490.894 828.144 646.639 464.689 679.474C398.056 685.498 321.663 687.347 234.115 672.652C71.4189 645.346 -40.1807 575.916 -98.8325 531.699" stroke="#782A9C" stroke-width="2"/>
<path opacity="0.1" d="M2277.11 277.89C2232.97 329.241 2156.92 396.785 2028.77 438.455C1736.03 533.648 1535.98 375.217 1185.83 439.63C883.52 495.251 828.061 650.997 464.606 683.832C397.972 689.856 321.579 691.704 234.031 677.01C71.3352 649.703 -40.2644 580.274 -98.9162 536.057" stroke="#782A9C" stroke-width="2"/>
<path opacity="0.1" d="M2277.03 282.248C2232.89 333.599 2156.83 401.142 2028.68 442.812C1735.94 538.005 1535.9 379.575 1185.75 443.987C883.436 499.609 827.977 655.354 464.522 688.189C397.889 694.214 321.495 696.062 233.947 681.367C71.2514 654.061 -40.3482 584.631 -99 540.414" stroke="#782A9C" stroke-width="2"/>
</svg>
