<svg width="1920" height="1239" viewBox="0 0 1920 1239" fill="none" xmlns="http://www.w3.org/2000/svg">
<path opacity="0.15" d="M-15.0123 293.36C15.2385 357.97 70.198 444.699 172.537 506.069C406.315 646.264 596.245 479.476 882.55 589.063C1129.73 683.688 1155.43 872.06 1457.2 945.831C1512.53 959.361 1576.64 968.929 1652.38 960.14C1793.14 943.806 1896.54 873.032 1951.92 826.755" stroke="#782A9C" stroke-width="2"/>
<path opacity="0.15" d="M-15.5303 298.488C14.7204 363.098 69.6799 449.827 172.019 511.197C405.797 651.392 595.727 484.604 882.032 594.191C1129.22 688.816 1154.91 877.188 1456.69 950.959C1512.01 964.489 1576.12 974.057 1651.87 965.267C1792.62 948.934 1896.02 878.16 1951.41 831.883" stroke="#782A9C" stroke-width="2"/>
<path opacity="0.15" d="M-16.0479 303.616C14.2029 368.227 69.1623 454.955 171.501 516.325C405.279 656.521 595.209 489.732 881.514 599.319C1128.7 693.944 1154.39 882.316 1456.17 956.088C1511.49 969.618 1575.61 979.186 1651.35 970.396C1792.11 954.063 1895.5 883.288 1950.89 837.011" stroke="#782A9C" stroke-width="2"/>
<path opacity="0.15" d="M-16.5658 308.744C13.6849 373.355 68.6444 460.083 170.983 521.453C404.761 661.649 594.691 494.86 880.996 604.448C1128.18 699.073 1153.87 887.444 1455.65 961.216C1510.98 974.746 1575.09 984.314 1650.83 975.524C1791.59 959.191 1894.99 888.416 1950.37 842.139" stroke="#782A9C" stroke-width="2"/>
<path opacity="0.15" d="M-17.0835 313.872C13.1672 378.483 68.1267 465.212 170.465 526.582C404.244 666.777 594.173 499.988 880.478 609.576C1127.66 704.201 1153.36 892.573 1455.13 966.344C1510.46 979.874 1574.57 989.442 1650.31 980.652C1791.07 964.319 1894.47 893.544 1949.85 847.268" stroke="#782A9C" stroke-width="2"/>
</svg>
