<svg width="60" height="976" viewBox="0 0 60 976" fill="none" xmlns="http://www.w3.org/2000/svg">
<circle cx="30" cy="30" r="28.5" fill="#6C1991" fill-opacity="0.05" stroke="#6C1991" stroke-width="3"/>
<circle cx="30" cy="245" r="28.5" fill="#6C1991" fill-opacity="0.05" stroke="#6C1991" stroke-width="3"/>
<circle cx="30" cy="460" r="28.5" fill="#6C1991" fill-opacity="0.05" stroke="#6C1991" stroke-width="3"/>
<circle cx="30" cy="675" r="28.5" fill="#6C1991" fill-opacity="0.05" stroke="#6C1991" stroke-width="3"/>
<circle cx="30" cy="890" r="28.5" fill="#6C1991" fill-opacity="0.05" stroke="#6C1991" stroke-width="3"/>
<circle cx="30.5" cy="969.5" r="6.5" fill="#6C1991"/>
<path d="M32.2168 22.2V39H28.3288V25.32H24.9688V22.2H32.2168Z" fill="#6C1991"/>
<path d="M35.9099 250.832V254H23.2139V251.48L29.6939 245.36C30.3819 244.704 30.8459 244.144 31.0859 243.68C31.3259 243.2 31.4459 242.728 31.4459 242.264C31.4459 241.592 31.2139 241.08 30.7499 240.728C30.3019 240.36 29.6379 240.176 28.7579 240.176C28.0219 240.176 27.3579 240.32 26.7659 240.608C26.1739 240.88 25.6779 241.296 25.2779 241.856L22.4459 240.032C23.1019 239.056 24.0059 238.296 25.1579 237.752C26.3099 237.192 27.6299 236.912 29.1179 236.912C30.3659 236.912 31.4539 237.12 32.3819 237.536C33.3259 237.936 34.0539 238.512 34.5659 239.264C35.0939 240 35.3579 240.872 35.3579 241.88C35.3579 242.792 35.1659 243.648 34.7819 244.448C34.3979 245.248 33.6539 246.16 32.5499 247.184L28.6859 250.832H35.9099Z" fill="#6C1991"/>
<path d="M31.1824 459.04C32.6544 459.28 33.7824 459.832 34.5664 460.696C35.3504 461.544 35.7424 462.6 35.7424 463.864C35.7424 464.84 35.4864 465.744 34.9744 466.576C34.4624 467.392 33.6784 468.048 32.6224 468.544C31.5824 469.04 30.3024 469.288 28.7824 469.288C27.5984 469.288 26.4304 469.136 25.2784 468.832C24.1424 468.512 23.1744 468.064 22.3744 467.488L23.8864 464.512C24.5264 464.992 25.2624 465.368 26.0944 465.64C26.9424 465.896 27.8064 466.024 28.6864 466.024C29.6624 466.024 30.4304 465.84 30.9904 465.472C31.5504 465.088 31.8304 464.552 31.8304 463.864C31.8304 462.488 30.7824 461.8 28.6864 461.8H26.9104V459.232L30.3664 455.32H23.2144V452.2H34.9744V454.72L31.1824 459.04Z" fill="#6C1991"/>
<path d="M37.5466 680.472H34.8106V684H31.0186V680.472H21.9706V677.856L29.8906 667.2H33.9706L26.6266 677.304H31.1386V674.16H34.8106V677.304H37.5466V680.472Z" fill="#6C1991"/>
<path d="M29.0593 888.512C31.4273 888.512 33.1713 888.984 34.2913 889.928C35.4273 890.872 35.9953 892.136 35.9953 893.72C35.9953 894.744 35.7393 895.68 35.2273 896.528C34.7153 897.36 33.9313 898.032 32.8753 898.544C31.8353 899.04 30.5473 899.288 29.0113 899.288C27.8273 899.288 26.6593 899.136 25.5073 898.832C24.3713 898.512 23.4033 898.064 22.6033 897.488L24.1393 894.512C24.7793 894.992 25.5153 895.368 26.3473 895.64C27.1793 895.896 28.0353 896.024 28.9153 896.024C29.8913 896.024 30.6593 895.832 31.2193 895.448C31.7793 895.064 32.0593 894.528 32.0593 893.84C32.0593 893.12 31.7633 892.576 31.1713 892.208C30.5953 891.84 29.5873 891.656 28.1473 891.656H23.8513L24.7153 882.2H34.9633V885.32H27.9553L27.6913 888.512H29.0593Z" fill="#6C1991"/>
<line x1="30.5" y1="59" x2="30.5" y2="217" stroke="#6C1991"/>
<line x1="30.5" y1="275" x2="30.5" y2="433" stroke="#6C1991"/>
<line x1="30.5" y1="487" x2="30.5" y2="645" stroke="#6C1991"/>
<line x1="30.5" y1="704" x2="30.5" y2="862" stroke="#6C1991"/>
<line x1="30.5" y1="919" x2="30.5" y2="969" stroke="#6C1991"/>
</svg>
