<svg width="26" height="26" viewBox="0 0 26 26" fill="none" xmlns="http://www.w3.org/2000/svg">
<path d="M19.0919 19.092C15.5827 22.6012 9.87319 22.6012 6.36396 19.092C2.85473 15.5828 2.85473 9.8733 6.36396 6.36407C9.87319 2.85484 15.5827 2.85484 19.0919 6.36407C22.6011 9.8733 22.6011 15.5828 19.0919 19.092ZM7.15946 7.15956C4.08886 10.2302 4.08886 15.2259 7.15946 18.2965C10.2301 21.3671 15.2258 21.3671 18.2964 18.2965C21.367 15.2259 21.367 10.2302 18.2964 7.15956C15.2258 4.08896 10.2301 4.08896 7.15946 7.15956Z" fill="#721991"/>
<path d="M15.9101 10.3415L10.3417 15.91C10.1221 16.1295 9.76574 16.1295 9.54619 15.91C9.32663 15.6904 9.32663 15.334 9.54619 15.1145L15.1147 9.54599C15.3342 9.32644 15.6906 9.32644 15.9101 9.54599C16.1297 9.76555 16.1297 10.1219 15.9101 10.3415Z" fill="#721991"/>
<path d="M15.9101 15.9098C15.6906 16.1294 15.3342 16.1294 15.1147 15.9098L9.54619 10.3414C9.32663 10.1218 9.32663 9.76541 9.54619 9.54586C9.76574 9.3263 10.1221 9.3263 10.3417 9.54586L15.9101 15.1143C16.1297 15.3339 16.1297 15.6903 15.9101 15.9098Z" fill="#721991"/>
</svg>
