<svg width="625" height="320" viewBox="0 0 625 320" fill="none" xmlns="http://www.w3.org/2000/svg">
<g clip-path="url(#clip0)">
<path opacity="0.1" d="M566.467 115.134C534.415 104.107 514.807 -64.1299 380.873 26.9103C263.148 106.933 266.258 -11.2817 164.669 40.7627C98.7349 74.5449 91.3242 113.207 100.391 132.572C110.296 153.734 70.7944 179.032 30.3367 196.403C-33.1172 223.663 13.5469 319.449 73.4946 319.905C133.442 320.361 573.863 318.995 573.863 318.995C573.863 318.995 693.706 158.917 566.467 115.134Z" fill="#500F67"/>
<path d="M580.58 296.832C580.58 296.832 585.07 301.001 584.195 303.954C583.32 306.907 579.265 308.883 578.718 312.498C578.171 316.114 575.978 318.087 574.008 318.087H564.601C564.601 318.087 563.149 315.539 566.655 314.775C570.161 314.011 571.481 309.761 571.261 305.816C571.041 301.872 571.59 296.615 571.59 296.615L579.04 294.861L580.58 296.832Z" fill="#233862"/>
<path d="M499.155 318.08H524.118C524.285 318.049 524.448 318 524.604 317.934C526.267 317.1 525.748 310.736 525.547 308.762C525.51 308.396 525.482 308.183 525.482 308.183C525.482 308.183 516.716 301.173 515.524 306.541C515.487 306.708 515.44 306.873 515.394 307.035C513.877 312.056 507.073 314.34 503.145 314.976C500.137 315.463 499.359 317.205 499.155 318.08Z" fill="#233862"/>
<path d="M504.176 174.354C504.176 174.354 505.508 190.96 507.071 210.922C509.197 238.041 511.753 271.351 512.008 277.66C512.443 288.617 514.199 306.148 514.199 306.148C514.199 306.148 518.367 310.317 526.686 308.556C526.686 308.556 534.097 283.543 536.227 257.063C536.259 256.628 536.293 256.191 536.327 255.755C538.297 228.805 541.364 172.056 541.364 172.056L504.176 174.354Z" fill="#365DA4"/>
<path d="M504.176 174.354C504.176 174.354 505.508 190.96 507.071 210.922L536.227 257.061C536.259 256.625 536.293 256.189 536.327 255.752C538.297 228.802 541.364 172.054 541.364 172.054L504.176 174.354Z" fill="#285493"/>
<path d="M510.255 176.325C510.255 176.325 534.245 236.471 550.011 264.727C565.777 292.983 570.714 300.881 570.714 300.881C570.714 300.881 579.746 297.265 580.573 294.799C580.573 294.799 574.54 240.234 563.978 226.938C558.014 219.422 551.004 196.866 550.676 188.991C550.347 181.117 548.538 165.493 548.538 165.493L510.255 176.325Z" fill="#365DA4"/>
<path d="M485.994 159.721L484.623 162.456C484.623 162.456 477.65 163.429 479.57 170.699C479.57 170.699 480.603 173.689 482.525 172.744C484.447 171.799 483.502 171.878 486.258 170.604C489.014 169.33 490.607 166.882 489.991 164.638L490.434 162.259L485.994 159.721Z" fill="#FFB27D"/>
<path d="M522.557 83.4874C521.491 77.19 521.459 73.4565 521.459 73.4565L533.631 63.6456C533.168 77.1344 541.82 83.6217 541.82 83.6217C541.82 83.6217 525.609 91.6053 516.225 88.6499C518.002 86.5566 520.148 84.8068 522.557 83.4874Z" fill="#FFB27D"/>
<path d="M518.592 73.2342C518.592 73.2342 534.076 75.805 535.53 66.1377C536.984 56.4705 539.96 50.2889 530.136 48.2392C520.313 46.1894 517.83 49.5871 516.561 52.6953C515.292 55.8034 514.602 72.3147 518.592 73.2342Z" fill="#FFB27D"/>
<path d="M535.421 66.8048C535.421 66.8048 535.108 53.8533 520.998 51.7735C511.334 50.3514 517.189 42.2776 518.293 40.9968C518.293 40.9968 525.681 42.405 533.24 44.0656C549.117 47.5489 537.105 64.8778 535.421 66.8048Z" fill="#163560"/>
<path d="M487.618 163.515C486.232 162.03 485.022 160.392 484.01 158.632C484.01 158.632 501.61 136.771 503.032 134.504C504.454 132.236 515.151 95.8854 515.151 95.8854L542.169 90.4102C542.169 90.4102 519.616 136.945 515.88 142.619C509.715 151.983 491.235 165.937 491.235 165.937C489.882 165.375 488.653 164.552 487.618 163.515Z" fill="#55003E"/>
<path d="M503.141 175.737C503.414 175.975 503.764 176.108 504.127 176.112C507.647 176.065 517.913 178.02 526.591 177.129C533.914 176.434 540.393 174.257 547.355 171.135C548.281 170.72 550.405 169.585 550.365 168.552C550.333 167.422 550.222 165.773 550.08 163.714C549.587 156.534 548.728 144.171 549.566 129.913C549.717 127.259 549.798 124.625 549.798 122.038C549.87 102.715 546.104 85.6252 538.406 79.8721C537.749 79.4088 533.645 81.4701 529.937 83.2998C526.51 84.9906 524.113 84.9512 520.875 84.2981L516.607 87.3854C512.67 91.0471 508.344 96.0243 506.466 103.582C504.868 110.013 503.919 121.612 503.414 133.63C503.182 139.075 502.993 144.569 502.951 149.78V149.968C502.905 150.484 502.905 151.05 502.905 151.566C502.719 164.939 502.907 175.558 503.141 175.737Z" fill="#860162"/>
<path d="M550.083 163.714C549.589 156.534 548.73 144.171 549.569 129.913C549.719 127.259 549.8 124.625 549.8 122.038C546.593 114.259 543.971 108.617 543.971 108.617H535.889C535.889 108.617 529.97 149.092 550.083 163.714Z" fill="#55003E"/>
<path d="M565.81 166.231L567.343 168.876C567.343 168.876 564.332 175.243 571.469 177.622C571.469 177.622 574.538 178.395 574.8 176.267C575.061 174.138 574.61 174.977 575.054 171.973C575.499 168.969 574.327 166.296 572.111 165.581L570.362 163.906L565.81 166.231Z" fill="#FFB27D"/>
<path d="M569.876 166.954C567.874 167.299 565.839 167.412 563.811 167.292C563.811 167.292 555.168 140.586 554.057 138.154C552.945 135.722 528.388 106.85 528.388 106.85L538.619 81.2478C538.619 81.2478 565.177 125.617 567.875 131.852C572.331 142.154 573.878 165.252 573.878 165.252C572.669 166.076 571.309 166.655 569.876 166.954Z" fill="#98367E"/>
<path d="M275.584 64.0741C275.584 64.0741 274.628 62.1147 269.843 62.6521C265.059 63.1894 263.709 67.488 263.489 70.353C263.269 73.218 253.081 107.487 254.668 116.751L272.759 108.77L275.584 64.0741Z" fill="#163560"/>
<path d="M276.974 64.4192C276.974 64.4192 271.879 62.6961 269.183 65.2484C266.488 67.8007 268.026 71.1775 268.026 71.1775L276.974 64.4192Z" fill="#C65447"/>
<path d="M293.085 74.4733C293.085 74.4733 292.993 63.2195 274.88 64.5142C273.363 64.6123 271.896 65.0996 270.622 65.9291C269.347 66.7587 268.308 67.9026 267.604 69.2505C265.568 73.2342 264.679 80.2426 271.261 91.4848L293.085 74.4733Z" fill="#163560"/>
<path d="M270.158 107.517L274.239 123.467L286.031 124.044L291.897 115.243C286.411 111.074 285.644 103.792 285.716 99.466C285.716 99.4243 285.716 99.3826 285.716 99.3386C285.735 98.2058 285.828 97.0754 285.996 95.9549L277.629 93.4072L271.261 91.4848C271.847 96.3486 271.807 99.8551 271.543 102.326C271.126 106.183 270.158 107.517 270.158 107.517Z" fill="#DE8F56"/>
<path d="M370.27 171.468H381.909L385.67 183.843H382.715V190.705H375.64V183.843H372.866L370.27 171.468Z" fill="#1C468A"/>
<path opacity="0.6" d="M380.985 172.665H372.076L374.063 182.645H383.861L380.985 172.665Z" fill="#DCEBF9"/>
<path d="M373.6 173.833H380.582C380.616 173.824 380.652 173.824 380.686 173.831C380.721 173.838 380.753 173.853 380.781 173.875C380.809 173.896 380.831 173.924 380.847 173.956C380.862 173.987 380.87 174.022 380.87 174.057C380.87 174.093 380.862 174.127 380.847 174.159C380.831 174.191 380.809 174.218 380.781 174.24C380.753 174.262 380.721 174.277 380.686 174.284C380.652 174.291 380.616 174.291 380.582 174.282H373.6C373.55 174.27 373.505 174.241 373.474 174.2C373.442 174.159 373.425 174.109 373.425 174.057C373.425 174.006 373.442 173.956 373.474 173.915C373.505 173.874 373.55 173.845 373.6 173.833Z" fill="#1C468A"/>
<path d="M373.723 174.685H380.74C380.774 174.676 380.81 174.674 380.845 174.681C380.88 174.688 380.913 174.703 380.941 174.725C380.969 174.746 380.992 174.774 381.008 174.806C381.024 174.838 381.032 174.873 381.032 174.909C381.032 174.944 381.024 174.979 381.008 175.011C380.992 175.043 380.969 175.071 380.941 175.093C380.913 175.114 380.88 175.129 380.845 175.136C380.81 175.143 380.774 175.141 380.74 175.132H373.723C373.674 175.119 373.63 175.09 373.599 175.049C373.568 175.009 373.552 174.959 373.552 174.909C373.552 174.858 373.568 174.808 373.599 174.768C373.63 174.727 373.674 174.698 373.723 174.685Z" fill="#1C468A"/>
<path d="M375.506 181.318H382.49C382.524 181.31 382.56 181.309 382.595 181.316C382.629 181.324 382.661 181.339 382.689 181.36C382.717 181.382 382.739 181.41 382.755 181.441C382.77 181.473 382.778 181.508 382.778 181.543C382.778 181.578 382.77 181.613 382.755 181.645C382.739 181.676 382.717 181.704 382.689 181.726C382.661 181.747 382.629 181.762 382.595 181.77C382.56 181.777 382.524 181.776 382.49 181.768H375.506C375.456 181.755 375.411 181.726 375.379 181.685C375.348 181.645 375.33 181.595 375.33 181.543C375.33 181.491 375.348 181.441 375.379 181.4C375.411 181.36 375.456 181.331 375.506 181.318Z" fill="#1C468A"/>
<path d="M372.076 151.527H325.067L317.547 181.856H364.017L372.076 151.527Z" fill="#365DA4"/>
<path d="M256.578 111.037C258.623 107.246 269.64 107.183 269.64 107.183C270.7 108.466 276.657 112.408 283.766 112.533C288.78 112.621 286.819 107.76 286.819 107.76C287.066 107.795 288.139 107.551 288.389 107.632C289.901 108.117 290.982 109.168 291.707 110.157C291.661 109.231 291.636 108.672 291.636 108.672C291.636 108.672 302.089 111.523 317.091 136.989C317.534 137.741 318.8 137.621 321.746 137.049C325.495 136.319 333.149 136.414 344.696 134.719C344.696 134.719 345.092 135.006 345.201 136.268C345.432 139.048 345.72 139.881 345.72 139.881C340.613 142.235 335.374 144.286 330.027 146.026C327.167 146.934 324.178 147.782 321.322 148.421C318.887 148.997 316.408 149.369 313.912 149.533C313.912 149.533 307.946 147.242 300.964 141.22C301.536 145.278 301.823 148.182 301.797 148.507C301.501 152.282 301.936 158.116 301.936 158.116C301.936 158.116 271.648 166.377 262.711 162.125C261.238 161.43 260.346 160.386 260.27 158.913C259.394 142.397 255.522 128.991 255.145 119.734C254.997 116.22 255.356 113.302 256.578 111.037Z" fill="#721991"/>
<path d="M269.443 129.095C268.19 128.708 266.861 128.631 265.571 128.87C264.281 129.109 263.069 129.658 262.038 130.469C261.007 131.28 260.188 132.329 259.651 133.527C259.115 134.724 258.878 136.034 258.959 137.343C259.32 142.922 259.767 149.433 260.27 158.91C260.346 160.383 261.238 161.423 262.711 162.123L271.39 144.115L269.445 129.086L269.443 129.095Z" fill="#360646"/>
<path d="M359.429 161.335H338.744L330.819 190.705H352.579L359.429 161.335Z" fill="#365DA4"/>
<path d="M255.944 188.037L260.068 157.979C260.132 157.545 260.311 157.137 260.587 156.796C265.775 150.264 266.314 129.846 266.326 122.055C266.319 121.265 266.622 120.505 267.171 119.937C267.719 119.369 268.468 119.039 269.258 119.018C269.135 118.645 266.754 111.422 264.556 107.804C264.463 107.651 264.409 107.476 264.4 107.297C264.39 107.118 264.425 106.939 264.502 106.777C264.579 106.614 264.694 106.474 264.839 106.367C264.983 106.261 265.152 106.192 265.33 106.166C265.527 106.137 265.729 106.163 265.912 106.241C266.095 106.319 266.254 106.447 266.37 106.609C267.558 108.269 271.138 113.557 272.768 119.035H271.648H272.636C272.72 119.034 272.804 119.04 272.886 119.051C280.149 119.938 287.492 119.929 294.753 119.025H294.058C294.058 119.025 292.006 112.793 289.943 108.8C289.84 108.603 289.8 108.381 289.826 108.161C289.852 107.941 289.944 107.734 290.089 107.567C290.235 107.4 290.427 107.281 290.641 107.225C290.856 107.169 291.082 107.178 291.29 107.253L291.32 107.264C291.539 107.341 291.727 107.486 291.858 107.676C293.419 109.939 296.073 114.023 297.476 118.696C298.036 118.744 298.561 118.99 298.956 119.39C299.351 119.79 299.591 120.317 299.632 120.878L300.841 135.006L302.499 154.348C303.096 158.63 302.948 181.008 302.881 188.394C302.883 189.018 302.639 189.617 302.201 190.062C301.764 190.507 301.168 190.762 300.544 190.77H258.257C257.918 190.765 257.584 190.687 257.277 190.542C256.971 190.397 256.699 190.188 256.48 189.93C256.26 189.671 256.099 189.368 256.007 189.041C255.914 188.715 255.893 188.373 255.944 188.037Z" fill="#3B87BE"/>
<path d="M338.744 161.335H337.345L328.631 190.705H331L338.744 161.335Z" fill="#1C468A"/>
<path d="M325.067 151.527H324.252L316.64 181.856H317.547L325.067 151.527Z" fill="#1C468A"/>
<path d="M288.863 99.7069C288.863 99.7069 270.89 100.529 270.55 89.3263C270.209 78.1234 267.662 70.6865 279.118 69.6883C290.575 68.6901 292.939 72.896 293.963 76.6087C294.986 80.3214 293.532 99.2066 288.863 99.7069Z" fill="#E49963"/>
<path d="M277.562 68.5557C277.562 68.5557 280.64 67.576 285.566 67.576C290.491 67.576 296.309 71.2493 297.027 77.0719C297.745 82.8945 294.058 85.1295 294.058 85.1295C294.915 78.9248 286.909 74.1166 286.909 74.1166L286.839 74.0772C283.727 75.3858 278.113 77.2063 277.597 80.6526C276.791 86.0259 270.503 88.0825 270.503 88.0825C270.503 88.0825 265.119 68.074 277.562 68.5557Z" fill="#163560"/>
<path d="M291.019 93.611C291.019 93.611 290.887 94.7505 288.113 94.9057C288.113 94.9057 285.783 95.0354 285.712 93.8102C285.712 93.8009 287.858 92.6776 291.019 93.611Z" fill="white"/>
<path d="M368.38 190.622H80.0005V318.666H368.38V190.622Z" fill="#430A57"/>
<path d="M428.816 316.081C428.585 318.837 424.703 318.837 420.292 318.293C415.88 317.749 417.05 318.874 410.866 318.914C404.683 318.953 402.571 316.897 402.277 316.01C402.017 315.224 404.998 314.587 408.189 313.835C408.591 313.742 408.993 313.646 409.396 313.545C413.007 312.682 416.213 310.606 418.478 307.665C421.16 304.23 423.61 288.587 423.61 288.587L433.27 290.389C433.27 290.389 427.647 303.797 427.07 308.193C426.813 310.166 428.214 311.484 428.543 313.212C428.719 314.15 428.893 315.111 428.816 316.081Z" fill="#B77446"/>
<path d="M402.279 316.009C402.511 316.704 403.9 318.168 407.592 318.705H414.467C416.82 318.395 417.05 317.892 420.294 318.293C424.694 318.837 428.594 318.835 428.814 316.081C428.895 315.111 428.719 314.15 428.543 313.212C425.678 313.501 421.433 315.201 417.283 315.583C414.167 315.849 411.037 315.265 408.226 313.893L408.187 313.835C405 314.587 402.029 315.217 402.279 316.009Z" fill="#365DA4"/>
<path d="M420.181 299.85C420.181 299.85 422.709 301.525 425.088 301.958C428.656 302.606 430.312 301.886 430.312 301.886C430.312 301.886 447.473 258.793 446.493 244.234C446.47 243.882 446.456 243.512 446.451 243.118C446.424 240.591 446.787 237.224 447.415 233.349C447.646 231.929 447.913 230.44 448.209 228.902C448.904 225.31 449.747 221.437 450.685 217.488C451.095 215.749 451.525 213.996 451.961 212.245C456.275 195.013 461.546 178.036 461.546 178.036C461.546 178.036 430.579 167.92 428.826 177.374C428.154 181.003 425.917 195.523 426.924 217.725C427.737 235.595 427.211 249.536 425.667 265.714C424.312 279.923 421.989 292.145 420.181 299.85Z" fill="#365DA4"/>
<path d="M446.451 243.118C446.424 240.591 446.787 237.224 447.415 233.349C447.646 231.929 447.913 230.44 448.209 228.902C448.904 225.31 449.747 221.437 450.685 217.488C451.095 215.749 451.525 213.996 451.961 212.245C451.349 206.987 450.856 203.381 450.856 203.381C450.856 203.381 437.999 220.844 446.451 243.118Z" fill="#285493"/>
<path d="M441.345 316.009C441.56 316.67 442.797 317.985 445.977 318.592H454.263C455.974 318.291 456.484 317.939 459.358 318.293C463.758 318.837 467.655 318.835 467.88 316.081C467.959 315.111 467.785 314.15 467.609 313.212C467.28 311.484 466.136 310.182 466.136 308.193C466.136 302.282 467.505 291.542 467.505 291.542L458.424 294.785C458.424 294.785 460.471 305.464 457.544 307.665C454.455 309.981 452.058 312.658 448.459 313.545C448.056 313.645 447.656 313.742 447.253 313.835C444.064 314.587 441.083 315.217 441.345 316.009Z" fill="#B77446"/>
<path d="M441.345 316.009C441.56 316.672 442.797 317.987 445.977 318.592H454.263C455.972 318.291 456.481 317.939 459.358 318.293C463.758 318.837 467.655 318.835 467.88 316.081C467.959 315.111 467.785 314.15 467.609 313.212C464.744 313.501 460.499 315.201 456.349 315.583C453.232 315.849 450.101 315.265 447.29 313.893L447.253 313.835C444.064 314.587 441.083 315.217 441.345 316.009Z" fill="#365DA4"/>
<path d="M442.894 174.664C442.894 174.664 452.977 224.891 454.67 252.22C456.363 279.55 458.496 302.18 458.496 302.18C460.018 302.678 461.618 302.898 463.218 302.829C464.848 302.73 466.455 302.401 467.993 301.854C467.993 301.854 477.979 260.732 474.672 244.271C471.365 227.811 474.119 212.629 475.707 198.976C477.984 179.401 469.223 170.301 463.112 164.098C456.914 157.815 442.894 174.664 442.894 174.664Z" fill="#365DA4"/>
<path d="M435.752 82.6838C434.752 74.508 437.306 61.4245 453.621 63.516C469.936 65.6074 475.08 81.6438 471.789 88.775C468.498 95.9062 476.527 97.6247 479.047 105.293C481.212 111.88 481.967 120.058 485.471 123.729C496.765 135.564 474.626 153.764 461.28 149.926C436.963 142.936 433.837 141.892 434.701 122.789C435.143 113.001 442.758 109.21 437.922 106.377C426.243 99.5378 438.019 101.187 435.752 82.6838Z" fill="#C45446"/>
<path d="M439.339 103.834C439.587 103.834 441.539 103.232 444.826 102.919C446.426 98.0972 445.557 93.0482 445.557 93.0482L457.697 89.3425C458.276 102.139 459.42 103.834 459.677 104.054C462.421 104.712 465.111 105.579 467.722 106.648C467.722 106.648 459.974 150.996 463.301 159.455C465.326 164.627 466.865 169.977 467.896 175.435L431.769 175.883C431.769 175.883 432.274 146.832 430.611 136.551C428.948 126.27 439.339 103.834 439.339 103.834Z" fill="#FFB27D"/>
<path d="M442.387 93.8727C442.387 93.8727 456.921 96.7909 458.598 87.7119C460.275 78.6329 463.281 72.8891 454.073 70.6471C444.865 68.4052 442.417 71.5296 441.118 74.4246C439.819 77.3197 438.649 92.8745 442.387 93.8727Z" fill="#FFB27D"/>
<path d="M379.355 133.674C379.461 132.41 379.86 132.123 379.86 132.123C391.406 133.818 399.06 133.723 402.809 134.455C405.755 135.025 406.959 135.108 407.464 134.395C423.416 111.961 434.705 104.918 434.705 104.918C434.705 104.918 435.91 104.202 440.62 103.554C440.62 103.554 441.296 112.082 445.68 112.807C453.262 114.057 459.369 107.114 461.155 104.316C461.155 104.316 469.86 106.514 472.417 109.427C474.251 111.512 474.012 116.528 473.466 119.678C473.347 120.454 473.161 121.218 472.912 121.962C472.375 123.386 470.335 133.843 469.406 138.008C469.385 138.114 469.362 138.212 469.343 138.302C469.279 138.58 469.223 138.825 469.17 139.029C469.169 139.035 469.169 139.04 469.17 139.045C469.116 139.277 469.07 139.441 469.033 139.553C469.012 139.62 468.991 139.689 468.968 139.756C468.968 139.756 468.968 139.756 468.968 139.77C467.625 144.053 466.815 148.416 467.292 153.769C467.373 154.525 467.512 155.275 467.706 156.011C468.92 162.232 473.959 174.493 475.006 180.121C474.404 181.392 473.037 182.4 471.374 183.201C469.204 184.248 466.539 184.945 464.415 185.434C462.075 185.935 459.709 186.312 457.329 186.562C455.784 186.736 454.126 186.881 452.44 186.979C452.209 186.995 451.977 187.007 451.729 187.018C440.845 187.558 428.666 187.291 427.077 182.117C426.318 179.635 429.351 164.712 429.754 160.274C430.449 152.486 429.31 141.818 428.789 133.559C419.859 143.4 410.644 146.939 410.644 146.939C408.147 146.776 405.668 146.405 403.233 145.827C400.378 145.19 397.388 144.342 394.528 143.434C389.182 141.694 383.942 139.641 378.836 137.287C378.836 137.287 379.116 136.461 379.355 133.674Z" fill="#721991"/>
<path d="M440.935 69.0189C448.114 61.9526 455.328 64.3706 455.328 64.3706C455.328 64.3706 458.95 68.4793 461.409 71.247C465.705 76.0806 457.651 91.2254 457.651 91.2254C457.651 91.2254 458.79 81.9079 454.01 76.6828C451.731 74.193 450.599 72.1896 450.036 70.7768C449.168 71.4936 448.187 72.0611 447.132 72.456C442.501 74.0772 439.967 81.5188 439.967 81.5188C438.316 78.0516 437.85 72.0646 440.935 69.0189Z" fill="#C45446"/>
<path d="M446.914 89.4003C446.914 89.4003 446.528 90.4773 443.79 89.9886C443.79 89.9886 441.493 89.5787 441.706 88.3674C441.704 88.3743 444.047 87.7791 446.914 89.4003Z" fill="white"/>
<path d="M443.999 170.34C446.058 177.332 447.257 183.078 452.433 186.976C454.119 186.879 455.777 186.745 457.322 186.56C459.702 186.31 462.068 185.933 464.408 185.432C466.532 184.943 469.197 184.246 471.367 183.199C473.03 182.398 474.396 181.39 474.999 180.119C473.954 174.491 468.913 162.229 467.699 156.008C467.592 155.473 467.514 154.931 467.467 154.387C467.004 148.828 467.738 144.24 468.968 139.777C468.968 139.777 468.968 139.777 468.968 139.763L469.17 139.052C469.169 139.047 469.169 139.041 469.17 139.036C469.214 138.881 469.272 138.633 469.343 138.309C469.362 138.219 469.385 138.121 469.406 138.015C470.235 134.077 472.416 121.691 472.963 120.077C473.207 119.27 473.388 118.445 473.505 117.61L469.156 113.425C469.156 113.425 444.207 124.079 438.712 138.777C433.216 153.474 441.037 160.309 443.999 170.34Z" fill="#721991"/>
<path d="M394.528 143.432C400.049 145.183 406.059 146.718 410.637 146.936C410.637 146.936 419.977 143.351 428.96 133.359C429.34 131.662 429.706 128.815 427.649 129.635C424.764 130.793 414.097 144.486 410.049 144.773C407.17 144.986 398.958 144.004 394.528 143.432Z" fill="#721991"/>
<path d="M414.231 139.529C414.231 139.529 426.531 145.709 437.193 148.263C440.261 149 443.214 149.521 445.738 149.639C445.738 149.639 457.206 146.112 465.958 133.853C482.863 110.173 469.809 107.619 469.809 107.619C469.809 107.619 458.519 114.664 442.568 137.098C442.01 137.883 440.609 137.704 436.982 136.972C433.105 136.187 425.403 136.278 414.75 134.719C414.75 134.719 414.572 135.113 414.463 136.377C414.217 139.163 414.231 139.529 414.231 139.529Z" fill="#8421A7"/>
<path d="M366.724 130.182C368.114 128.882 374.598 129.695 377.027 130.911C377.937 131.355 378.879 131.728 379.846 132.028C391.193 133.674 399.097 133.73 402.809 134.455C403.588 136.755 404.38 140.727 403.233 145.824C400.378 145.188 397.388 144.34 394.528 143.432C389.199 141.697 383.975 139.652 378.885 137.308C377.302 137.077 375.706 136.946 374.107 136.917C368.183 136.755 365.344 131.479 366.724 130.182Z" fill="#FFB27D"/>
<path d="M399.326 131.937C400.799 130.548 407.728 131.419 410.327 132.718C411.726 133.388 413.187 133.92 414.69 134.304V134.286C425.343 135.849 433.103 136.187 436.98 136.972C435.766 139.587 434.851 143.633 437.19 148.263C427.001 145.822 415.074 140.375 414.032 139.888C412.837 139.585 410.718 139.224 407.214 139.129C400.885 138.964 397.861 133.325 399.326 131.937Z" fill="#FFB27D"/>
<path d="M314.87 141.313C314.87 141.313 302.573 147.492 291.911 150.049C288.843 150.783 285.89 151.304 283.363 151.425C283.363 151.425 271.898 147.897 263.146 135.636C246.24 111.957 259.293 109.402 259.293 109.402C259.293 109.402 270.585 116.447 286.534 138.881C287.092 139.666 288.493 139.488 292.122 138.756C295.996 137.973 303.701 138.061 314.354 136.502C314.354 136.502 314.532 136.898 314.641 138.161C314.884 140.949 314.87 141.313 314.87 141.313Z" fill="#721991"/>
<path d="M321.753 137.049C325.458 136.326 333.358 136.268 344.717 134.624C345.683 134.324 346.625 133.951 347.535 133.508C349.969 132.289 356.458 131.479 357.838 132.776C359.218 134.073 356.377 139.349 350.455 139.511C348.856 139.541 347.26 139.672 345.678 139.905C340.587 142.247 335.363 144.291 330.034 146.026C327.174 146.934 324.185 147.782 321.329 148.421C320.183 143.323 320.975 139.351 321.753 137.049Z" fill="#DA803F"/>
<path d="M319.029 121.95L319.168 125.14L319.46 131.81L319.592 134.881H328.057L328.249 131.81L328.663 125.14L328.863 121.95H319.029Z" fill="#430A57"/>
<path d="M318.867 119.794H328.893L329.305 121.95H318.585L318.867 119.794Z" fill="#9026B5"/>
<path d="M319.168 125.14L319.46 131.81H328.249L328.663 125.14H319.168Z" fill="#9026B5"/>
<path d="M334.381 121.95L334.52 125.14L334.812 131.81L334.946 134.881H343.408L343.601 131.81L344.015 125.14L344.214 121.95H334.381Z" fill="#430A57"/>
<path d="M334.219 119.794H344.244L344.659 121.95H333.939L334.219 119.794Z" fill="#9026B5"/>
<path d="M334.52 125.14L334.812 131.81H343.6L344.015 125.14H334.52Z" fill="#9026B5"/>
<path d="M310.593 137.114H353.04V134.879H310.593V137.114Z" fill="#1C468A"/>
<path d="M291.911 150.049C294.25 145.417 293.335 141.373 292.122 138.756C295.996 137.973 303.764 137.633 314.412 136.069C314.411 136.075 314.411 136.082 314.412 136.088C315.915 135.703 317.376 135.172 318.775 134.501C321.373 133.202 328.302 132.336 329.775 133.723C331.248 135.11 328.214 140.738 321.901 140.903C318.4 140.998 316.281 141.366 315.086 141.665C314.027 142.158 302.094 147.608 291.911 150.049Z" fill="#E49963"/>
<path d="M400.176 190.613C405.01 190.613 408.963 194.992 408.963 200.34C408.963 205.693 405.01 210.068 400.176 210.068H49.142C46.5624 210.068 44.0884 209.043 42.2644 207.219C40.4403 205.394 39.4155 202.92 39.4155 200.34C39.4155 197.76 40.4403 195.286 42.2644 193.462C44.0884 191.638 46.5624 190.613 49.142 190.613H400.176Z" fill="#430A57"/>
<path d="M156.33 110.632L156.192 107.443L155.9 100.775L155.765 97.7011H147.303L147.111 100.775L146.697 107.443L146.497 110.632H156.33Z" fill="#430A57"/>
<path d="M156.493 112.788H146.467L146.053 110.632H156.775L156.493 112.788Z" fill="#9026B5"/>
<path d="M156.192 107.443L155.9 100.775H147.111L146.697 107.443H156.192Z" fill="#E57970"/>
<path d="M156.33 108.279L156.192 105.087L155.9 98.4191L155.765 95.348H147.303L147.111 98.4191L146.697 105.087L146.497 108.279H156.33Z" fill="#430A57"/>
<path d="M156.493 110.433H146.467L146.053 108.279H156.775L156.493 110.433Z" fill="#9026B5"/>
<path d="M156.192 105.087L155.9 98.4191H147.111L146.697 105.087H156.192Z" fill="#E57970"/>
<path d="M156.33 105.868L156.192 102.676L155.9 96.0081L155.765 92.937H147.303L147.111 96.0081L146.697 102.676L146.497 105.868H156.33Z" fill="#430A57"/>
<path d="M156.493 108.022H146.467L146.053 105.868H156.775L156.493 108.022Z" fill="#9026B5"/>
<path d="M156.192 102.676L155.9 96.0081H147.111L146.697 102.676H156.192Z" fill="#E57970"/>
<path d="M156.33 103.445L156.192 100.253L155.9 93.5855L155.765 90.5144H147.303L147.111 93.5855L146.697 100.253L146.497 103.445H156.33Z" fill="#430A57"/>
<path d="M156.493 105.599H146.467L146.053 103.445H156.775L156.493 105.599Z" fill="#9026B5"/>
<path d="M156.192 100.253L155.9 93.5855H147.111L146.697 100.253H156.192Z" fill="#E57970"/>
<path d="M156.33 101.011L156.192 97.8193L155.9 91.1513L155.765 88.0802H147.303L147.111 91.1513L146.697 97.8193L146.497 101.011H156.33Z" fill="#430A57"/>
<path d="M156.493 103.165H146.467L146.053 101.011H156.775L156.493 103.165Z" fill="#9026B5"/>
<path d="M156.192 97.8193L155.9 91.1513H147.111L146.697 97.8193H156.192Z" fill="#E57970"/>
<path d="M156.33 98.5975L156.192 95.4083L155.9 88.7403L155.765 85.6692H147.303L147.111 88.7403L146.697 95.4083L146.497 98.5975H156.33Z" fill="#430A57"/>
<path d="M156.493 100.754H146.467L146.053 98.5975H156.775L156.493 100.754Z" fill="#9026B5"/>
<path d="M156.192 95.4082L155.9 88.7403H147.111L146.697 95.4082H156.192Z" fill="#9026B5"/>
<path d="M144.858 110.632L144.719 107.443L144.427 100.775L144.293 97.7011H135.831L135.638 100.775L135.224 107.443L135.025 110.632H144.858Z" fill="#430A57"/>
<path d="M145.02 112.788H134.995L134.58 110.632H145.302L145.02 112.788Z" fill="#9026B5"/>
<path d="M144.719 107.443L144.427 100.775H135.638L135.224 107.443H144.719Z" fill="#E57970"/>
<path d="M144.858 108.198L144.719 105.008L144.427 98.3404L144.293 95.267H135.831L135.638 98.3404L135.224 105.008L135.025 108.198H144.858Z" fill="#430A57"/>
<path d="M145.02 110.354H134.995L134.58 108.198H145.302L145.02 110.354Z" fill="#9026B5"/>
<path d="M144.719 105.008L144.427 98.3404H135.638L135.224 105.008H144.719Z" fill="#E57970"/>
<path d="M144.858 105.787L144.719 102.597L144.427 95.9271L144.293 92.856H135.831L135.638 95.9271L135.224 102.597L135.025 105.787H144.858Z" fill="#430A57"/>
<path d="M145.02 107.943H134.995L134.58 105.787H145.302L145.02 107.943Z" fill="#9026B5"/>
<path d="M144.719 102.597L144.427 95.9271H135.638L135.224 102.597H144.719Z" fill="#9026B5"/>
<path d="M91.3782 187.386H169.042V133.987H91.3782V187.386Z" fill="#365DA4"/>
<path d="M88.6293 138.842H171.631V129.133H88.6293V138.842Z" fill="#163560"/>
<path d="M88.6293 190.62H171.631V180.911H88.6293V190.62Z" fill="#163560"/>
<path d="M155.696 138.839V143.914L170.316 149.414C170.588 149.524 170.835 149.686 171.044 149.892C171.254 150.097 171.42 150.342 171.535 150.612C171.649 150.882 171.71 151.172 171.712 151.465C171.715 151.758 171.66 152.049 171.55 152.321C171.44 152.593 171.278 152.841 171.073 153.05C170.867 153.259 170.622 153.426 170.353 153.54C170.083 153.655 169.793 153.715 169.5 153.718C169.206 153.721 168.916 153.665 168.644 153.556L155.393 147.807C155.005 149.072 154.265 150.201 153.258 151.06C152.251 151.918 151.02 152.472 149.71 152.655V154.607C149.71 154.84 149.617 155.064 149.452 155.229C149.287 155.394 149.063 155.487 148.829 155.487C148.596 155.487 148.372 155.394 148.207 155.229C148.042 155.064 147.949 154.84 147.949 154.607V152.675C146.26 152.478 144.702 151.666 143.57 150.396C142.438 149.126 141.812 147.484 141.81 145.783V138.835L155.696 138.839Z" fill="#163560"/>
<path d="M104.727 138.839V143.914L90.1045 149.414C89.8326 149.524 89.585 149.686 89.3758 149.892C89.1667 150.097 89 150.342 88.8854 150.612C88.7708 150.882 88.7104 151.172 88.7078 151.465C88.7052 151.758 88.7604 152.049 88.8702 152.321C88.9799 152.593 89.1422 152.841 89.3477 153.05C89.5532 153.259 89.7978 153.426 90.0677 153.54C90.3376 153.655 90.6274 153.715 90.9206 153.718C91.2138 153.721 91.5046 153.665 91.7765 153.556L105.028 147.814C105.415 149.08 106.156 150.208 107.163 151.067C108.171 151.926 109.402 152.479 110.713 152.662V154.614C110.713 154.847 110.806 155.071 110.971 155.236C111.136 155.401 111.36 155.494 111.593 155.494C111.827 155.494 112.05 155.401 112.215 155.236C112.38 155.071 112.473 154.847 112.473 154.614V152.675C114.162 152.477 115.72 151.666 116.851 150.395C117.982 149.125 118.608 147.484 118.61 145.783V138.835L104.727 138.839Z" fill="#163560"/>
<path d="M98.7611 129.13H161.499V112.788H98.7611V129.13Z" fill="#365DA4"/>
<path d="M166.68 137.595H168.326V130.311H166.68V137.595Z" fill="#365DA4"/>
<path d="M163.602 137.595H165.249V130.311H163.602V137.595Z" fill="#365DA4"/>
<path d="M160.675 137.595H162.322V130.311H160.675V137.595Z" fill="#365DA4"/>
<path d="M368.38 210.086H272.277L80.0005 308.281V318.664L368.38 227.955V210.086Z" fill="#9026B5"/>
<path d="M80.0005 318.664L368.38 243.118V259.402L80.0005 318.664Z" fill="#9026B5"/>
<path d="M80.0005 308.281L222.682 210.086H166.881L80.0005 308.281Z" fill="#9026B5"/>
<path d="M589.001 319.099H19.4322C19.2979 319.098 19.1692 319.045 19.0742 318.95C18.9793 318.855 18.9256 318.726 18.925 318.592C18.9256 318.458 18.9793 318.329 19.0744 318.235C19.1694 318.14 19.2981 318.087 19.4322 318.087H589.001C589.135 318.087 589.263 318.14 589.358 318.235C589.453 318.329 589.507 318.458 589.508 318.592C589.507 318.726 589.453 318.855 589.358 318.95C589.263 319.045 589.135 319.098 589.001 319.099Z" fill="#283250"/>
</g>
<defs>
<clipPath id="clip0">
<rect width="625" height="320" fill="white"/>
</clipPath>
</defs>
</svg>
