<svg width="568" height="538" viewBox="0 0 568 538" fill="none" xmlns="http://www.w3.org/2000/svg">
<g clip-path="url(#clip0)">
<path opacity="0.79" d="M199.287 99.0865H24.9411C11.1665 99.0865 0 110.277 0 124.081V298.798C0 312.601 11.1665 323.792 24.9411 323.792H199.287C213.061 323.792 224.228 312.601 224.228 298.798V124.081C224.228 110.277 213.061 99.0865 199.287 99.0865Z" fill="url(#paint0_linear)"/>
<path opacity="0.6" d="M164.024 272.636H60.2081V277.774H164.024V272.636Z" fill="#721991"/>
<path opacity="0.6" d="M149.319 288.829H74.9126V293.966H149.319V288.829Z" fill="#721991"/>
<path opacity="0.79" d="M538.616 177.021H290.502C274.274 177.021 261.118 190.205 261.118 206.467V508.554C261.118 524.816 274.274 538 290.502 538H538.616C554.845 538 568 524.816 568 508.554V206.467C568 190.205 554.845 177.021 538.616 177.021Z" fill="url(#paint1_linear)"/>
<path d="M424.602 389.977H400.261V394.493H424.602V389.977Z" fill="#721991"/>
<path opacity="0.6" d="M449.484 431.369H307.855V440.115H449.484V431.369Z" fill="#721991"/>
<path opacity="0.6" d="M422.383 473.361H307.855V482.107H422.383V473.361Z" fill="#721991"/>
<path opacity="0.6" d="M374.997 452.367H307.855V461.113H374.997V452.367Z" fill="#721991"/>
<path d="M486.536 213.007V217.437H512.494V241.848H516.898V213.007H486.536ZM310.291 241.848H314.699V217.437H340.656V213.007H310.291V241.848ZM512.494 367.799V392.218H486.536V396.619H516.898V367.799H512.494ZM314.699 367.799H310.291V396.619H340.656V392.218H314.699V367.799Z" fill="#721991"/>
<path d="M503.158 482.75C498.024 482.75 493.006 481.225 488.737 478.366C484.469 475.508 481.142 471.445 479.177 466.692C477.212 461.939 476.698 456.709 477.7 451.663C478.701 446.617 481.174 441.982 484.804 438.344C488.434 434.706 493.059 432.229 498.094 431.225C503.129 430.221 508.349 430.737 513.092 432.705C517.835 434.674 521.889 438.008 524.741 442.286C527.593 446.564 529.115 451.593 529.115 456.738C529.107 463.634 526.37 470.246 521.504 475.123C516.638 479.999 510.04 482.742 503.158 482.75ZM503.158 435.761C499.018 435.761 494.971 436.991 491.529 439.296C488.087 441.601 485.404 444.877 483.819 448.71C482.235 452.543 481.82 456.761 482.628 460.83C483.436 464.899 485.429 468.637 488.357 471.571C491.284 474.504 495.014 476.502 499.075 477.312C503.135 478.121 507.344 477.706 511.169 476.118C514.994 474.53 518.263 471.842 520.563 468.392C522.863 464.942 524.09 460.887 524.09 456.738C524.084 451.176 521.876 445.845 517.952 441.912C514.028 437.98 508.708 435.768 503.158 435.761Z" fill="#2CBC29"/>
<path d="M501.505 466.975L489.712 455.157L493.262 451.6L501.505 459.856L513.055 448.281L516.604 451.843L501.505 466.975Z" fill="#2CBC29"/>
<path d="M169.844 186.594C164.866 173.388 152.907 167.342 147.262 165.451C145.255 164.782 141.663 163.61 137.88 162.384L123.613 157.774H100.092C100.092 157.774 91.9467 160.509 83.2872 163.551C75.3122 166.35 66.9121 169.409 64.0808 170.836C58.1676 173.792 48.22 194.944 46.2263 197.368C45.189 198.616 40.5723 206.851 36.0237 216.057H61.3644C64.0426 211.448 66.1043 207.869 66.1043 207.869C66.1043 207.869 67.707 211.392 69.6497 216.057H150.845C152.121 210.642 152.928 203.826 152.928 203.826C152.928 203.826 157.277 209.752 162.026 216.057H185.407C179.71 206.502 172.649 194.049 169.844 186.594Z" fill="#7A1D9B"/>
<path d="M114.656 92.9987C114.656 92.9987 133.05 95.9042 130.249 124.741C127.448 153.578 111.213 151.235 110.129 151.188C109.045 151.141 93.8342 151.716 92.6481 116.506C92.6481 116.506 92.1295 90.4682 114.656 92.9987Z" fill="#EEA886"/>
<path d="M130.534 116.596C130.534 116.596 132.545 114.44 133.284 116.625C134.024 118.811 130.538 128.554 130.41 128.98C130.41 128.98 130.045 129.832 129.56 129.359C129.076 128.886 130.534 116.596 130.534 116.596Z" fill="#EEA886"/>
<path d="M93.1412 116.234C93.1412 116.234 91.1687 114.04 90.3908 116.204C89.6128 118.368 92.8776 128.17 93.0222 128.63C93.0222 128.63 93.375 129.483 93.8724 129.027C94.3698 128.571 93.1412 116.234 93.1412 116.234Z" fill="#EEA886"/>
<path d="M130.508 121.022L127.873 124.549C127.873 124.549 127.949 116.813 127.524 115.603C127.099 114.393 126.457 110.683 126.104 109.809C125.751 108.936 110.307 104.599 96.6696 111.087C96.6696 111.087 97.269 116.651 95.9597 117.145C94.6503 117.639 95.2965 126.202 95.2965 126.202L93.1285 123.757C93.1285 123.757 89.8169 101.566 90.6331 99.2569C91.4493 96.9479 94.0594 83.0385 122.044 91.2947C122.044 91.2947 130.768 89.4415 132.519 95.4781C134.27 101.515 130.508 121.022 130.508 121.022Z" fill="#434343"/>
<path d="M125.896 157.259C125.896 157.233 123.536 156.096 123.536 156.096C122.389 153.54 123.239 142.693 123.239 142.693C123.239 142.693 99.8154 136.729 100.483 141.287C101.15 145.846 98.4678 156.471 98.4678 156.471L86.45 162.435C86.45 162.435 99.2543 196.887 113.967 192.443C128.68 188 134.241 161.191 134.241 161.191L125.896 157.259Z" fill="#EEA886"/>
<path d="M100.823 146.366C100.823 146.366 104.577 151.235 111.145 151.235C115.455 151.235 118.55 150.025 122.844 145.829C122.844 145.829 120.982 153.795 111.174 154.536C111.174 154.549 104.067 155.452 100.823 146.366Z" fill="#A77860"/>
<path opacity="0.79" d="M390.496 15.8732H266.76C255.436 15.8732 246.257 25.0723 246.257 36.4199V144.014C246.257 155.361 255.436 164.561 266.76 164.561H390.496C401.82 164.561 410.999 155.361 410.999 144.014V36.4199C410.999 25.0723 401.82 15.8732 390.496 15.8732Z" fill="url(#paint2_linear)"/>
<path d="M334.535 136.439H321.467V138.863H334.535V136.439Z" fill="#721991"/>
<path d="M339.815 2.85428C339.815 2.85428 350.345 8.64381 347.003 22.8769C343.662 37.11 342.386 39.0015 345.103 44.757C347.819 50.5124 350.204 74.6333 347.309 79.0468C344.414 83.4603 315.048 57.5246 311.787 36.7735C308.527 16.0224 315.855 7.24222 318.474 3.93636C321.093 0.630489 330.53 -2.43681 339.815 2.85428Z" fill="#344052"/>
<path d="M359.582 120.583H348.313C347.768 115.015 347.263 111.134 347.365 110.563C347.53 109.613 336.15 79.6986 335.087 77.2235C334.025 74.7483 329.846 68.1196 329.302 61.887C328.758 55.6544 336.881 53.1154 336.881 53.1154C347.858 55.0665 351.565 70.2922 351.565 70.2922C351.565 70.2922 356.173 101.14 358.507 109.822C359.115 112.042 359.438 115.974 359.582 120.583Z" fill="#EEA886"/>
<path d="M353.911 77.7134L337.111 84.8023C337.111 84.8023 321.684 46.461 334.616 50.7212C347.547 54.9813 353.32 63.0202 353.911 77.7134Z" fill="#711890"/>
<path d="M351.13 95.988C350.633 99.8281 348.59 113.432 349.044 117.104C349.122 117.71 349.373 119.106 349.754 121H308.552C309.647 117.134 310.647 113.698 311.248 111.683C313.252 105.094 311.335 103.333 310.322 98.0627C309.928 96.0009 308.548 92.0835 307.037 87.6593C306.531 86.1816 306.011 84.6525 305.514 83.0933C303.7 77.5179 302.869 71.8179 302.337 68.4976C299.84 52.7679 312.045 51.2559 312.045 51.2559C316.572 50.4269 324.509 48 324.509 48L336.883 50.5772C337.918 51.0268 338.892 51.604 339.782 52.2954C340.777 53.0272 341.709 53.8389 342.57 54.7223C343.924 56.1011 346.621 60.0528 349.308 64.3955C350.131 65.727 350.962 67.093 351.741 68.4374C354.259 72.7672 356.069 76.2593 355.995 80.1939C355.921 84.1284 351.628 92.1479 351.13 95.988Z" fill="#711890"/>
<path d="M336.18 50.7254C336.18 50.7254 343.806 63.787 340.971 64.7838C338.135 65.7807 323.184 62.4621 317.343 50.1204C317.343 50.0991 327.155 45.6302 336.18 50.7254Z" fill="#EEA886"/>
<path d="M335.087 56.6896C335.087 56.6896 328.311 59.5609 322.177 50.1034C322.177 50.1034 323.826 39.3636 320.34 33.1524C316.855 26.9411 335.572 40.5991 335.572 40.5991C335.572 40.5991 335.27 41.8771 334.956 43.7686C334.798 44.7399 334.633 45.8646 334.505 47.0574C334.399 48.0543 334.318 49.0981 334.284 50.1418C334.203 52.5573 334.377 54.9557 335.087 56.6896Z" fill="#EEA886"/>
<path d="M318.262 71.3232C316.867 78.51 306.86 87.5117 306.86 87.5117C306.367 86.042 305.857 84.5296 305.368 82.9874C312.272 78.5782 318.262 71.3232 318.262 71.3232Z" fill="#393D63"/>
<path d="M315.753 77.0445C315.12 79.6645 312.2 106.201 312.518 107.104C312.705 107.624 314.117 113.763 315.532 120.583H302.469C301.13 116.187 300.343 112.54 300.53 110.47C301.381 101.523 298.337 72.9803 298.337 72.9803C298.337 72.9803 295.625 55.7225 309.904 53.5669C309.904 53.5669 318.351 54.6831 318.861 60.9284C319.371 67.1738 316.387 74.4288 315.753 77.0445Z" fill="#EEA886"/>
<path d="M297.282 80.7082L315.005 84.8619C315.005 84.8619 329.076 57.482 316.404 52.4848C303.06 47.215 294.081 65.7765 297.282 80.7082Z" fill="#711890"/>
<path d="M338.178 4.37086C338.178 4.37086 353.592 10.0411 343.823 36.6968C334.054 63.3525 314.108 32.147 317.131 15.7625C320.153 -0.622019 338.178 4.37086 338.178 4.37086Z" fill="#EEA987"/>
<path d="M346.187 20.5764C346.187 20.5764 338.05 27.8527 324.995 28.1936C324.995 28.1936 321.943 35.6488 321.45 37.9365C321.45 37.9365 308.548 15.7412 323.38 4.52849C338.212 -6.68419 351.662 15.9244 346.187 20.5764Z" fill="#344052"/>
<path d="M326.755 29.7911C326.755 27.8186 325.748 23.2773 322.768 24.3935C319.788 25.5096 322.457 34.7839 324.421 34.3153C324.421 34.3153 326.777 34.4644 326.755 29.7911Z" fill="#EEA987"/>
<path d="M334.301 49.686C327.074 47.6752 324.256 40.7397 324.171 40.5267C330.063 48.1523 334.505 47.0575 334.505 47.0575C334.399 48.0543 334.39 48.6763 334.301 49.686Z" fill="#A77860"/>
<path d="M367.783 42.7803V45.1574H381.713V58.2616H384.081V42.7803H367.783ZM273.17 58.2573H275.538V45.1574H289.469V42.7845H273.17V58.2573ZM381.713 125.87V138.978H367.783V141.351H384.081V125.87H381.713ZM275.538 125.87H273.17V141.351H289.469V138.978H275.538V125.87Z" fill="#721991"/>
<path d="M120.841 247.527H103.391V250.764H120.841V247.527Z" fill="#721991"/>
<path d="M164.415 122.428V125.597H183.026V143.098H186.197V122.428H164.415ZM38.0429 143.098H41.2057V125.597H59.8127V122.428H38.0429V143.098ZM183.026 233.413V250.922H164.415V254.087H186.197V233.413H183.026ZM41.2057 233.413H38.0429V254.087H59.8127V250.922H41.2057V233.413Z" fill="#721991"/>
<path d="M501.959 365.775H487.2C486.928 365.183 486.711 364.672 486.528 364.259C482.149 353.894 459.576 330.126 459.576 330.126V330.161C459.573 330.169 459.573 330.178 459.576 330.186V330.212L459.538 330.314C459.538 330.365 459.512 330.433 459.487 330.51C459.472 330.551 459.464 330.594 459.461 330.638L459.423 330.74C458.496 334.203 453.948 351.457 451.673 365.758H351.773C351.543 364.433 351.275 363.172 350.965 362.001C350.099 358.596 349.456 355.138 349.039 351.649C349.039 351.483 349.001 351.329 348.988 351.159C348.912 350.554 348.844 349.949 348.793 349.357C348.257 343.85 348.201 338.306 348.627 332.789C348.346 333.394 346.327 340.807 343.683 349.962C342.229 354.984 340.584 360.531 338.952 365.758H315.362L344.963 280.181C345.617 279.665 353.299 275.946 358.902 273.266C364.62 270.536 371.519 266.531 377.747 263.106C380.935 261.355 383.941 259.774 386.551 258.573L386.946 258.394L394.118 255.122L395.98 254.943C401.991 254.364 420.636 252.613 426.894 252.255C427.404 252.213 427.842 252.204 428.169 252.187C428.379 252.174 428.589 252.174 428.798 252.187C429.58 252.243 433.436 253.58 438.486 255.51C438.678 255.574 438.869 255.651 439.06 255.732L439.783 256C440.208 256.166 440.667 256.337 441.118 256.515C442.019 256.878 442.954 257.235 443.894 257.61L444.884 257.998C454.993 262.011 466.565 266.995 469.332 268.976C471.156 270.28 476.823 280.977 483.386 294.213C490.473 316.903 499.12 349.634 501.959 365.775Z" fill="#DECBC4"/>
<path d="M428.658 249.286C428.39 262.74 402.391 270.101 402.391 270.101C402.391 270.101 391.525 256.46 394.114 255.131C395.134 254.616 395.551 252.575 395.678 250.292C395.758 248.256 395.709 246.216 395.529 244.187C395.453 243.237 395.376 242.623 395.376 242.623C395.376 242.623 399.092 238.695 403.819 234.018C412.075 225.834 423.429 215.35 423.446 219.533C423.442 219.8 423.41 220.065 423.353 220.326C421.355 229.698 428.658 249.286 428.658 249.286Z" fill="#EEA886"/>
<path d="M418.642 229.566C418.591 229.643 417.486 231.3 415.607 233.668C411.615 238.7 404.129 246.964 395.678 250.283C395.758 248.247 395.709 246.208 395.529 244.178C394.66 244.157 393.794 244.053 392.945 243.867C394.657 240.992 396.545 238.226 398.599 235.585L403.819 234.022L418.642 229.566Z" fill="#A77860"/>
<path d="M423.633 219.704C421.384 224.607 419.25 228.16 418.642 229.566C418.247 230.482 417.176 231.977 415.607 233.669C411.322 238.295 403.355 244.396 395.529 244.183C394.66 244.161 393.794 244.057 392.945 243.872C389.786 243.177 386.054 241.707 384.017 237.677C367.795 205.854 379.541 179.829 379.541 179.829C379.541 179.829 423.888 167.262 430.826 180.643C435.681 190.032 428.934 208.184 423.633 219.704Z" fill="#EEA886"/>
<path d="M379.524 179.833C379.524 179.833 375.405 179.607 374.384 171.781C373.377 164.049 375.413 161.906 375.413 161.906C375.413 161.906 393.723 154.238 400.299 153.229C406.875 152.219 423.038 151.269 426.83 155.614C426.83 155.614 436.038 153.484 438.546 168.787C442.525 193.069 424.985 216.683 424.985 216.683C424.985 216.683 425.134 200.806 421.639 198.706C418.145 196.605 415.131 201.602 415.131 201.602L407.985 202.88C407.985 202.88 418.838 179.394 405.817 178.525C392.796 177.656 386.976 181.196 379.524 179.833Z" fill="#344052"/>
<path d="M415.331 195.272C416.011 188.281 428.632 185.61 427.787 192.942C426.941 200.273 420.725 207.315 417.856 207.068C414.987 206.821 414.808 200.606 415.331 195.272Z" fill="#EEA886"/>
<path d="M489.202 294.874C485.091 281.667 481.55 271.234 479.952 270.101C477.188 268.12 455.295 262.084 444.906 258.002L443.915 257.615C442.976 257.24 442.04 256.882 441.139 256.52C440.688 256.341 440.242 256.171 439.804 256.004L439.082 255.736C438.89 255.655 438.699 255.578 438.508 255.515C438.508 255.515 438.478 255.553 438.452 255.566C434.363 260.255 430.531 265.164 426.974 270.272C416.232 285.566 402.242 310.351 404.388 333.228C405.081 340.568 405.927 351.121 407.364 362.947C407.466 363.884 407.581 364.827 407.709 365.775H456.171C456.762 353.391 457.816 337.079 459.41 330.757L459.449 330.655C459.451 330.611 459.459 330.568 459.474 330.527C459.474 330.459 459.512 330.395 459.525 330.331L459.563 330.229V330.203C459.561 330.195 459.561 330.186 459.563 330.178C459.563 330.178 471.292 348.552 471.891 365.775H502.393C500.918 349.757 496.254 317.521 489.202 294.874Z" fill="#3C4145"/>
<path d="M386.755 258.748C386.755 258.748 383.095 270.945 378.368 301.426C378.198 302.444 378.045 303.488 377.879 304.557C377.879 304.672 377.841 304.8 377.828 304.928C377.709 305.626 377.607 306.346 377.505 307.058C377.505 307.147 377.479 307.224 377.466 307.318C377.39 307.791 377.313 308.281 377.25 308.783C377.067 309.98 376.888 311.216 376.71 312.468C374.937 324.904 372.569 344.666 370.167 365.754H351.012C349.97 359.896 348.997 354.567 349.073 350.912C349.038 350.991 349.008 351.072 348.984 351.155C347.454 355.415 345.77 360.028 344.061 364.519C343.908 364.945 343.755 365.345 343.598 365.754H310.58L343.488 279.554C344.142 279.039 352.61 274.468 358.213 271.801C364.059 269.006 371.447 265.568 377.998 262.544C381.131 261.091 384.073 259.741 386.568 258.59L386.755 258.748Z" fill="#3C4145"/>
<path d="M431.298 288.901L418.642 296.08L424.054 301.618L412.181 365.775H407.709C406.063 352.799 405.128 341.148 404.397 333.228C401.094 297.848 436.323 257.947 438.508 255.515C440.208 256.158 442.028 256.869 443.915 257.615L431.298 288.901Z" fill="#51565C"/>
<path d="M386.946 258.411C386.946 258.411 382.219 273.876 376.722 312.49C374.95 324.912 372.569 344.688 370.167 365.775H368.305L365.853 305.124L371.876 298.58L366.52 291.875L377.998 262.544C381.131 261.091 384.073 259.741 386.568 258.59L386.946 258.411Z" fill="#51565C"/>
<path d="M439.137 255.668L428.65 249.278C428.65 249.278 428.356 255.037 402.382 270.093L409.758 290.912L439.137 255.668Z" fill="#F5E2D9"/>
<path d="M395.483 252.2C395.483 252.2 395.908 258.42 402.391 270.093L387.996 288.905L386.951 258.407L395.483 252.2Z" fill="#F5E2D9"/>
<path d="M402.433 270.093C402.433 270.093 405.222 281.276 404.218 284.407C404.218 284.407 398.084 286.643 393.676 283.849C393.676 283.857 396.796 276.027 402.433 270.093Z" fill="#711890"/>
<path d="M399.049 308.123C396.107 328.209 396.107 348.526 397.2 365.775H384.906C384.74 363.343 384.583 360.808 384.43 358.154C382.143 318.386 396.171 282.848 396.171 282.848L402.429 281.28C402.429 281.28 400.414 298.853 399.049 308.123Z" fill="#711890"/>
<path d="M349.469 332.904C349.001 342.447 349.069 350.925 349.069 350.925C349.069 350.971 349.069 351.231 349.039 351.657C349.039 351.495 348.997 351.334 348.98 351.176C347.454 355.436 345.766 360.041 344.066 364.536C343.69 359.693 343.563 354.835 343.683 349.979C344.363 323.221 352.763 309.188 352.763 309.188C350.833 313.857 349.911 323.864 349.469 332.904Z" fill="#2D3133"/>
</g>
<defs>
<linearGradient id="paint0_linear" x1="128.128" y1="502.33" x2="110.547" y2="184.289" gradientUnits="userSpaceOnUse">
<stop stop-color="#EEE7F0"/>
<stop offset="1" stop-color="#F9F4FA"/>
</linearGradient>
<linearGradient id="paint1_linear" x1="299526" y1="500955" x2="299526" y2="223507" gradientUnits="userSpaceOnUse">
<stop stop-color="#EEE7F0"/>
<stop offset="1" stop-color="#F9F4FA"/>
</linearGradient>
<linearGradient id="paint2_linear" x1="127599" y1="65069.5" x2="127599" y2="17998.1" gradientUnits="userSpaceOnUse">
<stop stop-color="#EEE7F0"/>
<stop offset="1" stop-color="#F9F4FA"/>
</linearGradient>
<clipPath id="clip0">
<rect width="568" height="538" fill="white"/>
</clipPath>
</defs>
</svg>
