<svg width="28" height="28" viewBox="0 0 28 28" fill="none" xmlns="http://www.w3.org/2000/svg">
<path d="M17.1664 20.6008C19.425 16.8547 22.2797 11.5883 22.2797 8.88125C22.2797 4.31484 18.5664 0.601562 14 0.601562C9.4336 0.601562 5.72032 4.31484 5.72032 8.88125C5.72032 11.5883 8.57501 16.8547 10.8336 20.6008C8.15391 20.8031 2.05626 21.5305 2.05626 23.9422C2.05626 26.3156 8.24688 27.3984 14.0055 27.3984C19.7586 27.3984 25.9547 26.3156 25.9547 23.9422C25.9492 21.5305 19.8461 20.8031 17.1664 20.6008ZM6.86329 8.88125C6.86329 4.94375 10.068 1.73906 14 1.73906C17.9375 1.73906 21.1422 4.94375 21.1422 8.88125C21.1422 12.3211 15.6625 20.9508 14 23.4883C12.3375 20.9508 6.86329 12.3211 6.86329 8.88125ZM14 26.2555C7.00548 26.2555 3.19376 24.7242 3.19376 23.9367C3.19376 23.3297 5.70938 22.0227 11.5063 21.6891C12.5945 23.4445 13.4203 24.6859 13.5297 24.8336C13.6774 25.0305 14.1094 25.2656 14.4758 24.8336C14.5906 24.6969 15.4109 23.4445 16.4992 21.6891C22.2961 22.0227 24.8117 23.3242 24.8117 23.9367C24.8063 24.7297 20.9945 26.2555 14 26.2555Z" fill="#7D1E9E"/>
<path d="M17.6039 8.88125C17.6039 6.89062 15.9906 5.27734 14 5.27734C12.0094 5.27734 10.3961 6.89062 10.3961 8.88125C10.3961 10.8719 12.0094 12.4852 14 12.4852C15.9906 12.4852 17.6039 10.8719 17.6039 8.88125ZM11.5336 8.88125C11.5336 7.51953 12.6383 6.41484 14 6.41484C15.3617 6.41484 16.4664 7.51953 16.4664 8.88125C16.4664 10.243 15.3617 11.3477 14 11.3477C12.6383 11.3477 11.5336 10.243 11.5336 8.88125Z" fill="#7D1E9E"/>
</svg>
