<svg width="21" height="21" viewBox="0 0 21 21" fill="none" xmlns="http://www.w3.org/2000/svg">
<g clip-path="url(#clip0)">
<path d="M19.9231 3.44434H1.07695C0.4846 3.44434 0 3.92126 0 4.50419V16.1628C0 16.7457 0.4846 17.2227 1.07695 17.2227H19.9231C20.5154 17.2227 21 16.7458 21 16.1628V4.50419C21 3.92126 20.5154 3.44434 19.9231 3.44434ZM19.5189 4.23919L11.1195 10.4395C10.9685 10.5526 10.7367 10.6234 10.5 10.6223C10.2633 10.6234 10.0315 10.5526 9.88046 10.4395L1.48103 4.23919H19.5189ZM15.0322 10.8486L19.6092 16.413C19.6138 16.4185 19.6194 16.4228 19.6243 16.4278H1.37575C1.38059 16.4225 1.38625 16.4185 1.39084 16.413L5.96777 10.8486C6.10801 10.678 6.08143 10.4278 5.90773 10.2895C5.73435 10.1515 5.48018 10.1777 5.33991 10.3483L0.80768 15.8583V4.73601L9.39611 11.0754C9.71894 11.312 10.1117 11.4161 10.4999 11.4172C10.8876 11.4164 11.2807 11.3122 11.6037 11.0754L20.1922 4.73601V15.8583L15.6601 10.3483C15.5198 10.1777 15.2654 10.1515 15.0922 10.2895C14.9186 10.4275 14.8919 10.678 15.0322 10.8486Z" fill="#7D1E9E"/>
</g>
<defs>
<clipPath id="clip0">
<rect width="21" height="20.6675" fill="white"/>
</clipPath>
</defs>
</svg>
