<svg width="21" height="21" viewBox="0 0 21 21" fill="none" xmlns="http://www.w3.org/2000/svg">
<g clip-path="url(#clip0)">
<path d="M20.305 3.69891L20.3043 3.69713C20.0477 3.01836 19.6535 2.41148 19.1372 1.90707L19.1345 1.90437L19.1345 1.90434C18.6295 1.39154 18.0182 0.993202 17.3481 0.741L17.3465 0.74037C16.6999 0.490397 15.9584 0.313836 14.8623 0.265508L14.8616 0.265478C13.7423 0.21234 13.3891 0.2 10.539 0.2C7.68889 0.2 7.33539 0.212337 6.21978 0.261341L20.305 3.69891ZM20.305 3.69891C20.5547 4.34119 20.7313 5.08652 20.7797 6.18283L20.305 3.69891ZM3.73419 0.736752L3.73419 0.736743C3.05527 0.993265 2.44839 1.38753 1.94398 1.90379L1.94128 1.90655L1.94125 1.90653C1.42847 2.41145 1.03027 3.02278 0.777897 3.69291L0.777286 3.69453L0.777279 3.69453C0.527306 4.34123 0.350747 5.08259 0.302419 6.1787L0.302389 6.17937C0.249251 7.29876 0.236911 7.6519 0.236911 10.5021C0.236911 13.3521 0.249248 13.7056 0.298252 14.8212L3.73419 0.736752ZM3.73419 0.736752L3.73596 0.736065M3.73419 0.736752L3.73596 0.736065M3.73596 0.736065C4.37811 0.486449 5.12345 0.309681 6.21974 0.261343L3.73596 0.736065ZM0.773126 17.3052L0.773818 17.307C1.03013 17.9852 1.4283 18.5925 1.94125 19.0976L1.94344 19.0998C2.44838 19.6126 3.0597 20.0109 3.72978 20.2631L3.73144 20.2637C4.37814 20.5137 5.1195 20.6903 6.21577 20.7386C7.33121 20.7878 7.68483 20.7999 10.535 20.7999C13.3851 20.7999 13.7385 20.7878 14.8541 20.7386C15.9505 20.6903 16.6958 20.5136 17.3379 20.2639L17.3383 20.2637C18.6971 19.7384 19.7713 18.6641 20.2966 17.3055C20.5465 16.6588 20.7232 15.9173 20.7715 14.8213C20.7715 14.8213 20.7715 14.8212 20.7715 14.8212L20.9713 14.83L0.773126 17.3052ZM0.773126 17.3052C0.523359 16.6629 0.346592 15.9176 0.298254 14.8213L0.773126 17.3052ZM19.2882 14.7568C19.242 15.8044 19.0651 16.3797 18.9139 16.7686L19.2882 14.7569C19.2882 14.7568 19.2882 14.7568 19.2882 14.7568ZM19.2882 14.7568C19.3376 13.6449 19.3499 13.3132 19.3499 10.5102C19.3499 7.70718 19.3376 7.37156 19.2882 6.25961M19.2882 14.7568L16.8086 2.14314M16.8086 2.14314C17.2896 2.32102 17.7284 2.60303 18.0856 2.97264C18.4539 3.33295 18.736 3.76702 18.9143 4.24884C19.0655 4.63785 19.2421 5.217 19.2882 6.25961M16.8086 2.14314C16.4197 1.99204 15.8445 1.81546 14.798 1.76933L16.8086 2.14314ZM19.2882 6.25961L19.0884 6.26844L19.2882 6.25957C19.2882 6.25958 19.2882 6.25959 19.2882 6.25961ZM3.00466 18.0478C3.36181 18.4174 3.80062 18.6994 4.28159 18.8774L6.29648 1.76933C5.25415 1.81545 4.67486 1.992 4.28585 2.14315C3.80415 2.32122 3.37018 2.6032 3.01008 2.97137C2.63595 3.32895 2.35391 3.76783 2.17591 4.2489C2.02479 4.6378 1.8482 5.21295 1.80224 6.25959C1.75268 7.36741 1.7405 7.70727 1.7405 10.5102C1.7405 13.3132 1.75268 13.649 1.80223 14.761C1.84819 15.8034 2.02475 16.3827 2.1759 16.7717C2.3542 17.2534 2.6363 17.6875 3.00466 18.0478ZM10.5471 1.7076C7.74425 1.7076 7.40847 1.71994 6.29651 1.76933L14.7979 1.76933C13.69 1.71994 13.3543 1.7076 10.5471 1.7076Z" fill="#7D1E9E" stroke="white" stroke-width="0.4"/>
<path d="M5.34433 10.502C5.34433 7.63411 7.67117 5.30742 10.5389 5.30742C13.4069 5.30742 15.7335 7.63411 15.7335 10.502C15.7335 13.3699 13.4069 15.6966 10.5389 15.6966C7.67117 15.6966 5.34433 13.3699 5.34433 10.502ZM6.83959 10.502C6.83959 12.5448 8.49637 14.2014 10.5389 14.2014C12.5817 14.2014 14.2383 12.5448 14.2383 10.502C14.2383 8.45929 12.5817 6.80268 10.5389 6.80268C8.49637 6.80268 6.83959 8.45929 6.83959 10.502Z" fill="#7D1E9E" stroke="white" stroke-width="0.4"/>
<path d="M17.2064 4.89416C17.2064 5.47917 16.732 5.95355 16.1468 5.95355C15.5618 5.95355 15.0875 5.47918 15.0875 4.89416C15.0875 4.30899 15.5618 3.83477 16.1468 3.83477C16.7321 3.83477 17.2064 4.30901 17.2064 4.89416Z" fill="#7D1E9E" stroke="white" stroke-width="0.4"/>
</g>
<defs>
<clipPath id="clip0">
<rect width="21" height="21" fill="white"/>
</clipPath>
</defs>
</svg>
