<svg width="13" height="13" viewBox="0 0 13 13" fill="none" xmlns="http://www.w3.org/2000/svg">
<g clip-path="url(#clip0)">
<path d="M6.49249 0.000976563C6.25946 0.000976563 6.0266 0.0135035 5.79491 0.038476C5.58255 0.0601677 5.37279 0.095742 5.16585 0.138908C5.1258 0.147287 5.08573 0.156126 5.04568 0.165372C3.82642 0.442971 2.71309 1.06636 1.83922 1.96079C1.75796 2.04409 1.6784 2.12985 1.60061 2.21805C-0.759985 4.9281 -0.476692 9.03867 2.23338 11.3993C4.82792 13.6592 8.73337 13.5089 11.1465 11.0561C11.2279 10.9728 11.3074 10.887 11.3851 10.7988C12.4268 9.61247 13.0009 8.0873 13 6.50845C13 2.91444 10.0865 0.000949448 6.49249 0.000976563ZM2.12837 2.28617C2.16264 2.25059 2.19821 2.21654 2.23314 2.18205C2.27348 2.14235 2.31361 2.10244 2.35483 2.06404C2.39105 2.0302 2.42836 1.99767 2.46546 1.9647C2.50732 1.9276 2.54897 1.89051 2.59192 1.85472C2.62966 1.82283 2.66849 1.79225 2.7071 1.76144C2.75048 1.72674 2.79387 1.69203 2.83855 1.65863C2.87803 1.62891 2.91816 1.60006 2.95851 1.57186C3.00341 1.53976 3.04853 1.50678 3.0943 1.47685C3.13529 1.44908 3.17673 1.42219 3.21837 1.39551C3.26479 1.36579 3.31143 1.3365 3.3585 1.30874C3.40088 1.28344 3.44353 1.25855 3.48648 1.23412C3.5345 1.20679 3.58271 1.18011 3.63117 1.15408C3.67455 1.13095 3.71793 1.10831 3.76132 1.08618C3.81077 1.06124 3.86066 1.03716 3.91077 1.01352C3.95415 0.992909 3.99927 0.972302 4.04396 0.952779C4.09493 0.931088 4.14656 0.909396 4.19819 0.887704C4.24309 0.869266 4.28777 0.851262 4.33311 0.833909C4.3856 0.813953 4.43875 0.795298 4.49189 0.776643C4.53723 0.760808 4.58256 0.744973 4.62855 0.730006C4.68256 0.712653 4.73701 0.696601 4.79167 0.680766C4.83744 0.667534 4.88277 0.653868 4.92876 0.641504C4.94633 0.636949 4.9639 0.633261 4.98147 0.628706C4.3394 1.25215 3.86291 2.02589 3.59516 2.87987C3.08031 2.74408 2.58189 2.55227 2.10885 2.30786C2.116 2.30027 2.12208 2.29267 2.12837 2.28617ZM1.81644 2.6354C2.3375 2.91772 2.89004 3.13762 3.46262 3.29049C3.18193 4.26651 3.03459 5.27601 3.02467 6.29153H0.423837C0.471098 4.95237 0.960814 3.66665 1.81644 2.6354ZM1.81644 10.3815C0.960868 9.35022 0.471152 8.0645 0.423837 6.72536H3.02467C3.03459 7.74089 3.1819 8.75039 3.46262 9.7264C2.89007 9.87933 2.33753 10.0992 1.81644 10.3815ZM4.92746 12.3763C4.88364 12.3652 4.83831 12.3509 4.79319 12.3376C4.73831 12.3216 4.68321 12.3055 4.62898 12.288C4.58321 12.2732 4.53809 12.2574 4.49298 12.2416C4.43961 12.2231 4.38625 12.2042 4.33354 12.1841C4.28842 12.1669 4.24396 12.1489 4.19927 12.1307C4.14743 12.109 4.09558 12.0873 4.04417 12.0656C3.99992 12.0461 3.95589 12.026 3.91207 12.0053C3.86153 11.9815 3.81121 11.9572 3.76023 11.932C3.71685 11.9103 3.67346 11.8886 3.63008 11.865C3.58106 11.8387 3.53247 11.8118 3.48388 11.7841C3.4405 11.76 3.39928 11.7353 3.35742 11.7101C3.3097 11.6815 3.26284 11.652 3.21599 11.6218C3.17477 11.5956 3.13356 11.5689 3.093 11.5416C3.04679 11.5103 3.00102 11.4778 2.95569 11.4453C2.91599 11.4168 2.8763 11.3884 2.83725 11.3585C2.79235 11.3246 2.74832 11.2897 2.7045 11.2546C2.6661 11.224 2.62793 11.1936 2.5904 11.1622C2.54702 11.1262 2.50515 11.0886 2.46307 11.0513C2.42619 11.0186 2.3891 10.9863 2.35309 10.9529C2.31166 10.9142 2.27153 10.8741 2.23119 10.8344C2.19626 10.7999 2.16069 10.7659 2.12642 10.7305C2.12012 10.7238 2.11405 10.7168 2.10776 10.7103C2.58077 10.4658 3.07919 10.2739 3.59407 10.1381C3.86188 10.9921 4.33834 11.7658 4.98039 12.3893C4.96282 12.3847 4.94503 12.381 4.92746 12.3763ZM6.2756 12.565C5.34741 12.4331 4.53376 11.4643 4.02183 10.0338C4.76195 9.86805 5.51723 9.77914 6.2756 9.76849V12.565ZM6.2756 9.33465C5.47111 9.34523 4.67001 9.44078 3.88561 9.61968C3.61324 8.67862 3.46956 7.70499 3.4585 6.72536H6.2756V9.33465ZM6.2756 6.29153H3.4585C3.46954 5.31191 3.61322 4.33828 3.88561 3.39721C4.67001 3.57609 5.47113 3.67164 6.2756 3.68224V6.29153ZM6.2756 3.24841C5.5172 3.23783 4.76195 3.14892 4.02183 2.98312C4.53376 1.55255 5.34741 0.583804 6.2756 0.451919V3.24841ZM11.1686 2.6354C12.0242 3.66668 12.5139 4.9524 12.5612 6.29153H9.96036C9.95043 5.27601 9.80312 4.26651 9.5224 3.29049C10.095 3.13754 10.6475 2.91766 11.1686 2.6354ZM8.05583 0.64042C8.10138 0.651699 8.14672 0.666016 8.19184 0.679248C8.24672 0.695299 8.30181 0.711351 8.35604 0.728921C8.40181 0.743672 8.44693 0.759507 8.49205 0.775342C8.54541 0.79378 8.59877 0.812651 8.65148 0.832825C8.6966 0.849961 8.74107 0.867965 8.78575 0.886186C8.8376 0.907878 8.88944 0.929569 8.94085 0.951261C8.9851 0.970783 9.02913 0.990875 9.07295 1.01156C9.12349 1.03542 9.17382 1.05972 9.22479 1.08488C9.26818 1.10657 9.31156 1.12826 9.35494 1.15191C9.40397 1.17816 9.45256 1.20505 9.50115 1.23282C9.54453 1.2569 9.58574 1.28162 9.62761 1.30679C9.67533 1.33542 9.72218 1.36492 9.76904 1.39507C9.81025 1.42132 9.85147 1.448 9.89203 1.47533C9.93823 1.50657 9.98378 1.53889 10.0291 1.57143C10.069 1.59984 10.1087 1.62847 10.148 1.65819C10.1927 1.69181 10.2365 1.72674 10.2805 1.76188C10.3187 1.79225 10.3571 1.82261 10.3946 1.85428C10.438 1.89029 10.4799 1.92782 10.522 1.96513C10.5588 1.99788 10.5959 2.0302 10.6319 2.06361C10.6734 2.10222 10.7135 2.14235 10.7538 2.18205C10.7888 2.21654 10.8243 2.25059 10.8586 2.28595C10.8649 2.29267 10.871 2.29961 10.8773 2.30612C10.4043 2.55064 9.90583 2.74253 9.39095 2.87835C9.12263 2.02429 8.64555 1.25063 8.0029 0.627405C8.02047 0.63196 8.03826 0.635647 8.05583 0.64042ZM6.70943 0.451919C7.63761 0.583804 8.45127 1.55255 8.96319 2.98312C8.22307 3.14884 7.4678 3.23775 6.70943 3.24841V0.451919ZM6.70943 3.68224C7.51392 3.67167 8.31502 3.57611 9.09942 3.39721C9.37178 4.33828 9.51546 5.31191 9.52652 6.29153H6.70943V3.68224ZM6.70943 6.72536H9.52652C9.51549 7.70499 9.37181 8.67862 9.09942 9.61968C8.31502 9.44081 7.51392 9.34525 6.70943 9.33465V6.72536ZM6.70943 12.565V9.76849C7.46782 9.77906 8.22307 9.86797 8.96319 10.0338C8.45127 11.4643 7.63761 12.4331 6.70943 12.565ZM10.8567 10.7307C10.8224 10.7661 10.787 10.8001 10.7521 10.8346C10.7118 10.8743 10.6714 10.9145 10.63 10.9531C10.594 10.9867 10.5569 11.0181 10.52 11.0518C10.4779 11.0891 10.4361 11.1264 10.3931 11.1624C10.3551 11.1941 10.3165 11.2246 10.2779 11.2554C10.2345 11.2902 10.1912 11.3249 10.1465 11.3583C10.107 11.388 10.0669 11.4168 10.0265 11.445C9.98162 11.4771 9.9365 11.5101 9.89073 11.54C9.84973 11.5678 9.8083 11.5947 9.76665 11.6212C9.72023 11.6511 9.67346 11.68 9.62631 11.7079C9.58292 11.7333 9.54149 11.758 9.49876 11.7826C9.45074 11.8099 9.40245 11.8366 9.35386 11.8626C9.31048 11.8857 9.26709 11.9084 9.22371 11.9305C9.17425 11.9554 9.12436 11.9795 9.07425 12.0032C9.03087 12.0238 8.98575 12.0444 8.94107 12.0639C8.89009 12.0856 8.83846 12.1073 8.78684 12.129C8.74194 12.1472 8.69725 12.1654 8.65213 12.1826C8.59921 12.2027 8.54606 12.2216 8.4927 12.24C8.44758 12.2559 8.40246 12.2717 8.35669 12.2865C8.30246 12.304 8.24823 12.3201 8.19292 12.3359C8.14759 12.3494 8.10203 12.3628 8.05626 12.3752C8.03869 12.3797 8.02112 12.3834 8.00355 12.388C8.64563 11.7645 9.12211 10.9908 9.38987 10.1368C9.90472 10.2726 10.4031 10.4644 10.8762 10.7088C10.869 10.7166 10.8629 10.7242 10.8567 10.7307ZM11.1686 10.3815C10.6475 10.0992 10.095 9.87928 9.5224 9.7264C9.80309 8.75039 9.95043 7.74089 9.96036 6.72536H12.5612C12.514 8.0645 12.0242 9.35024 11.1686 10.3815Z" fill="black"/>
</g>
<defs>
<clipPath id="clip0">
<rect width="13" height="13" fill="white"/>
</clipPath>
</defs>
</svg>
