<svg width="27" height="39" viewBox="0 0 27 39" fill="none" xmlns="http://www.w3.org/2000/svg">
<path d="M25.8415 32.3911L23.1642 26.4428C22.208 24.3184 19.2973 23.7999 17.8745 25.4538C16.8533 26.5839 14.9791 26.6687 13.6902 25.7877C10.8599 23.7481 8.21703 18.1595 8.7181 14.7408C8.79845 13.2197 10.3513 12.1379 11.9462 12.2825C14.2296 12.5405 15.8972 10.2974 14.941 8.17296L12.2638 2.22464C11.4376 0.672405 9.55583 -0.109504 8.02974 0.465346L3.8875 2.02566C-0.315932 3.73324 -0.266277 12.9075 4.22775 22.8921C8.72179 32.8768 15.6866 39.5705 20.0469 37.928L24.1891 36.3677C25.7765 35.6456 26.5109 33.8782 25.8415 32.3911Z" fill="white"/>
</svg>
