<svg width="1040" height="1119" viewBox="0 0 1040 1119" fill="none" xmlns="http://www.w3.org/2000/svg">
<path d="M382.5 848.868C374.492 848.868 368 855.623 368 863.955C368 872.287 374.492 879.042 382.5 879.042C390.508 879.042 397 872.287 397 863.955C397 855.623 390.508 848.868 382.5 848.868Z" fill="#F8F8F8"/>
<path d="M238.5 795C230.492 795 224 801.988 224 810.607C224 819.227 230.492 826.214 238.5 826.214C246.508 826.214 253 819.227 253 810.607C253 801.988 246.508 795 238.5 795Z" fill="url(#paint0_linear)"/>
<path d="M1069.32 834.529C1119.64 749.897 1147.99 652.176 1144.59 553.552C1137.23 334.675 952.689 118.837 731.788 140.068C525.357 159.826 354.861 363.758 395.133 580.079C417.191 698.446 442.116 811.152 350.628 907.867C331.987 927.601 310.548 944.5 293.29 965.456C198.309 1080.44 417.473 1102.5 481.084 1109.65C625.394 1125.93 777.183 1096.22 901.028 1013.31C969.152 967.378 1026.67 906.278 1069.32 834.529Z" fill="url(#paint1_linear)"/>
<path d="M482.256 439.467C482.256 439.467 481.564 416.774 468.544 409.715C468.544 409.715 465.402 437.389 482.256 439.467Z" fill="url(#paint2_linear)"/>
<path d="M303.466 311.831C295.778 332.271 284.467 351.156 270.077 367.578C270.077 367.578 300.324 372.213 311.24 388.221C311.24 388.221 317.764 366.912 334.857 355.672C334.937 355.672 308.471 332.153 303.466 311.831Z" fill="#FE9083"/>
<path d="M301.282 317.557C301.282 317.557 302.72 360.52 320.932 369.47C324.961 364.263 329.672 359.623 334.937 355.672C334.937 355.672 312.172 343.181 303.466 311.857L301.282 317.557Z" fill="#CB4D7A"/>
<path d="M764.994 609.347L857.651 391.79C858.813 395.31 858.813 399.11 857.651 402.63C824.182 484.614 771.224 609.48 771.224 609.48L764.994 609.347Z" fill="#9B5ED7"/>
<path d="M857.651 391.816L570.361 402.817L479.62 611.984L764.994 609.347L857.651 391.816Z" fill="#744CA2"/>
<path d="M576.005 411.873L841.995 401.272L755.914 599.945L502.811 590.942L576.005 411.873Z" fill="#FCFCFC"/>
<path d="M538.942 346.35C534.03 354.72 528.698 362.836 522.967 370.668C510.16 389.153 499.483 397.996 496.901 401.938C494.318 405.88 479.221 440.825 479.221 440.825C474.566 437.268 471.059 432.419 469.137 426.883C467.215 421.347 466.963 415.367 468.411 409.689C470.218 406.595 471.216 403.096 471.313 399.514C470.994 394.64 456.829 373.891 456.829 366.566C456.829 359.242 472.352 341.875 476.319 332.42C480.286 322.964 486.17 309.78 488.141 309.3C490.111 308.821 494.478 318.17 493.466 325.947C492.454 333.725 481.751 340.65 478.689 345.391C475.627 350.132 476.026 352.609 476.026 352.609C476.026 352.609 490.99 345.391 496.448 339.292C499.47 336.082 502.147 332.565 504.436 328.797C511.584 326.635 514.408 329.335 514.926 330.955C515.086 332.34 519.825 329.17 522.914 330.236C525.124 331.008 530.076 333.379 530.369 337.56C530.329 338.637 529.979 339.678 529.362 340.559C529.992 339.712 530.907 339.12 531.94 338.892C532.905 338.87 533.863 339.051 534.753 339.424C535.643 339.797 536.444 340.354 537.105 341.058C537.766 341.761 538.271 342.596 538.587 343.508C538.904 344.42 539.025 345.388 538.942 346.35Z" fill="#FEB1A8"/>
<path d="M514.979 361.213L527.52 349.493C525.143 348.668 522.837 347.653 520.624 346.457C521.435 344.938 522.155 343.373 522.78 341.769L513.249 334.018C513.249 334.018 504.542 330.129 504.675 328.771C504.675 328.771 485.212 344.779 479.7 350.878C479.7 350.878 476.079 375.862 514.979 361.213Z" fill="#FE9083"/>
<path d="M488.274 309.327C488.274 309.327 484.546 325.308 491.815 330.955C492.881 329.146 493.58 327.145 493.873 325.065C494.165 322.986 494.045 320.869 493.519 318.836C491.842 311.485 488.274 309.327 488.274 309.327Z" fill="#E4688E"/>
<path d="M374.636 520.731C374.636 520.731 443.543 459.683 468.544 409.715C468.544 409.715 468.065 434.433 482.256 439.467C482.256 439.467 427.914 556.662 414.601 573.948C414.601 573.948 386.83 560.364 374.636 520.731Z" fill="url(#paint3_linear)"/>
<path d="M527.561 333.27C522.581 335.098 511.688 341.177 507.5 344.5C507.5 344.5 505.148 350.611 511.5 348.5C519.241 345.926 534.268 339.963 534.268 339.963C534.268 339.963 534.75 335.009 527.561 333.27Z" fill="#FEB1A8"/>
<path d="M517.398 330.194C512.496 333.019 503.559 340.802 500 344.5C500 344.5 499.177 349.441 505.5 346C513.205 341.806 526.889 333.165 526.889 333.165C526.889 333.165 525.856 329.355 517.398 330.194Z" fill="#FEB1A8"/>
<path d="M504.552 329.036C500.084 332.804 491.498 342.751 488.5 347.5C488.5 347.5 489.706 351.612 495.5 347C502.56 341.378 514.465 332.054 514.465 332.054C514.465 332.054 512.866 327.465 504.552 329.036Z" fill="#FEB1A8"/>
<path d="M532.474 339.506C532.474 339.506 516.892 346.375 515 348C513.108 349.625 514.546 351.544 520.5 351C523.845 350.806 534.369 348.288 536.858 345.818C536.858 345.818 539.179 338.936 532.474 339.506Z" fill="#FEB1A8"/>
<ellipse cx="601.5" cy="625.5" rx="250.5" ry="9.5" fill="#350845"/>
<ellipse cx="704" cy="638.5" rx="74" ry="5.5" fill="#350845"/>
<path d="M476.292 353.755C479.288 361.211 481.293 369.029 482.256 377.007C482.256 377.007 486.517 359.055 478.076 346.75C478.076 346.75 475.281 351.224 476.292 353.755Z" fill="#FE9083"/>
<path d="M487.741 372.213C487.741 372.213 493.918 359.322 512.21 361.559C512.21 361.453 495.489 368.325 487.741 372.213Z" fill="#FE9083"/>
<path d="M405.335 229.741C405.335 229.741 417.13 211.895 414.468 200.442C413.886 197.265 412.364 194.335 410.1 192.032C407.836 189.729 404.933 188.159 401.767 187.524C401.767 187.524 405.175 220.365 405.335 229.741Z" fill="url(#paint4_linear)"/>
<path d="M398.572 197.486C409.648 205.476 403.604 271.585 405.442 277.525C407.279 283.464 413.669 288.951 414.574 295.37C415.479 301.789 396.735 361.239 373.89 366.726C351.045 372.213 317.63 351.171 303.466 311.831C289.301 272.49 301.628 224.92 313.077 210.27C324.526 195.621 376.633 181.478 398.572 197.486Z" fill="url(#paint5_linear)"/>
<path d="M405.149 225.399L398.572 227.211C398.572 227.211 384.407 218.98 357.356 213.627C322.689 206.755 313.637 248.972 312.731 257.122L308.604 234.535L309.19 207.9L357.542 197.646L399.611 208.619L404.483 213.68C404.483 213.68 404.989 221.058 405.149 225.399Z" fill="#E4688E" fill-opacity="0.3"/>
<path d="M398.572 227.211C396.176 214.878 385.765 204.943 385.765 204.943C384.155 205.49 382.509 205.926 380.84 206.249C373.198 207.74 363.826 207.261 348.489 206.249C335.177 205.476 324.846 210.43 319.388 212.028L318.509 212.268C312.492 213.707 315.846 217.249 315.846 217.249C317.995 221.724 319.126 226.62 319.159 231.584C319.191 236.549 318.123 241.459 316.033 245.962C311.666 255.231 311.294 268.282 311.64 277.019C311.879 282.346 312.385 286.234 312.385 286.234L305.968 283.225C299.892 275.634 294.205 267.74 288.928 259.572C286.448 255.765 284.309 251.745 282.538 247.56C280.354 242.46 278.574 237.197 277.213 231.818C276.648 230.041 276.494 228.159 276.761 226.314C277.029 224.469 277.711 222.708 278.757 221.164C282.911 215.678 309.084 207.847 309.084 207.847C307.125 207.521 305.286 206.689 303.749 205.432C302.213 204.175 301.031 202.537 300.324 200.682C297.661 194.05 302.507 181.478 302.507 181.478C302.865 189.838 305.64 197.916 310.495 204.73C310.495 204.571 310.255 204.224 310.042 203.718V203.585C308.537 200.565 307.633 197.281 307.38 193.916C307.367 193.757 307.367 193.597 307.38 193.437C307.439 193.246 307.51 193.06 307.593 192.878L307.752 192.611C307.752 192.425 307.992 192.238 308.125 192.052C308.274 191.841 308.454 191.652 308.658 191.493C311.061 189.651 313.763 188.236 316.645 187.311C316.645 187.311 316.645 187.311 316.858 187.311C321.358 185.58 327.988 183.396 337.733 180.492C353.243 175.672 367.58 167.671 379.828 157C379.828 157 396.602 159.237 407.172 170.318L407.305 170.504C410.865 174.225 413.381 178.818 414.601 183.822C420.325 206.648 398.572 227.211 398.572 227.211Z" fill="url(#paint6_linear)"/>
<path d="M391.969 212.402C383.262 215.411 375.568 212.402 355.865 208.566C343.312 206.812 330.522 208.128 318.589 212.402L315.926 211.789C315.926 211.789 325.964 203.292 343.377 186.858C360.79 170.424 387.389 195.728 391.969 212.402Z" fill="url(#paint7_linear)"/>
<path d="M334.937 415.122C334.937 415.122 344.709 399.647 340.582 387.235C340.582 387.235 315.447 371.813 270.157 359.322L261.93 374.397C261.93 374.397 306.022 385.77 334.937 415.122Z" fill="url(#paint8_linear)"/>
<path d="M311.799 264.899C311.799 264.899 340.262 282.452 346.2 303.334C352.137 324.216 346.2 350.132 346.2 350.132C346.2 350.132 317.417 299.286 313.636 286.234C311.477 279.342 310.85 272.06 311.799 264.899Z" fill="url(#paint9_linear)"/>
<path d="M358.181 535.754C356.345 543.476 353.915 551.046 350.912 558.394C329.612 611.904 279.343 678.252 277.772 680.25L286.638 687.042C234.612 725.477 137.535 750.141 132.902 721.961C128.269 693.781 174.678 628.737 192.357 565.825C210.036 502.912 214.536 425.723 217.784 419.544C232.668 390.751 263.314 371.813 263.314 371.813C303.119 383.4 346.2 420.157 346.2 420.157C346.2 420.157 370.988 479.873 358.181 535.754Z" fill="url(#paint10_linear)"/>
<path style="mix-blend-mode:multiply" opacity="0.5" d="M348.25 426.016L346.306 420.236C346.306 420.236 336.401 410.302 322.663 419.81C308.924 429.319 289.168 459.763 282.724 495.801C276.281 531.838 286.585 578.903 308.391 600.025C308.391 600.025 341.806 585.908 350.992 558.474L327.588 494.549L348.25 426.016Z" fill="url(#paint11_linear)"/>
<path d="M617.754 611.984H365.343V627.219H617.754V611.984Z" fill="#36295C"/>
<path d="M764.994 609.347V623.597L617.754 627.246V611.984L764.994 609.347Z" fill="#9B5ED7"/>
<path d="M337.999 245.962C336.223 254.463 335.783 263.189 336.694 271.825C336.694 271.825 357.995 284.343 371.813 278.99C375.684 262.248 376.585 244.957 374.476 227.903C374.476 227.903 367.207 234.749 360.258 234.988C353.309 235.228 340.049 242.766 337.999 245.962Z" fill="url(#paint12_linear)"/>
<path d="M656.015 637.74H753.544C748.6 628.928 741.569 621.464 733.07 616.003C724.57 610.542 714.861 607.25 704.793 606.417C670.18 603.674 656.015 637.74 656.015 637.74Z" fill="#36295C"/>
<path d="M755.462 601.383C756.473 605.591 745.477 608.042 743.347 606.95C743.347 606.95 753.411 618.936 753.411 621.652C753.411 622.798 752.32 623.224 750.882 623.251C748.898 623.236 746.952 622.703 745.237 621.706C745.503 621.908 745.752 622.131 745.983 622.372C746.413 622.716 746.726 623.185 746.879 623.714C747.031 624.244 747.016 624.808 746.835 625.328C746.436 626.154 744.439 626.101 742.149 625.701C739.523 625.205 736.96 624.419 734.507 623.357C730.077 620.832 725.88 617.918 721.967 614.647C713.851 615.333 705.824 616.823 698.004 619.095L700.826 615.207C703.302 615.473 712.594 614.887 717.706 616.166C720.635 616.911 736.504 628.498 736.504 629.616C736.504 631.907 727.984 634.331 711.37 622.505C711.37 622.505 683.466 636.462 667.464 637.74C647.202 639.365 635.167 632.786 635.167 632.786L597.652 634.464C597.652 634.464 610.965 616.831 622.067 611.265C622.067 611.265 714.565 592.22 725.534 594.511C736.504 596.802 754.823 598.746 755.462 601.383Z" fill="url(#paint13_linear)"/>
<path d="M626.434 608.868C626.434 608.868 607.796 617.098 600.234 635.689C600.234 635.689 476.771 641.469 426.769 633.559C426.769 633.559 380.813 583.671 346.333 557.089C346.333 557.089 337.6 587.213 308.604 591.315C308.604 591.315 272.394 553.493 286.638 492.525C299.072 439.334 337.44 420.157 338.665 419.571C338.665 419.571 353.282 427.988 360.577 438.215C360.577 438.215 362.042 441.172 364.651 446.206C377.724 471.669 420.192 550.856 456.323 578.823C456.323 578.823 548.82 599.865 607.53 607.083C614.506 607.802 620.736 608.442 626.434 608.868Z" fill="url(#paint14_linear)"/>
<path d="M626.434 608.867C626.434 608.867 607.796 617.098 600.234 635.689C600.234 635.689 476.772 641.469 426.769 633.558C426.769 633.558 380.813 583.671 346.333 557.089C342.339 553.972 320.053 566.704 320.053 566.704C318.076 558.23 316.732 549.621 316.033 540.948C310.708 475.398 346.333 436.324 346.333 436.324C353.415 436.777 361.989 445.007 361.989 445.007L364.811 446.153C377.884 471.616 420.352 550.803 456.483 578.77C456.483 578.77 548.98 599.812 607.69 607.03C614.506 607.802 620.736 608.441 626.434 608.867Z" fill="url(#paint15_linear)"/>
<path d="M411.565 309.301C410.82 306.797 408.397 310.233 396.735 311.964C385.073 313.695 367.26 304.293 367.26 304.293C353.761 303.84 338.425 312.95 338.425 312.95C328.92 312.95 320.373 298.167 315.607 288.126C313.157 282.932 311.746 279.016 311.746 279.016C310.813 279.616 310.059 280.458 309.567 281.453C309.074 282.447 308.861 283.557 308.95 284.663C310.069 295.637 303.466 311.884 303.466 311.884C303.466 311.884 305.968 330.849 329.745 352.796C336.716 359.221 345.044 363.993 354.11 366.76C363.176 369.526 372.749 370.216 382.118 368.777C404.962 356.472 412.284 311.858 411.565 309.301ZM390.265 345.445C385.925 345.445 387.602 333.326 381.132 332.127C374.662 330.929 364.651 346.537 357.436 341.956C350.22 337.374 350.912 317.797 353.894 314.361C355.454 312.762 357.317 311.491 359.375 310.622C361.432 309.753 363.643 309.304 365.876 309.301C371.525 313.988 378.051 317.501 385.073 319.635C388.189 320.785 391.552 321.093 394.825 320.527C398.097 319.961 401.162 318.542 403.711 316.412C407.492 333.113 394.685 345.445 390.345 345.445H390.265Z" fill="url(#paint16_linear)"/>
<path d="M401.767 299.739C401.767 299.739 397.507 286.607 389.333 285.222C381.159 283.837 373.358 299.472 373.358 299.472L401.767 299.739Z" fill="#FF9B98"/>
<path d="M401.767 299.739C402.193 298.673 379.056 298.167 373.331 299.472C376.661 303.458 381.274 306.161 386.378 307.117C389.388 307.591 392.471 307.139 395.219 305.822C397.968 304.504 400.251 302.383 401.767 299.739Z" fill="url(#paint17_linear)"/>
<path d="M382.517 306.158C381.659 304.704 380.477 303.467 379.065 302.543C377.652 301.619 376.045 301.033 374.37 300.831C376.687 303.152 379.461 304.966 382.517 306.158Z" fill="#9F4A8B"/>
<path d="M393.354 306.584C393.354 306.584 400.542 303.92 401.767 299.738C400.25 295.5 398.017 291.554 395.164 288.072C395.164 288.072 399.77 296.063 399.611 299.445C398.235 302.365 396.067 304.838 393.354 306.584Z" fill="#CB4D7A"/>
<path d="M374.37 227.903C373.338 231.858 371.183 235.429 368.166 238.185C368.166 238.185 349.874 239.33 337.999 245.962C341.08 240.878 346.016 237.191 351.764 235.681C364.225 231.819 374.37 227.903 374.37 227.903Z" fill="#262626"/>
<path d="M399.611 239.117C399.611 239.117 389.892 263.541 389.812 270.466C389.599 273.137 389.742 275.824 390.238 278.457C390.238 278.457 402.007 283.597 405.442 277.418C404.704 266.91 404.704 256.363 405.442 245.855C405.442 245.855 404.749 234.242 399.611 239.117Z" fill="url(#paint18_linear)"/>
<path d="M364.731 260.878C366.166 263.681 366.938 266.777 366.989 269.926C367.039 273.075 366.367 276.194 365.024 279.043C365.024 279.043 351.711 281.254 344.842 269.96C344.842 269.907 350.327 260.878 364.731 260.878Z" fill="#FFEBED"/>
<path d="M364.438 258.88C363.419 256.765 362.263 254.718 360.977 252.754C360.977 252.754 348.25 257.468 344.842 269.907H345.587C345.587 269.907 350.673 262.289 364.438 258.88Z" fill="url(#paint19_linear)"/>
<path d="M388.96 272.677C388.96 272.677 393.513 260.878 401.767 260.505C403.012 264.829 403.329 269.367 402.699 273.823C402.699 273.823 401.687 279.762 397.56 279.549C393.433 279.336 388.96 272.677 388.96 272.677Z" fill="#FFEBED"/>
<path d="M401.767 257.894C401.767 257.894 399.344 252.567 397.188 252.754C395.777 252.754 390.025 260.744 389.333 271.825C390.369 268.789 392.003 265.991 394.138 263.598C396.274 261.206 398.868 259.266 401.767 257.894Z" fill="url(#paint20_linear)"/>
<path d="M358.607 262.156C358.607 262.156 359.832 275.474 353.868 277.578C353.868 277.578 347.025 275.101 344.842 269.907C346.437 267.693 348.494 265.853 350.871 264.515C353.248 263.176 355.888 262.371 358.607 262.156Z" fill="#38368E"/>
<path d="M397.88 262.156C397.88 262.156 400.25 275.474 394.898 278.563C394.898 278.563 389.892 275.367 388.96 272.677C388.96 272.677 392.049 264.5 397.88 262.156Z" fill="#38368E"/>
<path d="M344.842 269.907C350.345 264.86 357.311 261.698 364.731 260.877L365.69 263.115C365.69 263.115 371.015 259.679 369.71 258.507C368.405 257.335 352.856 258.693 344.842 269.907Z" fill="#131163"/>
<path d="M388.96 272.677C390.079 269.836 391.805 267.275 394.017 265.173C396.229 263.07 398.874 261.477 401.767 260.504L402.353 262.902C402.353 262.902 407.678 258.32 407.119 257.575C406.081 256.11 393.354 257.868 388.96 272.677Z" fill="#131163"/>
<path d="M361.855 312.95C367.229 318.988 374.532 322.971 382.517 324.216C395.137 325.788 399.611 320.141 399.611 320.141C399.611 320.141 395.031 327.945 382.517 327.093C370.003 326.241 358.714 312.95 358.714 312.95H361.855Z" fill="url(#paint21_linear)"/>
<path d="M353.974 269.827C356.294 269.136 358.764 269.136 361.083 269.827C358.777 270.604 356.28 270.604 353.974 269.827Z" fill="white"/>
<path d="M394.845 269.96C397.164 269.27 399.634 269.27 401.954 269.96C399.648 270.738 397.151 270.738 394.845 269.96Z" fill="white"/>
<path d="M397.56 241.061C397.56 241.061 387.496 264.766 387.549 270.014C387.602 275.261 395.164 288.072 395.164 288.072C395.164 288.072 389.519 276.965 389.839 270.466C390.158 263.967 398.439 244.63 398.439 244.63L397.56 241.061Z" fill="#CB4D7A"/>
<path d="M393.354 253.739C393.354 253.739 398.226 234.882 403.365 231.978C407.172 229.847 405.468 245.962 405.468 245.962C405.468 245.962 405.655 240.928 401.767 241.86C397.88 242.792 393.354 253.739 393.354 253.739Z" fill="#262626"/>
<path style="mix-blend-mode:multiply" opacity="0.5" d="M398.572 227.211C396.176 214.879 385.765 204.944 385.765 204.944C384.155 205.49 382.509 205.927 380.84 206.249L368.459 184.781C386.032 191.972 393.673 210.83 393.673 210.83C393.673 210.83 401.155 217.515 401.954 202.839C402.141 193.537 399.165 184.446 393.513 177.056C400.006 182.66 405.118 189.688 408.45 197.592C413.562 179.32 408.45 171.729 407.439 170.531C410.998 174.251 413.514 178.845 414.734 183.848C420.325 206.648 398.572 227.211 398.572 227.211Z" fill="url(#paint22_linear)"/>
<path style="mix-blend-mode:multiply" opacity="0.5" d="M336.881 192.798C330.688 198.869 324.848 205.29 319.388 212.028V212.162L318.509 212.401C312.492 213.84 315.846 217.382 315.846 217.382C317.975 221.839 319.095 226.711 319.127 231.651C319.159 236.591 318.103 241.477 316.033 245.962C311.666 255.231 311.293 268.282 311.64 277.018L308.604 282.345L297.954 264.606L288.955 259.599C286.464 255.784 284.316 251.755 282.538 247.56C280.354 242.46 278.574 237.197 277.213 231.818C283.615 229.969 289.85 227.581 295.851 224.68C312.332 216.929 316.672 208.566 316.672 208.566L310.015 203.718V203.585C309.376 202.493 306.687 197.406 307.353 193.916C307.34 193.757 307.34 193.596 307.353 193.437C307.412 193.246 307.483 193.059 307.566 192.878L307.726 192.611C307.726 192.425 307.965 192.238 308.098 192.052C308.248 191.841 308.427 191.652 308.631 191.493C310.965 189.544 313.688 188.119 316.619 187.311C316.619 187.311 316.619 187.311 316.832 187.311C316.157 188.736 315.933 190.334 316.19 191.89C316.447 193.447 317.172 194.888 318.269 196.021C322.103 199.856 336.002 193.224 336.881 192.798Z" fill="url(#paint23_linear)"/>
<path d="M303.865 270.253C303.865 270.253 287.543 250.25 275.668 264.926C266.562 276.086 277.053 313.003 293.215 313.056C309.376 313.109 313.929 284.53 303.865 270.253Z" fill="url(#paint24_linear)"/>
<path d="M303.119 288.845C303.119 288.845 297.395 270.626 278.837 274.462C281.034 274.601 283.173 275.227 285.098 276.296C287.023 277.365 288.686 278.849 289.966 280.641C289.966 280.641 290.259 297.501 294.014 301.949C297.768 306.397 304.291 294.891 303.119 288.845Z" fill="url(#paint25_linear)"/>
<path d="M273.485 268.868C273.485 268.868 278.81 262.103 292.123 265.326C305.436 268.549 308.631 282.213 308.631 282.213C308.631 282.213 303.652 260.904 289.993 257.761C278.198 255.098 273.485 268.868 273.485 268.868Z" fill="url(#paint26_linear)"/>
<path d="M286.745 274.195C286.745 274.195 280.142 285.355 283.496 296.329C283.496 296.329 284.268 284.743 290.738 277.418L286.745 274.195Z" fill="url(#paint27_linear)"/>
<path style="mix-blend-mode:multiply" opacity="0.5" d="M382.171 368.671C372.802 370.109 363.229 369.419 354.163 366.653C345.097 363.886 336.77 359.114 329.798 352.689C306.022 330.742 303.519 311.778 303.519 311.778C303.519 311.778 310.122 295.53 309.004 284.556C308.915 283.45 309.128 282.34 309.62 281.346C310.113 280.351 310.866 279.509 311.799 278.91C311.799 278.91 313.211 282.825 315.66 288.019C314.851 297.771 314.913 307.576 315.846 317.318C317.471 331.275 341.247 357.803 341.247 357.803C341.247 357.803 370.535 354.554 381.026 357.803C390.851 361.159 382.863 368.111 382.171 368.671Z" fill="url(#paint28_linear)"/>
<path style="mix-blend-mode:multiply" opacity="0.5" d="M365.876 309.3C365.876 309.3 390.345 323.737 403.844 316.412C403.844 316.412 393.061 329.596 365.876 309.3Z" fill="url(#paint29_linear)"/>
<path d="M471.446 399.514C471.446 399.514 487.422 412.645 497.034 401.938L484.227 429.639C484.227 429.639 471.899 421.621 471.446 399.514Z" fill="url(#paint30_linear)"/>
<path style="mix-blend-mode:multiply" opacity="0.5" d="M461.888 421.622C461.888 421.622 462.926 446.552 473.843 457.419C473.843 457.419 463.965 454.916 459.731 425.111L461.888 421.622Z" fill="url(#paint31_linear)"/>
<path style="mix-blend-mode:multiply" opacity="0.3" d="M445.114 445.833C440.561 455.688 416.411 483.122 410.341 495.96C405.708 510.583 428.446 511.728 428.446 511.728C428.446 511.728 457.468 492.045 466.787 472.335C466.787 472.335 434.437 539.722 428.606 549.737C428.606 549.737 401.554 515.91 396.016 500.648C413.618 483.523 430.022 465.208 445.114 445.833Z" fill="url(#paint32_linear)"/>
<path opacity="0.5" d="M346.333 557.089C346.333 557.089 336.614 587.187 308.604 591.315C308.604 591.315 312.385 573.23 319.92 566.624C327.455 560.019 342.445 554.052 346.333 557.089Z" fill="#4723A9"/>
<path style="mix-blend-mode:multiply" opacity="0.3" d="M626.434 608.868C626.434 608.868 607.796 617.098 600.234 635.689C600.234 635.689 476.771 641.469 426.769 633.559C426.769 633.559 380.813 583.671 346.333 557.089C346.333 557.089 337.6 587.213 308.604 591.315C308.604 591.315 272.394 553.493 286.638 492.525C299.072 439.334 337.44 420.157 338.665 419.571C337.6 420.716 303.439 457.819 297.102 491.832C295.383 500.946 296.231 510.357 299.551 519.016C302.87 527.676 308.53 535.241 315.9 540.868C317.183 541.904 318.525 542.864 319.92 543.744L348.862 549.737C348.862 549.737 403.897 605.032 431.402 618.297C458.906 631.561 583.78 615.633 607.556 606.95C614.506 607.802 620.736 608.442 626.434 608.868Z" fill="url(#paint33_linear)"/>
<path style="mix-blend-mode:multiply" opacity="0.5" d="M581.916 636.435C588.104 624.787 596.875 614.71 607.556 606.976C607.556 606.976 588.12 624.103 586.043 636.435H581.916Z" fill="url(#paint34_linear)"/>
<path style="mix-blend-mode:multiply" opacity="0.5" d="M206.202 715.702C209.025 714.876 254.847 701.105 286.638 686.936C234.612 725.37 137.535 750.035 132.902 721.854C128.269 693.674 174.678 628.631 192.357 565.718C210.036 502.806 214.536 425.723 217.784 419.544C217.784 419.544 207.507 533.037 186.899 598.16C165.891 664.748 196.67 655.506 233.414 645.091C233.414 645.091 286.665 627.459 315.953 591.821C334.804 568.755 346.359 557.195 346.359 557.195L351.045 558.58C329.745 612.09 279.476 678.439 277.905 680.437C254.802 693.75 230.85 705.531 206.202 715.702Z" fill="url(#paint35_linear)"/>
<path opacity="0.5" d="M334.937 415.123C334.937 415.123 274.763 439.094 247.312 438.056C219.861 437.017 217.838 419.411 217.838 419.411C232.721 390.618 263.367 371.68 263.367 371.68C300.324 384.226 334.937 415.123 334.937 415.123Z" fill="#CE47B8"/>
<path style="mix-blend-mode:multiply" opacity="0.3" d="M294.679 514.472C294.679 514.472 362.255 559.459 420.139 566.837C420.139 566.837 345.321 529.574 294.679 514.472Z" fill="url(#paint36_linear)"/>
<path style="mix-blend-mode:multiply" opacity="0.5" d="M191.159 632.12C191.159 632.12 232.881 620.454 264.725 556.289C264.725 556.289 218.849 611.851 191.159 632.12Z" fill="url(#paint37_linear)"/>
<path style="mix-blend-mode:multiply" opacity="0.3" d="M340.502 387.235C340.502 387.235 306.474 385.158 291.058 380.896C281.745 378.314 272.869 374.355 264.725 369.15L263.261 371.813C289.532 381.303 314.13 394.905 336.135 412.113C340.744 404.694 342.309 395.781 340.502 387.235Z" fill="url(#paint38_linear)"/>
<path style="mix-blend-mode:multiply" opacity="0.5" d="M308.311 599.945C308.311 599.945 265.71 644.239 252.904 693.941L277.852 680.25C277.852 680.25 338.079 596.429 349.741 561.164L346.2 557.009C346.2 557.009 334.777 585.348 308.604 591.315L308.311 599.945Z" fill="url(#paint39_linear)"/>
<path style="mix-blend-mode:color-dodge" opacity="0.82" d="M857.651 391.816L502.811 558.527L570.36 402.817L857.651 391.816Z" fill="url(#paint40_linear)"/>
<path d="M623.851 610.679C623.851 610.679 622.946 619.522 635.14 632.786L600.82 634.331C600.82 634.331 607.876 618.137 622.413 611.025L623.851 610.679Z" fill="url(#paint41_linear)"/>
<path d="M742.309 625.781H742.149C739.152 625.299 736.287 624.202 733.735 622.558C729.156 619.176 721.381 613.129 721.381 613.129C715.865 612.587 710.309 612.587 704.793 613.129L693.078 616.512L714.565 615.819L721.967 614.834C727.342 620.643 734.5 624.495 742.309 625.781Z" fill="#E4688E"/>
<path d="M743.347 606.95C739.232 603.124 734.776 599.682 730.034 596.669C730.034 596.669 748.672 601.25 752.533 605.378C751.195 606.265 749.688 606.863 748.106 607.134C746.524 607.405 744.903 607.342 743.347 606.95Z" fill="#E4688E"/>
<path style="mix-blend-mode:color-dodge" opacity="0.2" d="M792.737 558.527L790.368 549.737L837.362 439.467V449.988L792.737 558.527Z" fill="url(#paint42_linear)"/>
<g filter="url(#filter0_d)">
<path d="M520.65 685.737C513.974 685.901 507.315 685.002 500.921 683.073C497.513 681.795 495.782 680.09 495.782 677.986C495.782 675.882 497.06 674.39 499.749 672.499C488.274 671.727 475.6 671.034 463.485 670.395C401.261 667.119 360.498 664.215 360.657 653.961C360.657 650.445 360.844 641.123 498.551 635.13C566.074 632.2 634.342 631.534 635.114 631.534V633.958C634.422 633.958 566.1 634.597 498.605 637.553C376.393 642.881 363.08 650.871 363.027 653.987C363.027 662.671 421.097 665.76 463.565 667.998C478.981 668.797 492.294 669.542 503.504 670.342C506.218 668.958 509.01 667.731 511.864 666.666C556.089 649.699 1037.96 685.364 1044 685.737L1043.87 688.134C1042.38 688.134 556.462 652.15 512.743 668.877C511.092 669.516 509.654 670.102 508.376 670.688C529.41 672.339 541.285 674.39 542.989 678.092C543.193 678.629 543.234 679.213 543.106 679.773C542.978 680.332 542.687 680.841 542.27 681.235C539.422 684.378 530.156 685.737 520.65 685.737ZM503.93 672.872C498.605 675.695 498.205 677.453 498.205 678.039C498.205 678.625 499.51 680.01 501.773 680.862C511.784 684.591 536.599 683.872 540.22 679.717C540.407 679.531 540.566 679.264 540.513 679.131C539.288 676.228 523.819 674.337 503.93 672.872Z" fill="#36295C"/>
</g>
<path d="M316.725 208.566C315.913 202.382 315.842 196.122 316.512 189.921C316.787 186.747 317.693 183.659 319.175 180.839C320.019 179.331 321.353 178.156 322.956 177.509C324.488 176.88 326.119 176.528 327.775 176.47C330.898 176.387 334.022 176.547 337.12 176.95C340.182 177.216 343.218 177.456 346.253 177.456C352.309 177.481 358.333 176.582 364.119 174.792C367.021 173.967 369.737 172.662 373.038 171.969C376.351 171.284 379.796 171.686 382.863 173.114C385.813 174.525 388.393 176.604 390.398 179.187C392.372 181.67 394.01 184.401 395.271 187.311C397.754 193.05 399.456 199.097 400.329 205.29C401.329 211.464 401.329 217.76 400.329 223.934C400.826 217.809 400.422 211.644 399.131 205.636C398.052 199.577 396.162 193.691 393.513 188.137C390.851 182.81 387.256 177.483 381.931 175.219C379.309 174.072 376.386 173.801 373.597 174.446C370.935 175.005 367.953 176.417 364.917 177.296C358.877 179.129 352.592 180.027 346.28 179.96C340.023 179.96 333.792 178.681 327.881 178.628C326.48 178.48 325.065 178.705 323.779 179.28C322.493 179.855 321.382 180.761 320.559 181.904C319.051 184.493 318.065 187.352 317.657 190.321C316.714 196.354 316.401 202.468 316.725 208.566Z" fill="url(#paint43_linear)"/>
<path d="M311.4 188.962L344.043 175.991L360.364 169.545C363.027 168.48 365.69 167.308 368.539 166.269L372.878 164.99C374.343 164.618 375.861 164.484 377.378 164.218C383.487 163.635 389.625 164.986 394.924 168.08C400.173 171.166 404.424 175.697 407.172 181.131C409.896 186.489 411.336 192.407 411.379 198.418C411.261 204.313 410.061 210.136 407.838 215.597C409.583 210.036 410.366 204.217 410.154 198.391C409.877 192.642 408.273 187.036 405.468 182.01C402.728 177.03 398.688 172.888 393.78 170.025C388.858 167.209 383.175 166.016 377.538 166.615C376.153 166.855 374.875 166.961 373.384 167.281L369.311 168.533C366.648 169.518 363.986 170.637 361.137 171.676C355.652 173.753 350.193 175.884 344.655 177.802C333.712 181.771 322.609 185.553 311.4 188.962Z" fill="url(#paint44_linear)"/>
<path d="M497.939 400.74C497.939 400.74 531.7 358.123 538.942 346.35C538.942 346.35 519.426 382.787 497.939 400.74Z" fill="#CC6DED"/>
<path d="M526.907 351.224C530.513 350.535 533.853 348.846 536.546 346.35V349.014L538.942 346.35C538.761 343.903 538.129 341.51 537.078 339.292C537.078 339.292 535.907 345.951 526.907 351.224Z" fill="#CC6DED"/>
<path d="M432.68 540.548C432.68 540.548 468.784 451.293 482.256 439.334C482.256 439.467 441.786 527.39 432.68 540.548Z" fill="#CC6DED"/>
<path d="M456.35 578.69C456.35 578.69 473.177 584.017 519.399 594.671C565.621 605.325 626.434 608.921 626.434 608.921C626.434 608.921 526.907 595.71 456.35 578.69Z" fill="#CC6DED"/>
<path d="M643.607 606.95C643.607 606.95 719.677 593.632 724.017 594.351C724.017 594.351 705.512 591.475 643.607 606.95Z" fill="#CC6DED"/>
<g filter="url(#filter1_i)">
<path d="M322.21 655.863C317.764 643.867 266.212 653.389 207.065 677.13C147.918 700.872 103.573 729.843 108.019 741.839C112.464 753.835 164.017 744.314 223.164 720.572C282.311 696.831 326.655 667.86 322.21 655.863Z" fill="#A145C1"/>
</g>
<defs>
<filter id="filter0_d" x="358.657" y="631.534" width="687.343" height="60.5999" filterUnits="userSpaceOnUse" color-interpolation-filters="sRGB">
<feFlood flood-opacity="0" result="BackgroundImageFix"/>
<feColorMatrix in="SourceAlpha" type="matrix" values="0 0 0 0 0 0 0 0 0 0 0 0 0 0 0 0 0 0 127 0"/>
<feOffset dy="2"/>
<feGaussianBlur stdDeviation="1"/>
<feColorMatrix type="matrix" values="0 0 0 0 0 0 0 0 0 0 0 0 0 0 0 0 0 0 0.25 0"/>
<feBlend mode="normal" in2="BackgroundImageFix" result="effect1_dropShadow"/>
<feBlend mode="normal" in="SourceGraphic" in2="effect1_dropShadow" result="shape"/>
</filter>
<filter id="filter1_i" x="107.712" y="646.677" width="214.805" height="100.349" filterUnits="userSpaceOnUse" color-interpolation-filters="sRGB">
<feFlood flood-opacity="0" result="BackgroundImageFix"/>
<feBlend mode="normal" in="SourceGraphic" in2="BackgroundImageFix" result="shape"/>
<feColorMatrix in="SourceAlpha" type="matrix" values="0 0 0 0 0 0 0 0 0 0 0 0 0 0 0 0 0 0 127 0" result="hardAlpha"/>
<feOffset dy="-4"/>
<feGaussianBlur stdDeviation="4"/>
<feComposite in2="hardAlpha" operator="arithmetic" k2="-1" k3="1"/>
<feColorMatrix type="matrix" values="0 0 0 0 0 0 0 0 0 0 0 0 0 0 0 0 0 0 0.45 0"/>
<feBlend mode="normal" in2="shape" result="effect1_innerShadow"/>
</filter>
<linearGradient id="paint0_linear" x1="248.753" y1="821.643" x2="226.741" y2="801.193" gradientUnits="userSpaceOnUse">
<stop stop-color="#FF974F"/>
<stop offset="0.0001" stop-color="#A02FC8"/>
<stop offset="0.56" stop-color="#711890"/>
</linearGradient>
<linearGradient id="paint1_linear" x1="-262369" y1="222262" x2="-513644" y2="131880" gradientUnits="userSpaceOnUse">
<stop stop-color="#711890"/>
<stop offset="1" stop-color="white"/>
</linearGradient>
<linearGradient id="paint2_linear" x1="475.28" y1="439.467" x2="475.28" y2="409.715" gradientUnits="userSpaceOnUse">
<stop stop-color="#836CEB"/>
<stop offset="1" stop-color="#C3A4EB"/>
</linearGradient>
<linearGradient id="paint3_linear" x1="428.446" y1="573.948" x2="428.446" y2="409.715" gradientUnits="userSpaceOnUse">
<stop stop-color="#B9ACF4"/>
<stop offset="1" stop-color="#E1D1F5"/>
</linearGradient>
<linearGradient id="paint4_linear" x1="408.317" y1="229.741" x2="408.317" y2="187.417" gradientUnits="userSpaceOnUse">
<stop stop-color="#5C5C5C"/>
<stop offset="1" stop-color="#141414"/>
</linearGradient>
<linearGradient id="paint5_linear" x1="10150.4" y1="14198.2" x2="10150.4" y2="2412.24" gradientUnits="userSpaceOnUse">
<stop offset="0.02" stop-color="#FFC2A9"/>
<stop offset="1" stop-color="#FF9595"/>
</linearGradient>
<linearGradient id="paint6_linear" x1="346.2" y1="286.234" x2="346.2" y2="157" gradientUnits="userSpaceOnUse">
<stop stop-color="#575757"/>
<stop offset="1" stop-color="#282828"/>
</linearGradient>
<linearGradient id="paint7_linear" x1="6635.83" y1="863.95" x2="6635.83" y2="477.159" gradientUnits="userSpaceOnUse">
<stop stop-color="#1A1A1A"/>
<stop offset="1" stop-color="#242424"/>
</linearGradient>
<linearGradient id="paint8_linear" x1="261.85" y1="387.235" x2="341.514" y2="387.235" gradientUnits="userSpaceOnUse">
<stop stop-color="#D5CDF8"/>
<stop offset="1" stop-color="#F3EDFB"/>
</linearGradient>
<linearGradient id="paint9_linear" x1="330.118" y1="350.132" x2="330.118" y2="264.899" gradientUnits="userSpaceOnUse">
<stop stop-color="#FF7C7C"/>
<stop offset="0.98" stop-color="#FF9E8B"/>
</linearGradient>
<linearGradient id="paint10_linear" x1="247.232" y1="734" x2="247.232" y2="371.813" gradientUnits="userSpaceOnUse">
<stop stop-color="#8642A0"/>
<stop offset="1" stop-color="#6456C0"/>
</linearGradient>
<linearGradient id="paint11_linear" x1="315.767" y1="599.945" x2="315.767" y2="415.602" gradientUnits="userSpaceOnUse">
<stop stop-color="#755CBB"/>
<stop offset="1" stop-color="#CCEDFF"/>
</linearGradient>
<linearGradient id="paint12_linear" x1="355.891" y1="280.322" x2="355.891" y2="227.903" gradientUnits="userSpaceOnUse">
<stop offset="0.02" stop-color="#FF9E8B"/>
<stop offset="1" stop-color="#FF7C7C"/>
</linearGradient>
<linearGradient id="paint13_linear" x1="28172.2" y1="8124.03" x2="37535.8" y2="8124.03" gradientUnits="userSpaceOnUse">
<stop offset="0.02" stop-color="#FFC2A9"/>
<stop offset="1" stop-color="#FF9595"/>
</linearGradient>
<linearGradient id="paint14_linear" x1="41817.4" y1="39794.5" x2="41817.4" y2="21923.2" gradientUnits="userSpaceOnUse">
<stop stop-color="#B9ACF4"/>
<stop offset="1" stop-color="#E1D1F5"/>
</linearGradient>
<linearGradient id="paint15_linear" x1="21661.8" y1="29168.4" x2="57989.3" y2="29168.4" gradientUnits="userSpaceOnUse">
<stop stop-color="#D5CDF8"/>
<stop offset="1" stop-color="#F3EDFB"/>
</linearGradient>
<linearGradient id="paint16_linear" x1="9440.84" y1="7497.58" x2="9440.84" y2="4423.56" gradientUnits="userSpaceOnUse">
<stop stop-color="#757575"/>
<stop offset="1" stop-color="#2E2E2E"/>
</linearGradient>
<linearGradient id="paint17_linear" x1="397.021" y1="297.737" x2="398.99" y2="287.583" gradientUnits="userSpaceOnUse">
<stop stop-color="#E1616A"/>
<stop offset="1" stop-color="#FF8883"/>
</linearGradient>
<linearGradient id="paint18_linear" x1="1955.13" y1="2211.38" x2="1955.13" y2="1530.73" gradientUnits="userSpaceOnUse">
<stop offset="0.02" stop-color="#FF9E8B"/>
<stop offset="1" stop-color="#FF7C7C"/>
</linearGradient>
<linearGradient id="paint19_linear" x1="354.64" y1="269.907" x2="354.64" y2="252.754" gradientUnits="userSpaceOnUse">
<stop stop-color="#CF6074"/>
<stop offset="1" stop-color="#FF817F"/>
</linearGradient>
<linearGradient id="paint20_linear" x1="1617.45" y1="1075.1" x2="1617.45" y2="938.519" gradientUnits="userSpaceOnUse">
<stop stop-color="#CF6074"/>
<stop offset="1" stop-color="#FF817F"/>
</linearGradient>
<linearGradient id="paint21_linear" x1="4117.55" y1="1215.75" x2="4121.22" y2="1160.61" gradientUnits="userSpaceOnUse">
<stop stop-color="#E1616A"/>
<stop offset="1" stop-color="#FF8883"/>
</linearGradient>
<linearGradient id="paint22_linear" x1="392.022" y1="227.211" x2="392.022" y2="170.531" gradientUnits="userSpaceOnUse">
<stop stop-color="#CCEDFF"/>
<stop offset="1" stop-color="#9D68C2"/>
</linearGradient>
<linearGradient id="paint23_linear" x1="4188.45" y1="4658.69" x2="4188.45" y2="1263.1" gradientUnits="userSpaceOnUse">
<stop stop-color="#5B5B5B"/>
<stop offset="1" stop-color="#1D1D1D"/>
</linearGradient>
<linearGradient id="paint24_linear" x1="285.681" y1="312.971" x2="284.797" y2="259.55" gradientUnits="userSpaceOnUse">
<stop offset="0.02" stop-color="#FFAC8B"/>
<stop offset="1" stop-color="#FF9595"/>
</linearGradient>
<linearGradient id="paint25_linear" x1="297.208" y1="298.347" x2="276.924" y2="271.76" gradientUnits="userSpaceOnUse">
<stop stop-color="#FF817F"/>
<stop offset="1" stop-color="#CF6074"/>
</linearGradient>
<linearGradient id="paint26_linear" x1="285.544" y1="282.683" x2="285.129" y2="257.57" gradientUnits="userSpaceOnUse">
<stop stop-color="#FFA795"/>
<stop offset="0.98" stop-color="#FFC2A9"/>
</linearGradient>
<linearGradient id="paint27_linear" x1="767.882" y1="1385.54" x2="706.85" y2="1357.85" gradientUnits="userSpaceOnUse">
<stop stop-color="#FF817F"/>
<stop offset="1" stop-color="#CF6074"/>
</linearGradient>
<linearGradient id="paint28_linear" x1="344.682" y1="369.47" x2="344.682" y2="278.99" gradientUnits="userSpaceOnUse">
<stop stop-color="#776D7E"/>
<stop offset="1" stop-color="#9D68C2"/>
</linearGradient>
<linearGradient id="paint29_linear" x1="3963.35" y1="1004.78" x2="3963.35" y2="956.662" gradientUnits="userSpaceOnUse">
<stop stop-color="#776D7E"/>
<stop offset="1" stop-color="#9D68C2"/>
</linearGradient>
<linearGradient id="paint30_linear" x1="3850.75" y1="3483.05" x2="3850.75" y2="3142.35" gradientUnits="userSpaceOnUse">
<stop stop-color="#FF7C7C"/>
<stop offset="0.98" stop-color="#FF9E8B"/>
</linearGradient>
<linearGradient id="paint31_linear" x1="2231.02" y1="4459.25" x2="2231.02" y2="3978.13" gradientUnits="userSpaceOnUse">
<stop stop-color="#CCEDFF"/>
<stop offset="1" stop-color="#9D68C2"/>
</linearGradient>
<linearGradient id="paint32_linear" x1="431.402" y1="549.737" x2="431.402" y2="445.833" gradientUnits="userSpaceOnUse">
<stop stop-color="#9D68C2"/>
<stop offset="1" stop-color="#CCEDFF"/>
</linearGradient>
<linearGradient id="paint33_linear" x1="41817.4" y1="39794.5" x2="41817.4" y2="21925.4" gradientUnits="userSpaceOnUse">
<stop stop-color="#9D68C2"/>
<stop offset="1" stop-color="#CCEDFF"/>
</linearGradient>
<linearGradient id="paint34_linear" x1="5032.59" y1="5909.23" x2="5032.59" y2="5583.42" gradientUnits="userSpaceOnUse">
<stop stop-color="#CCEDFF"/>
<stop offset="1" stop-color="#9D68C2"/>
</linearGradient>
<linearGradient id="paint35_linear" x1="9089.71" y1="68540.9" x2="9089.71" y2="31415.8" gradientUnits="userSpaceOnUse">
<stop stop-color="#755CBB"/>
<stop offset="1" stop-color="#CCEDFF"/>
</linearGradient>
<linearGradient id="paint36_linear" x1="11837.2" y1="-5878.17" x2="16969.4" y2="-7029.86" gradientUnits="userSpaceOnUse">
<stop stop-color="#9D68C2"/>
<stop offset="1" stop-color="#CCEDFF"/>
</linearGradient>
<linearGradient id="paint37_linear" x1="-18505.4" y1="25514.8" x2="-17838.1" y2="22980.3" gradientUnits="userSpaceOnUse">
<stop stop-color="#755CBB"/>
<stop offset="1" stop-color="#CCEDFF"/>
</linearGradient>
<linearGradient id="paint38_linear" x1="5231.74" y1="4484.12" x2="5231.74" y2="3791.13" gradientUnits="userSpaceOnUse">
<stop stop-color="#9D68C2"/>
<stop offset="1" stop-color="#CCEDFF"/>
</linearGradient>
<linearGradient id="paint39_linear" x1="6388.51" y1="28161.1" x2="6388.51" y2="21121.5" gradientUnits="userSpaceOnUse">
<stop stop-color="#755CBB"/>
<stop offset="1" stop-color="#CCEDFF"/>
</linearGradient>
<linearGradient id="paint40_linear" x1="502.811" y1="475.158" x2="857.651" y2="475.158" gradientUnits="userSpaceOnUse">
<stop/>
<stop offset="1" stop-color="#6A9BFF"/>
</linearGradient>
<linearGradient id="paint41_linear" x1="6857.43" y1="4849.38" x2="6857.43" y2="4639.35" gradientUnits="userSpaceOnUse">
<stop stop-color="#FF7C7C"/>
<stop offset="0.98" stop-color="#FF9E8B"/>
</linearGradient>
<linearGradient id="paint42_linear" x1="790.368" y1="498.997" x2="837.362" y2="498.997" gradientUnits="userSpaceOnUse">
<stop stop-color="#E5AFAE"/>
<stop offset="1" stop-color="#673E3E"/>
</linearGradient>
<linearGradient id="paint43_linear" x1="358.554" y1="224.014" x2="358.554" y2="171.623" gradientUnits="userSpaceOnUse">
<stop stop-color="#464646"/>
<stop offset="1" stop-color="#0F0F0F"/>
</linearGradient>
<linearGradient id="paint44_linear" x1="8903.6" y1="1305.08" x2="8903.6" y2="297.502" gradientUnits="userSpaceOnUse">
<stop stop-color="#525252"/>
<stop offset="1"/>
</linearGradient>
</defs>
</svg>
