<svg width="88" height="88" viewBox="0 0 88 88" fill="none" xmlns="http://www.w3.org/2000/svg">
<path d="M44.5011 12C26.5483 12 12 26.5502 12 44.5054C12 62.4541 26.5483 77 44.5011 77C62.4496 77 77 62.452 77 44.5054C77.0022 26.5502 62.4496 12 44.5011 12Z" fill="white"/>
<circle cx="44" cy="44" r="43" stroke="white" stroke-width="2"/>
<path d="M55.3153 43.1816L41.6223 33.3133C41.1198 32.9522 40.4527 32.8978 39.9019 33.1784C39.3467 33.4569 39 34.0226 39 34.6339V54.364C39 54.9818 39.3467 55.5453 39.9019 55.8238C40.1367 55.9413 40.3934 56 40.6524 56C40.9903 56 41.3326 55.8934 41.6223 55.6824L55.3153 45.8228C55.7476 45.5073 56 45.02 56 44.5022C56.0022 43.9757 55.7432 43.4906 55.3153 43.1816Z" fill="#721991"/>
</svg>
