<svg width="106" height="82" viewBox="0 0 106 82" fill="none" xmlns="http://www.w3.org/2000/svg">
<path d="M21.5751 22.3693L25.1206 44.4701L19.9777 45.2915L16.4322 23.1907L14.0165 1.01173C13.9776 0.737917 14.2503 0.464102 14.6399 0.26852C14.8347 0.151171 15.1075 0.0729383 15.3802 0.0338219C16.1594 -0.0835274 16.8607 0.112055 16.9776 0.503219L21.5751 22.3693Z" fill="#2D2D2D"/>
<path d="M20.0946 22.6046L23.6401 44.7054L20.0167 45.2922L16.4712 23.1914L14.0556 1.01238C14.0167 0.738563 14.2894 0.464747 14.679 0.269165C15.1076 0.308281 15.4582 0.503865 15.4972 0.77768L20.0946 22.6046Z" fill="#212120"/>
<path d="M84.303 22.3693L80.7575 44.4701L85.9004 45.2915L89.4459 23.1907L91.8615 1.01173C91.9005 0.737917 91.6278 0.464102 91.2382 0.26852C91.0433 0.151171 90.7706 0.0729383 90.4979 0.0338219C89.7187 -0.0835274 89.0173 0.112055 88.9005 0.503219L84.303 22.3693Z" fill="#212120"/>
<path d="M85.7835 22.6039L82.238 44.7047L85.8614 45.2914L89.4069 23.1907L91.8225 1.01165C91.8615 0.73783 91.5888 0.464015 91.1991 0.268433C90.7706 0.307549 90.4199 0.503132 90.381 0.776947L85.7835 22.6039Z" fill="#2D2D2D"/>
<path d="M11.523 81.2005C9.5749 81.2005 7.97748 79.5967 7.97748 77.6409V75.6851H15.0685V77.6409C15.0685 79.6358 13.471 81.2005 11.523 81.2005Z" fill="#212120"/>
<path d="M94.355 81.2005C92.407 81.2005 90.8095 79.5967 90.8095 77.6409V75.6851H97.9005V77.6409C97.9005 79.6358 96.3421 81.2005 94.355 81.2005Z" fill="#212120"/>
<path d="M98.6252 77.5002H7.37481C5.23643 77.5002 3.48685 75.7567 3.48685 73.6259V47.2034C3.48685 45.0725 5.23643 43.3291 7.37481 43.3291H98.6252C100.764 43.3291 102.513 45.0725 102.513 47.2034V73.6259C102.513 75.7567 100.802 77.5002 98.6252 77.5002Z" fill="#50116D"/>
<path d="M106 52.2047V68.6245C106 69.4321 105.767 70.2012 105.416 70.8933C104.599 72.3161 103.043 73.3159 101.253 73.3159H4.74743C2.14023 73.3159 0 71.201 0 68.6245V52.2047C0 49.6283 2.14023 47.5133 4.74743 47.5133H101.253C103.86 47.5518 106 49.6283 106 52.2047Z" fill="#7F178F"/>
<path d="M9.22425 63.8718C11.0748 63.8718 12.5749 62.3657 12.5749 60.5078C12.5749 58.6499 11.0748 57.1438 9.22425 57.1438C7.37372 57.1438 5.87357 58.6499 5.87357 60.5078C5.87357 62.3657 7.37372 63.8718 9.22425 63.8718Z" fill="white"/>
<path d="M30.3024 62.268C31.2707 62.268 32.0557 61.48 32.0557 60.5078C32.0557 59.5356 31.2707 58.7476 30.3024 58.7476C29.3341 58.7476 28.5491 59.5356 28.5491 60.5078C28.5491 61.48 29.3341 62.268 30.3024 62.268Z" fill="white"/>
<path d="M36.9648 62.268C37.9331 62.268 38.7181 61.48 38.7181 60.5078C38.7181 59.5356 37.9331 58.7476 36.9648 58.7476C35.9965 58.7476 35.2115 59.5356 35.2115 60.5078C35.2115 61.48 35.9965 62.268 36.9648 62.268Z" fill="white"/>
<path d="M43.6272 62.268C44.5955 62.268 45.3805 61.48 45.3805 60.5078C45.3805 59.5356 44.5955 58.7476 43.6272 58.7476C42.6589 58.7476 41.874 59.5356 41.874 60.5078C41.874 61.48 42.6589 62.268 43.6272 62.268Z" fill="white"/>
<path d="M50.2507 62.268C51.219 62.268 52.0039 61.48 52.0039 60.5078C52.0039 59.5356 51.219 58.7476 50.2507 58.7476C49.2824 58.7476 48.4974 59.5356 48.4974 60.5078C48.4974 61.48 49.2824 62.268 50.2507 62.268Z" fill="white"/>
<path d="M56.9131 62.268C57.8814 62.268 58.6663 61.48 58.6663 60.5078C58.6663 59.5356 57.8814 58.7476 56.9131 58.7476C55.9448 58.7476 55.1598 59.5356 55.1598 60.5078C55.1598 61.48 55.9448 62.268 56.9131 62.268Z" fill="white"/>
<path d="M63.5365 62.268C64.5048 62.268 65.2898 61.48 65.2898 60.5078C65.2898 59.5356 64.5048 58.7476 63.5365 58.7476C62.5682 58.7476 61.7832 59.5356 61.7832 60.5078C61.7832 61.48 62.5682 62.268 63.5365 62.268Z" fill="white"/>
<path d="M98.2512 62.268H73.5107C72.5366 62.268 71.7574 61.4857 71.7574 60.5078C71.7574 59.5299 72.5366 58.7476 73.5107 58.7476H98.2512C99.2252 58.7476 100.004 59.5299 100.004 60.5078C100.004 61.4857 99.2252 62.268 98.2512 62.268Z" fill="white"/>
</svg>
