<svg width="89" height="99" viewBox="0 0 89 99" fill="none" xmlns="http://www.w3.org/2000/svg">
<g opacity="0.1">
<path opacity="0.05" d="M56.3709 88.5148C56.7638 92.3309 44.9658 96.6687 30.0218 98.2011C15.0779 99.7334 2.63998 97.8821 2.25901 94.066C1.87805 90.2499 13.6642 85.9151 28.6081 84.3708C43.5521 82.8265 55.981 84.6987 56.3709 88.5148Z" fill="#F3F3F3"/>
<path opacity="0.1" d="M55.5048 88.5803C55.8828 92.2801 44.4777 96.4807 30.0337 97.9625C15.5898 99.4442 3.57155 97.6464 3.19058 93.9496C2.80962 90.2528 14.2029 86.0492 28.6617 84.5675C43.1205 83.0858 55.1268 84.8835 55.5048 88.5803Z" fill="#E7E7E7"/>
<path opacity="0.14" d="M54.6387 88.6459C55.0048 92.2235 43.9926 96.29 30.0427 97.721C16.0928 99.152 4.48825 97.4229 4.12216 93.8453C3.75608 90.2678 14.7654 86.2013 28.7182 84.7702C42.6711 83.3392 54.2727 85.0684 54.6387 88.6459Z" fill="#DBDBDB"/>
<path opacity="0.19" d="M53.7726 88.7114C54.1268 92.1757 43.5074 96.1021 30.0546 97.4824C16.6018 98.8627 5.40495 97.1843 5.05374 93.7111C4.70254 90.2378 15.319 86.3234 28.7748 84.9431C42.2306 83.5627 53.4185 85.265 53.7726 88.7114Z" fill="#CECECE"/>
<path opacity="0.24" d="M52.9065 88.78C53.2488 92.1221 43.0223 95.9113 30.0635 97.241C17.1048 98.5706 6.32463 96.9428 5.98236 93.5918C5.64008 90.2409 15.8666 86.4576 28.8254 85.1309C41.7841 83.8042 52.5643 85.435 52.9065 88.78Z" fill="#C2C2C2"/>
<path opacity="0.29" d="M52.0405 88.8427C52.3678 92.0685 42.5342 95.7206 30.0754 96.9995C17.6167 98.2785 7.2443 96.7014 6.91393 93.4697C6.58356 90.2379 16.4172 86.5948 28.87 85.3158C41.3228 84.0368 51.7101 85.6169 52.0405 88.8427Z" fill="#B6B6B6"/>
<path opacity="0.33" d="M51.1714 88.9113C51.4898 92.0207 42.049 95.5357 30.0844 96.761C18.1197 97.9863 8.16398 96.4629 7.84551 93.3564C7.52705 90.2499 16.9649 86.7319 28.9325 85.5036C40.9002 84.2753 50.8559 85.8018 51.1714 88.9113Z" fill="#AAAAAA"/>
<path opacity="0.38" d="M50.2993 88.9769C50.5969 91.9582 41.5579 95.3449 30.0903 96.5225C18.6226 97.7001 9.07769 96.2244 8.77113 93.2431C8.46457 90.2618 17.5155 86.8721 28.9831 85.6974C40.4508 84.5228 50.0017 85.9866 50.2993 88.9769Z" fill="#9E9E9E"/>
<path opacity="0.43" d="M49.4392 89.0424C49.7368 91.9164 41.0788 95.157 30.0933 96.281C19.1078 97.4049 9.99141 95.9828 9.69676 93.1178C9.40211 90.2528 18.0601 87.0032 29.0426 85.8792C40.0252 84.7553 49.1475 86.1595 49.4392 89.0424Z" fill="#929292"/>
<path opacity="0.48" d="M48.5731 89.108C48.8707 91.8627 40.5907 94.9692 30.1201 96.0425C19.6495 97.1158 10.923 95.7444 10.6432 92.9986C10.3635 90.2528 18.6256 87.1404 29.0962 86.0641C39.5668 84.9879 48.2903 86.3533 48.5731 89.108Z" fill="#868686"/>
<path opacity="0.52" d="M47.707 89.1735C47.9748 91.812 40.1055 94.7784 30.126 95.804C20.1465 96.8295 11.8397 95.5058 11.5718 92.8823C11.304 90.2587 19.1733 87.2745 29.1498 86.2519C39.1263 85.2293 47.4361 86.5351 47.707 89.1735Z" fill="#797979"/>
<path opacity="0.57" d="M46.8409 89.2392C47.0968 91.7584 39.6204 94.5906 30.1379 95.5626C20.6555 96.5345 12.7594 95.2823 12.5004 92.7631C12.2415 90.2439 19.7209 87.4117 29.2004 86.4398C38.6799 85.4679 46.5819 86.72 46.8409 89.2392Z" fill="#6D6D6D"/>
<path opacity="0.62" d="M45.9748 89.3048C46.2188 91.7077 39.1293 94.3999 30.1469 95.3241C21.1644 96.2483 13.679 95.0438 13.432 92.6409C13.185 90.238 20.2775 87.5458 29.2599 86.6246C38.2424 85.7034 45.7277 86.9048 45.9748 89.3048Z" fill="#616161"/>
<path opacity="0.67" d="M45.1057 89.3704C45.3408 91.654 38.6471 94.212 30.1588 95.0825C21.6704 95.953 14.5987 94.8082 14.3636 92.5246C14.1285 90.2409 20.834 87.683 29.3135 86.8124C37.7929 85.9419 44.8735 87.0867 45.1057 89.3704Z" fill="#555555"/>
<path opacity="0.71" d="M44.2396 89.4389C44.4628 91.6063 38.162 94.0271 30.1677 94.847C22.1734 95.6668 15.5184 94.5757 15.2862 92.4083C15.0541 90.2409 21.3668 87.823 29.3581 87.0032C37.3495 86.1833 44.0193 87.2715 44.2396 89.4389Z" fill="#494949"/>
<path opacity="0.76" d="M43.3735 89.5015C43.5818 91.5497 37.6769 93.8334 30.1796 94.6025C22.6823 95.3717 16.4381 94.3372 16.2267 92.289C16.0154 90.2409 21.9263 87.9483 29.4206 87.188C36.9149 86.4278 43.1562 87.4564 43.3735 89.5015Z" fill="#3D3D3D"/>
<path opacity="0.81" d="M42.5074 89.5671C42.7038 91.499 37.1887 93.6456 30.1915 94.3641C23.1942 95.0826 17.3548 94.0987 17.1583 92.1698C16.9619 90.2409 22.4769 88.0914 29.4653 87.3729C36.4536 86.6544 42.3109 87.6502 42.5074 89.5671Z" fill="#313131"/>
<path opacity="0.86" d="M41.6413 89.6357C41.8258 91.4483 36.7036 93.4577 30.2004 94.1076C23.6972 94.7576 18.2744 93.8483 18.0899 92.0356C17.9054 90.223 23.0276 88.2136 29.5308 87.5458C36.034 86.878 41.4568 87.8231 41.6413 89.6357Z" fill="#242424"/>
<path opacity="0.9" d="M40.7752 89.7013C40.9478 91.3946 36.2185 93.2788 30.2123 93.8751C24.2062 94.4714 19.2001 93.6187 19.0215 91.9223C18.8429 90.226 23.5782 88.3448 29.5843 87.7485C35.5905 87.1523 40.5996 88.0049 40.7752 89.7013Z" fill="#181818"/>
<path opacity="0.95" d="M39.9091 89.7669C40.0698 91.344 35.7423 93.0791 30.2213 93.6426C24.7002 94.206 20.1019 93.3891 19.9531 91.812C19.8042 90.2349 24.1199 88.4998 29.6379 87.9364C35.1559 87.3729 39.7454 88.1898 39.9091 89.7669Z" fill="#0C0C0C"/>
<path opacity="0.1" d="M39.04 89.8324C39.1888 91.2903 35.2452 92.8912 30.2332 93.41C25.2211 93.9287 21.0335 93.1595 20.8846 91.7017C20.7358 90.2438 24.6794 88.6429 29.6915 88.1241C34.7036 87.6054 38.8912 88.3746 39.04 89.8324Z" fill="black"/>
</g>
<path d="M23.6347 75.9485C23.6347 75.9485 27.7063 84.639 29.2718 86.6245C30.8373 88.6101 31.1766 88.7711 32.3374 89.427C33.4981 90.0828 34.4506 90.4943 34.2541 91.7017L36.781 88.8009C36.781 88.8009 37.1709 87.7157 35.7482 87.1761C34.3256 86.6365 32.7898 85.8494 31.7689 83.8579C30.7481 81.8664 27.3819 75.5669 27.3819 75.5669L23.6347 75.9485Z" fill="url(#paint0_linear)"/>
<path d="M23.6466 68.8112C23.8252 68.7933 26.8819 72.8569 26.8819 72.8569C26.8819 72.8569 27.9206 74.4101 27.7747 75.2598L29.9623 72.8151C29.9623 72.8151 30.2599 72.189 30.0367 71.7568C29.8135 71.3245 27.4265 67.6008 27.4265 67.6008L23.6466 68.8112Z" fill="url(#paint1_linear)"/>
<path d="M12.4379 72.7049C12.4379 72.7049 15.5898 71.9 16.3458 73.2803C17.1018 74.6607 20.0066 79.0342 22.09 88.7175C22.2895 89.6825 22.3893 90.6656 22.3877 91.6511C22.34 92.9778 23.3669 94.1017 26.2092 93.4011C28.3729 92.8768 30.5694 92.4993 32.7838 92.2712C33.9119 92.1549 35.3286 91.3261 34.2273 90.3453C33.1261 89.3644 31.3284 89.594 29.5456 86.401C27.7628 83.208 24.8818 77.3021 24.8818 77.3021C24.8442 77.2338 24.8221 77.1581 24.817 77.0803C24.8119 77.0025 24.824 76.9246 24.8524 76.852C24.8809 76.7794 24.9249 76.714 24.9814 76.6604C25.0379 76.6068 25.1055 76.5663 25.1794 76.5419C25.7747 76.2437 28.3521 75.716 27.8581 74.5772C27.364 73.4383 24.724 69.509 23.7835 68.7935L12.2177 72.3114L12.4379 72.7049Z" fill="url(#paint2_linear)"/>
<path d="M25.4592 35.9126C22.4353 37.0664 21.3549 41.9975 22.4531 47.9302L34.0398 40.4949C31.2272 36.8517 27.9771 34.9556 25.4592 35.9126Z" fill="url(#paint3_linear)"/>
<path d="M25.1735 92.775C25.1756 91.6541 25.0609 90.536 24.8312 89.4389C22.4502 78.423 19.1554 73.4472 18.2833 71.8761C17.9857 71.3096 17.3101 71.0652 16.5869 70.9817L12.2296 72.3054L12.426 72.6989C12.426 72.6989 15.5779 71.894 16.3339 73.2743C17.0899 74.6547 19.9947 79.0282 22.0781 88.7115C22.2776 89.6765 22.3774 90.6596 22.3757 91.6451C22.3341 92.8137 23.1258 93.8244 25.2598 93.568C25.1862 93.3105 25.157 93.0423 25.1735 92.775Z" fill="url(#paint4_linear)"/>
<path d="M32.7868 92.2712C33.1952 92.2256 33.5906 92.1 33.9505 91.9015C34.1289 91.8035 34.2889 91.6754 34.4238 91.5229C34.4907 91.4482 34.5409 91.3602 34.5712 91.2646C34.6015 91.169 34.6111 91.068 34.5994 90.9684C34.5546 90.7711 34.4508 90.5921 34.3017 90.4556C34.1556 90.3152 33.9938 90.1922 33.8196 90.0889C33.4714 89.8802 33.0904 89.7222 32.7213 89.5463C31.962 89.2139 31.2777 88.7312 30.7094 88.1272C30.1577 87.5136 29.6875 86.8312 29.3105 86.0969C28.5158 84.6599 27.7569 83.2021 27.0098 81.7412C26.2628 80.2804 25.5396 78.8047 24.8223 77.3289C24.7585 77.2061 24.7375 77.0655 24.7627 76.9294C24.7926 76.7955 24.8698 76.677 24.98 76.5955C25.1913 76.461 25.4223 76.3604 25.6646 76.2974C26.127 76.1536 26.5794 75.9793 27.0188 75.7757C27.2338 75.6716 27.434 75.5393 27.614 75.3821C27.7031 75.3114 27.7741 75.2204 27.8212 75.1167C27.8683 75.013 27.8901 74.8996 27.8849 74.7859C27.8636 74.6711 27.8244 74.5605 27.7688 74.4579C27.7182 74.3476 27.6616 74.2403 27.6051 74.1359C27.489 73.9213 27.367 73.7096 27.242 73.5009C26.739 72.6691 26.2003 71.8582 25.6437 71.0592C25.3639 70.6598 25.0782 70.2662 24.7776 69.8667C24.4904 69.4786 24.1665 69.1192 23.8103 68.7935C24.1765 69.1159 24.5105 69.4734 24.8074 69.8608C25.105 70.2394 25.4026 70.6299 25.7003 71.0235C26.2757 71.8185 26.8184 72.6284 27.3283 73.4532C27.4533 73.6619 27.5783 73.8736 27.6974 74.0882C27.7539 74.1956 27.8134 74.3029 27.867 74.4162C27.9272 74.5281 27.9694 74.6489 27.992 74.7739C28 74.9037 27.9772 75.0334 27.9254 75.1526C27.8737 75.2718 27.7945 75.377 27.6944 75.4596C27.5109 75.6242 27.3055 75.7627 27.0842 75.8711C26.643 76.0817 26.1875 76.261 25.7211 76.4077C25.4923 76.4745 25.2746 76.5749 25.0752 76.7058C24.9879 76.7708 24.9267 76.8649 24.9026 76.9712C24.8836 77.0779 24.9004 77.188 24.9502 77.2842L27.1438 81.6876C27.8819 83.1514 28.6319 84.6122 29.4117 86.0522C29.7804 86.782 30.2427 87.4606 30.7867 88.0705C31.3432 88.6694 32.0143 89.15 32.76 89.4837C33.137 89.6481 33.5046 89.8333 33.8613 90.0382C34.0369 90.1488 34.1997 90.2788 34.3464 90.4258C34.4999 90.5722 34.6039 90.7629 34.644 90.9714C34.6551 91.0765 34.6436 91.1828 34.6102 91.283C34.5769 91.3833 34.5224 91.4753 34.4506 91.5527C34.3109 91.7074 34.1445 91.8357 33.9595 91.9313C33.5941 92.1194 33.1959 92.2348 32.7868 92.2712Z" fill="white"/>
<path d="M12.2415 72.3113L12.4409 72.7048C13.0256 72.5581 13.6242 72.4742 14.2267 72.4544C14.8313 72.4013 15.4384 72.5256 15.9737 72.8121C16.1023 72.8973 16.2159 73.003 16.3101 73.1252C16.4023 73.2534 16.4648 73.3875 16.5422 73.5157L16.9916 74.2909C17.2893 74.8126 17.572 75.3373 17.8458 75.871C18.9166 78.0114 19.8163 80.2334 20.5364 82.5163C20.8955 83.6591 21.2209 84.8109 21.5126 85.9716C21.6585 86.55 21.8103 87.1343 21.9293 87.7156C22.0484 88.297 22.1972 88.8843 22.2835 89.4806C22.3748 90.0728 22.4275 90.6703 22.4412 91.2694C22.4225 91.5679 22.4344 91.8676 22.4769 92.1637C22.5295 92.4523 22.6591 92.7211 22.852 92.9419C23.0609 93.1515 23.3091 93.3176 23.5824 93.4307C23.8557 93.5438 24.1486 93.6016 24.4443 93.6007C25.0456 93.6192 25.6466 93.554 26.23 93.4069C25.6483 93.566 25.0473 93.6432 24.4443 93.6365C23.8322 93.6485 23.2403 93.417 22.7984 92.9925C22.5941 92.7622 22.4553 92.4811 22.3966 92.1786C22.3536 91.8826 22.3396 91.583 22.3549 91.2843C22.3392 90.6848 22.2826 90.0872 22.1853 89.4955C22.096 88.8992 21.9561 88.3238 21.8222 87.7425C21.6882 87.1611 21.5454 86.5798 21.3936 86.0014C21.092 84.8447 20.7596 83.6978 20.3965 82.561C19.6874 80.2789 18.8007 78.056 17.7446 75.9127C17.4768 75.379 17.194 74.8543 16.9023 74.3326L16.4589 73.5545C16.3815 73.4263 16.319 73.2862 16.2357 73.1699C16.1488 73.0527 16.042 72.9518 15.9202 72.8718C15.3991 72.5861 14.8076 72.4547 14.2148 72.4931C13.6136 72.5012 13.015 72.5732 12.429 72.7078L12.2415 72.3113Z" fill="white"/>
<path d="M25.4592 35.9127C25.4592 35.9127 6.5657 43.6641 1.03575 47.5547C0.0505981 48.2493 -0.324414 51.5765 0.318464 55.6996L25.6854 46.9137L31.76 55.3329L4.63408 67.1001C6.22046 69.5225 8.36383 71.5284 10.8843 72.9494C13.0778 74.1598 35.1202 65.5886 35.1202 65.5886L25.4592 35.9127Z" fill="url(#paint5_linear)"/>
<path d="M25.6854 46.9137L0.318459 55.6996C0.892883 59.3278 2.22626 63.5344 4.63408 67.1001L31.76 55.3329L25.6854 46.9137Z" fill="url(#paint6_linear)"/>
<path d="M38.3049 47.8557C41.3794 55.947 40.5728 63.7639 36.5191 65.3112C32.4654 66.8585 26.6705 61.5548 23.599 53.4606C20.5275 45.3663 21.3311 37.5524 25.3848 36.0051C29.4385 34.4578 35.2333 39.7615 38.3049 47.8557Z" fill="url(#paint7_linear)"/>
<path d="M38.0965 47.8796C41.168 55.9709 40.4954 63.7342 36.6084 65.2188C32.7213 66.7035 27.0575 61.3432 23.9889 53.2549C20.9203 45.1666 21.587 37.3974 25.477 35.9127C29.3671 34.428 35.0101 39.7854 38.0965 47.8796Z" fill="url(#paint8_linear)"/>
<path d="M25.4592 35.9126C22.4353 37.0664 21.3549 41.9975 22.4531 47.9302L34.0398 40.4949C31.2272 36.8517 27.9771 34.9556 25.4592 35.9126Z" fill="url(#paint9_linear)"/>
<path d="M65.3772 63.8444C65.3772 63.8444 48.1147 62.2435 35.9119 64.1426C35.9119 64.1426 30.257 63.0812 26.358 53.5411C21.8013 42.3552 26.4027 37.9399 26.4027 37.9399L45.8349 18.6479C45.8349 18.6479 48.5135 39.6721 65.3772 63.8444Z" fill="url(#paint10_linear)"/>
<path d="M24.5723 47.2982C24.5723 47.2982 39.3555 39.4604 50.4124 30.114C50.4124 30.114 50.8886 40.79 57.868 50.9384C57.868 50.9384 33.5547 54.0538 28.0248 56.9517C28.0248 56.9427 25.7538 53.6424 24.5723 47.2982Z" fill="url(#paint11_linear)"/>
<path d="M83.8927 28.528C91.3959 47.2059 89.9018 65.1712 80.1485 68.8024C70.3952 72.4336 56.4096 60.2371 48.8975 41.5593C41.3853 22.8814 43.2336 4.79986 52.978 1.16864C62.7223 -2.46258 76.3924 9.85316 83.8927 28.528Z" fill="white"/>
<path d="M83.8927 28.5279C91.3929 47.2058 89.9822 65.1383 80.339 68.7278C70.6958 72.3173 56.7995 60.082 49.3022 41.4072C41.805 22.7323 43.5431 4.68054 53.1863 1.09105C62.8295 -2.49843 76.3954 9.83819 83.8927 28.5279Z" fill="url(#paint12_linear)"/>
<path d="M83.8927 28.528C91.4048 47.1998 90.3453 65.0042 81.5295 68.2925C72.7137 71.5809 59.4752 59.1072 51.966 40.4353C44.4568 21.7634 45.5134 3.95908 54.3471 0.670709C63.1807 -2.61766 76.3835 9.85609 83.8927 28.528Z" fill="url(#paint13_linear)"/>
<path d="M83.8957 28.528C91.3989 47.2029 90.5298 64.9327 81.9551 68.1256C73.3804 71.3186 60.3502 58.7703 52.847 40.1014C45.3438 21.4325 46.2099 3.69975 54.7846 0.503802C63.3593 -2.69215 76.3924 9.85316 83.8957 28.528Z" fill="url(#paint14_linear)"/>
<path d="M84.1576 29.2167C77.5443 11.9252 65.9248 0.134119 58.2014 2.89778C51.8708 5.16357 50.1267 16.5014 53.344 30.0276C53.344 30.0276 54.9364 35.549 55.6596 37.779C56.4156 40.0954 59.6121 46.857 59.6121 46.857C66.3296 59.8167 75.6275 67.8454 82.1456 65.514C89.884 62.7503 90.7769 46.5082 84.1576 29.2167Z" fill="url(#paint15_linear)"/>
<path d="M82.3569 29.6012C76.1335 13.3263 65.1956 2.23884 57.9275 4.84152C51.975 6.97613 50.3231 17.6611 53.356 30.3913C53.356 30.3913 53.9512 32.0548 54.3232 33.3726L65.1629 29.9918L69.3297 40.9182L58.7788 45.2053C59.0764 45.8374 59.2609 46.2339 59.2609 46.2339C65.5766 58.4334 74.3269 65.982 80.464 63.7997C87.7321 61.1821 88.5803 45.8791 82.3569 29.6012Z" fill="url(#paint16_radial)"/>
<path d="M80.4878 64.0085C81.9358 63.4435 83.1611 62.4223 83.979 61.0987C84.7911 59.7876 85.3786 58.3497 85.7172 56.8444C86.4493 53.8422 86.5386 50.7208 86.3451 47.6471C85.9225 41.4818 84.3748 35.4238 82.1545 29.6758C79.9342 23.9279 77.0234 18.4035 73.2167 13.547C71.303 11.1351 69.1511 8.87531 66.6183 7.11635C65.3642 6.21785 63.9745 5.52637 62.5021 5.06819C61.0236 4.59117 59.4328 4.59117 57.9543 5.06819C59.4319 4.56541 61.0298 4.53934 62.5229 4.99366C64.009 5.43621 65.4155 6.11245 66.6897 6.99709C69.2613 8.74413 71.4518 10.998 73.3864 13.4039C75.3175 15.8341 77.0343 18.4276 78.5175 21.1553C81.5093 26.5917 83.7539 32.4082 85.1904 38.4468C85.9206 41.4631 86.3857 44.5376 86.5803 47.6352C86.7469 50.7268 86.6309 53.8661 85.866 56.8772C85.4963 58.3893 84.8777 59.8291 84.0355 61.1375C83.195 62.4545 81.9499 63.4621 80.4878 64.0085Z" fill="white"/>
<path d="M65.1629 29.98L54.3232 33.3608C54.8114 35.0214 55.4453 37.1619 55.8114 38.3306C56.3471 39.9673 58.1716 43.9533 59.0526 45.8464L69.6035 41.5593L65.1629 29.98Z" fill="url(#paint17_linear)"/>
<path d="M58.0525 43.6223L68.4338 39.1861L67.6183 37.9906L57.2757 41.911L58.0525 43.6223Z" fill="#EDEEEF"/>
<path d="M69.9428 34.7857C71.175 37.9817 71.0292 41.0136 69.6184 41.5592C68.2076 42.1048 66.0736 39.9493 64.8385 36.7563C63.6033 33.5634 63.7521 30.5254 65.1629 29.9798C66.5737 29.4343 68.7136 31.6017 69.9428 34.7857Z" fill="url(#paint18_linear)"/>
<path d="M68.7047 35.2628C69.3386 36.9085 69.2642 38.4707 68.538 38.7509C67.8118 39.0311 66.7106 37.9251 66.0766 36.2764C65.4427 34.6278 65.5171 33.0686 66.2433 32.7883C66.9695 32.5081 68.0707 33.6171 68.7047 35.2628Z" fill="url(#paint19_linear)"/>
<g opacity="0.2">
<path opacity="0.2" d="M49.2755 32.198L46.82 34.0881C47.8916 37.6874 49.1888 41.2153 50.7041 44.6509C52.4452 48.4819 54.6417 51.7076 54.8709 52.3635C55.9781 51.3648 55.1685 51.8477 57.1835 50.9712C57.1835 50.9712 53.1774 43.4912 52.1029 40.8795C51.2309 38.7807 49.2755 32.198 49.2755 32.198Z" fill="url(#paint20_linear)"/>
</g>
<path d="M28.4176 71.1724C28.5149 71.32 28.5497 71.5001 28.5146 71.6734C28.4794 71.8466 28.3771 71.9988 28.2301 72.0967H28.2093C28.062 72.1941 27.8822 72.229 27.7092 72.1938C27.5362 72.1586 27.3843 72.0561 27.2866 71.9088L26.7866 71.1486C26.7379 71.0758 26.7041 70.9942 26.687 70.9083C26.6699 70.8224 26.67 70.734 26.6871 70.6481C26.7043 70.5622 26.7382 70.4806 26.7869 70.4079C26.8357 70.3351 26.8983 70.2728 26.9711 70.2244L26.992 70.2095C27.1393 70.1121 27.3191 70.0772 27.4921 70.1124C27.665 70.1476 27.817 70.2501 27.9146 70.3973L28.4176 71.1724Z" fill="url(#paint21_linear)"/>
<path d="M28.4176 71.1724C28.5149 71.32 28.5497 71.5001 28.5146 71.6734C28.4794 71.8466 28.3771 71.9988 28.2301 72.0967H28.2093C28.062 72.1941 27.8822 72.229 27.7092 72.1938C27.5362 72.1586 27.3843 72.0561 27.2866 71.9088L26.7866 71.1486C26.7379 71.0758 26.7041 70.9942 26.687 70.9083C26.6699 70.8224 26.67 70.734 26.6871 70.6481C26.7043 70.5622 26.7382 70.4806 26.7869 70.4079C26.8357 70.3351 26.8983 70.2728 26.9711 70.2244L26.992 70.2095C27.1393 70.1121 27.3191 70.0772 27.4921 70.1124C27.665 70.1476 27.817 70.2501 27.9146 70.3973L28.4176 71.1724Z" fill="url(#paint22_linear)"/>
<path d="M28.4176 71.1724C28.5149 71.32 28.5497 71.5001 28.5146 71.6734C28.4794 71.8466 28.3771 71.9988 28.2301 72.0967H28.2093C28.062 72.1941 27.8822 72.229 27.7092 72.1938C27.5362 72.1586 27.3843 72.0561 27.2866 71.9088L26.7866 71.1486C26.7379 71.0758 26.7041 70.9942 26.687 70.9083C26.6699 70.8224 26.67 70.734 26.6871 70.6481C26.7043 70.5622 26.7382 70.4806 26.7869 70.4079C26.8357 70.3351 26.8983 70.2728 26.9711 70.2244L26.992 70.2095C27.1393 70.1121 27.3191 70.0772 27.4921 70.1124C27.665 70.1476 27.817 70.2501 27.9146 70.3973L28.4176 71.1724Z" fill="url(#paint23_linear)"/>
<path d="M28.4176 71.1724C28.5149 71.32 28.5497 71.5001 28.5146 71.6734C28.4794 71.8466 28.3771 71.9988 28.2301 72.0967H28.2093C28.062 72.1941 27.8822 72.229 27.7092 72.1938C27.5362 72.1586 27.3843 72.0561 27.2866 71.9088L26.7866 71.1486C26.7379 71.0758 26.7041 70.9942 26.687 70.9083C26.6699 70.8224 26.67 70.734 26.6871 70.6481C26.7043 70.5622 26.7382 70.4806 26.7869 70.4079C26.8357 70.3351 26.8983 70.2728 26.9711 70.2244L26.992 70.2095C27.1393 70.1121 27.3191 70.0772 27.4921 70.1124C27.665 70.1476 27.817 70.2501 27.9146 70.3973L28.4176 71.1724Z" fill="#A435C0"/>
<path d="M27.9206 70.4213C27.111 70.6926 27.2747 71.6555 27.37 72.0252C27.4785 72.1344 27.6213 72.2026 27.7742 72.2183C27.9272 72.2341 28.0809 72.1964 28.2093 72.1117H28.2301C28.3771 72.0138 28.4794 71.8616 28.5146 71.6884C28.5497 71.5151 28.5149 71.335 28.4176 71.1875L27.9206 70.4213Z" fill="#2A0E59"/>
<defs>
<linearGradient id="paint0_linear" x1="28.8057" y1="81.2793" x2="42.0739" y2="100.234" gradientUnits="userSpaceOnUse">
<stop offset="0.13" stop-color="#999999"/>
<stop offset="0.56" stop-color="#F5F6F8"/>
<stop offset="1" stop-color="white"/>
</linearGradient>
<linearGradient id="paint1_linear" x1="560.85" y1="1721.24" x2="738.044" y2="2004.7" gradientUnits="userSpaceOnUse">
<stop offset="0.13" stop-color="#999999"/>
<stop offset="0.56" stop-color="#F5F6F8"/>
<stop offset="1" stop-color="white"/>
</linearGradient>
<linearGradient id="paint2_linear" x1="945.488" y1="6855.07" x2="2902.17" y2="6340.94" gradientUnits="userSpaceOnUse">
<stop offset="0.13" stop-color="#999999"/>
<stop offset="0.56" stop-color="#F5F6F8"/>
<stop offset="1" stop-color="white"/>
</linearGradient>
<linearGradient id="paint3_linear" x1="20.2843" y1="43.3949" x2="42.6647" y2="34.4389" gradientUnits="userSpaceOnUse">
<stop stop-color="#CB6521"/>
<stop offset="0.33" stop-color="#FF9C4F"/>
<stop offset="0.66" stop-color="#FBB03B"/>
<stop offset="1" stop-color="#FCEE21"/>
</linearGradient>
<linearGradient id="paint4_linear" x1="613.834" y1="4995.41" x2="2419.53" y2="8124.45" gradientUnits="userSpaceOnUse">
<stop offset="0.13" stop-color="#999999"/>
<stop offset="0.56" stop-color="#F5F6F8"/>
<stop offset="1" stop-color="white"/>
</linearGradient>
<linearGradient id="paint5_linear" x1="1636.26" y1="5082.88" x2="3695.25" y2="10291.2" gradientUnits="userSpaceOnUse">
<stop stop-color="#290D58"/>
<stop offset="0.33" stop-color="#5A157F"/>
<stop offset="0.66" stop-color="#70198F"/>
<stop offset="1" stop-color="#A54EC6"/>
</linearGradient>
<linearGradient id="paint6_linear" x1="-121.36" y1="3916.64" x2="4887.39" y2="2052.79" gradientUnits="userSpaceOnUse">
<stop stop-color="#2A0E59"/>
<stop offset="0.33" stop-color="#721991"/>
<stop offset="0.66" stop-color="#902CB5"/>
<stop offset="1" stop-color="#B251D5"/>
</linearGradient>
<linearGradient id="paint7_linear" x1="1795.92" y1="3721.01" x2="3211.44" y2="6390.76" gradientUnits="userSpaceOnUse">
<stop stop-color="#671888"/>
<stop offset="0.33" stop-color="#2A0E59"/>
<stop offset="0.66" stop-color="#6334B4"/>
<stop offset="1" stop-color="#9E2ECD"/>
</linearGradient>
<linearGradient id="paint8_linear" x1="1387.1" y1="5147.02" x2="2820.2" y2="4899.31" gradientUnits="userSpaceOnUse">
<stop stop-color="#2A0E59"/>
<stop offset="0.33" stop-color="#671888"/>
<stop offset="0.66" stop-color="#A131D0"/>
<stop offset="1" stop-color="#B644E6"/>
</linearGradient>
<linearGradient id="paint9_linear" x1="1190.43" y1="1385.8" x2="1389.9" y2="2599.57" gradientUnits="userSpaceOnUse">
<stop stop-color="#2A0E59"/>
<stop offset="0.33" stop-color="#671888"/>
<stop offset="0.66" stop-color="#8E2BB7"/>
<stop offset="1" stop-color="#AF44DC"/>
</linearGradient>
<linearGradient id="paint10_linear" x1="4748.87" y1="2660.52" x2="7054.1" y2="9574.8" gradientUnits="userSpaceOnUse">
<stop offset="0.13" stop-color="#999999"/>
<stop offset="0.56" stop-color="#F5F6F8"/>
<stop offset="1" stop-color="white"/>
</linearGradient>
<linearGradient id="paint11_linear" x1="55.5705" y1="39.9443" x2="7.13559" y2="59.5679" gradientUnits="userSpaceOnUse">
<stop stop-color="#F5F6F8"/>
<stop offset="1" stop-color="#E6E6E6"/>
</linearGradient>
<linearGradient id="paint12_linear" x1="32.1463" y1="43.8258" x2="80.106" y2="31.5113" gradientUnits="userSpaceOnUse">
<stop offset="0.13" stop-color="#999999"/>
<stop offset="0.56" stop-color="#E6E6E6"/>
<stop offset="1" stop-color="#F2F2F2"/>
</linearGradient>
<linearGradient id="paint13_linear" x1="9901.81" y1="8339.19" x2="4620.03" y2="8832.42" gradientUnits="userSpaceOnUse">
<stop stop-color="#711890"/>
<stop offset="0.33" stop-color="#741994"/>
<stop offset="0.66" stop-color="#8C25B0"/>
<stop offset="1" stop-color="#9F2FC7"/>
</linearGradient>
<linearGradient id="paint14_linear" x1="12274.3" y1="7684.92" x2="3271.85" y2="8500.07" gradientUnits="userSpaceOnUse">
<stop stop-color="#711890"/>
<stop offset="0.33" stop-color="#711890"/>
<stop offset="0.66" stop-color="#7F1FA0"/>
<stop offset="1" stop-color="#A02FC8"/>
</linearGradient>
<linearGradient id="paint15_linear" x1="50.709" y1="36.2026" x2="101.361" y2="31.0217" gradientUnits="userSpaceOnUse">
<stop stop-color="#2A0E59"/>
<stop offset="0.33" stop-color="#671888"/>
<stop offset="0.66" stop-color="#8D26B1"/>
<stop offset="1" stop-color="#A02FC8"/>
</linearGradient>
<radialGradient id="paint16_radial" cx="0" cy="0" r="1" gradientUnits="userSpaceOnUse" gradientTransform="translate(31.0491 44.9453) rotate(-5.85978) scale(67.9677 68.0798)">
<stop offset="0.16" stop-color="#999999"/>
<stop offset="0.55" stop-color="#E6E6E6"/>
<stop offset="0.73" stop-color="#EBEBEB"/>
<stop offset="0.95" stop-color="#FAFAFA"/>
<stop offset="1" stop-color="white"/>
</radialGradient>
<linearGradient id="paint17_linear" x1="3279.53" y1="1701.51" x2="3553.49" y2="2797" gradientUnits="userSpaceOnUse">
<stop offset="0.13" stop-color="#999999"/>
<stop offset="0.56" stop-color="#F5F6F8"/>
<stop offset="1" stop-color="white"/>
</linearGradient>
<linearGradient id="paint18_linear" x1="65.9158" y1="36.0774" x2="74.8113" y2="34.2056" gradientUnits="userSpaceOnUse">
<stop stop-color="#2A0E59"/>
<stop offset="0.43" stop-color="#671888"/>
<stop offset="1" stop-color="#9825C8"/>
</linearGradient>
<linearGradient id="paint19_linear" x1="883.798" y1="753.883" x2="931.912" y2="873.238" gradientUnits="userSpaceOnUse">
<stop offset="0.13" stop-color="#999999"/>
<stop offset="0.56" stop-color="#F5F6F8"/>
<stop offset="1" stop-color="white"/>
</linearGradient>
<linearGradient id="paint20_linear" x1="2085.62" y1="2791.04" x2="1473.15" y2="2895.96" gradientUnits="userSpaceOnUse">
<stop stop-color="#F5F6F8"/>
<stop offset="1" stop-color="#E6E6E6"/>
</linearGradient>
<linearGradient id="paint21_linear" x1="192.895" y1="549.871" x2="202.708" y2="566.021" gradientUnits="userSpaceOnUse">
<stop stop-color="#CB6521"/>
<stop offset="0.33" stop-color="#FF9C4F"/>
<stop offset="0.66" stop-color="#FBB03B"/>
<stop offset="1" stop-color="#FCEE21"/>
</linearGradient>
<linearGradient id="paint22_linear" x1="192.895" y1="549.871" x2="202.708" y2="566.021" gradientUnits="userSpaceOnUse">
<stop stop-color="#CB6521"/>
<stop offset="0.33" stop-color="#FF9C4F"/>
<stop offset="0.66" stop-color="#FBB03B"/>
<stop offset="1" stop-color="#FCEE21"/>
</linearGradient>
<linearGradient id="paint23_linear" x1="192.895" y1="549.871" x2="202.708" y2="566.021" gradientUnits="userSpaceOnUse">
<stop stop-color="#CB6521"/>
<stop offset="0.33" stop-color="#FF9C4F"/>
<stop offset="0.66" stop-color="#FBB03B"/>
<stop offset="1" stop-color="#FCEE21"/>
</linearGradient>
</defs>
</svg>
