<svg width="79" height="91" viewBox="0 0 79 91" fill="none" xmlns="http://www.w3.org/2000/svg">
<g opacity="0.1" filter="url(#filter0_f)">
<ellipse cx="19" cy="86.5" rx="17" ry="2.5" fill="#C4C4C4"/>
</g>
<g opacity="0.1" filter="url(#filter1_f)">
<ellipse cx="60" cy="87.5" rx="17" ry="1.5" fill="#C4C4C4"/>
</g>
<path d="M15.7947 81.6651C15.7947 81.6651 15.7851 81.7643 15.7851 81.9289C15.7851 82.4241 15.8698 83.5129 16.5523 84.32C17.462 85.3937 17.4676 86.7305 16.5061 86.9571C15.5447 87.1836 13.2534 86.8841 13.2534 86.8841C13.2534 86.8841 12.7355 85.8627 13.0888 83.1348C13.4421 80.4069 13.648 77.4145 13.648 77.4145L16.2596 76.9517L15.7947 81.6651Z" fill="#FF7446"/>
<path d="M16.3064 82.8249C16.3064 82.8249 17.2754 84.316 17.502 84.9386C17.7286 85.5611 17.6797 87.108 17.502 87.2677C15.9352 88.6706 12.9655 87.4055 12.9655 87.4055C12.8241 86.6475 12.7215 85.8827 12.6584 85.1142C12.5551 83.8518 12.6136 82.6748 12.9655 82.6748C13.3174 82.6748 13.3787 83.3366 14.1831 83.15C14.9875 82.9634 15.482 82.6383 16.3064 82.8249Z" fill="#422F7F"/>
<path d="M12.719 85.7429C13.323 86.0108 14.1425 86.3235 14.9049 86.4468C15.7182 86.5783 16.814 86.1678 17.6404 85.7581C17.6831 86.4192 17.6218 87.161 17.5027 87.2684C15.9359 88.6713 12.9662 87.4061 12.9662 87.4061C12.9662 87.4061 12.8257 86.7037 12.719 85.7429Z" fill="white"/>
<path d="M23.3311 79.8669C22.9922 81.0756 23.3269 82.4068 24.1961 83.2057C24.5073 83.4966 24.8581 83.7422 25.2381 83.935C26.7594 84.6926 28.7298 84.5197 29.0039 86.07C29.278 87.6203 19.3607 85.6341 19.3607 85.6341C19.3607 85.6341 20.0494 81.8655 20.0935 81.234C20.1376 80.6024 20.0329 78.2843 20.0329 78.2843L23.8641 77.9723L23.3311 79.8669Z" fill="#FF7446"/>
<path d="M19.7615 82.9675C19.7615 82.9675 19.6403 83.5659 19.3621 84.5804C19.1959 85.2236 19.1603 85.8936 19.2574 86.5508C19.2574 86.5508 28.5493 87.0501 28.9253 86.716C29.3014 86.382 29.1085 85.1672 29.0135 85.059C28.9185 84.9509 27.7394 84.59 27.1347 84.1637C26.5301 83.7374 24.4646 82.139 23.7663 82.2037C23.068 82.2684 22.7463 82.8531 21.4213 82.9199C20.0962 82.9867 20.0907 82.6754 19.7615 82.9675Z" fill="#422F7F"/>
<path d="M28.9261 86.716C28.5501 87.05 19.2582 86.5507 19.2582 86.5507C19.1891 86.0854 19.1861 85.6126 19.2492 85.1465C24.0997 86.1657 29.0143 85.0597 29.0143 85.0597C29.1093 85.1671 29.3021 86.382 28.9261 86.716Z" fill="white"/>
<path d="M19.2492 85.1459C22.5618 85.8965 26.234 85.7374 29.0143 85.0591C23.9565 85.9255 19.878 85.254 20.1604 85.2864L19.2492 85.1459Z" fill="#9CB9BD"/>
<path d="M11.9565 42.8149L12.8298 80.9778L17.0067 80.3786C17.0067 80.3786 18.3276 49.7543 19.1038 48.8466C19.88 47.9389 20.1885 48.9037 20.1885 48.9037C20.1885 48.9037 23.5197 61.6446 22.8999 64.1859C22.2801 66.7272 19.5149 80.3421 19.5149 80.3421L23.5197 80.5239C23.5197 80.5239 28.0899 70.086 28.0899 62.8244C28.0899 55.5627 25.2663 43.4912 25.2663 43.4912L11.9565 42.8149Z" fill="#422F7F"/>
<path d="M19.3538 80.5012H24.1768V79.378H19.3538V80.5012Z" fill="#021753"/>
<path d="M12.4593 80.9778H17.3284V79.5591H12.4593V80.9778Z" fill="#021753"/>
<path d="M13.7271 80.1169C13.7362 80.1169 13.7452 80.1158 13.754 80.1135C13.7882 80.1014 13.8168 80.077 13.8341 80.0451C13.8514 80.0131 13.8562 79.9759 13.8476 79.9406C13.0763 75.8993 13.0267 49.6379 13.026 49.3741C13.028 49.3387 13.0162 49.3039 12.9931 49.2769C12.97 49.25 12.9374 49.233 12.9021 49.2295C12.8667 49.2332 12.8342 49.2503 12.8112 49.2774C12.7883 49.3045 12.7766 49.3394 12.7788 49.3748C12.7788 50.4574 12.8291 75.9317 13.6052 80.004C13.6091 80.0341 13.6234 80.0619 13.6457 80.0826C13.6679 80.1032 13.6968 80.1154 13.7271 80.1169Z" fill="#021753"/>
<path d="M20.1941 80.1168C20.221 80.1154 20.2467 80.1054 20.2676 80.0883C20.2884 80.0712 20.3032 80.0479 20.3098 80.0218C20.4971 79.4226 24.8986 65.3277 24.6486 63.3815C24.4041 61.4627 21.5921 49.3795 21.4723 48.8651C21.4698 48.848 21.4638 48.8316 21.4546 48.817C21.4454 48.8024 21.4332 48.7899 21.4189 48.7802C21.4045 48.7706 21.3883 48.7642 21.3713 48.7612C21.3543 48.7583 21.3368 48.7589 21.3201 48.7632C21.2865 48.7771 21.2591 48.8029 21.2431 48.8356C21.2271 48.8683 21.2237 48.9057 21.2333 48.9408C21.2622 49.0662 24.161 61.522 24.4013 63.4235C24.641 65.2974 20.1197 79.7752 20.0742 79.9212C20.0621 79.9559 20.0629 79.9938 20.0765 80.0279C20.09 80.0621 20.1154 80.0902 20.1479 80.1072C20.1624 80.1138 20.1782 80.1171 20.1941 80.1168Z" fill="#021753"/>
<path d="M24.5253 16.0907L30.3552 23.7814L23.4868 26.2869L24.5253 16.0907Z" fill="#711890"/>
<path d="M9.3512 13.6073C10.2369 12.7216 12.2988 12.0708 13.6432 11.7223C14.4155 11.523 15.2193 11.4762 16.0095 11.5845L19.035 11.9978C19.035 11.9978 22.9647 14.5239 24.4378 15.9977C25.9109 17.4715 27.2443 26.6939 27.2443 26.6939L26.5762 30.2097L27.3448 45.6896C27.0067 45.6896 16.8601 46.9292 11.2231 45.2385C11.2231 45.2385 11.2231 36.9824 11.0674 31.9679C10.4077 28.1601 8.17904 14.7794 9.3512 13.6073Z" fill="#9429BA"/>
<path d="M9.41323 13.5474C9.87741 13.1142 10.593 12.765 11.1777 12.5233C11.1777 12.5233 12.2947 11.911 13.3085 16.09C14.3223 20.2691 13.033 25.3544 13.4841 25.8007C13.9352 26.2469 23.8036 25.7408 23.8036 25.7408C23.8036 25.7408 18.0371 29.0596 15.2231 31.4735C14.0943 32.4445 11.1005 32.9535 11.0964 32.9197C11.0881 32.5912 11.0792 32.2731 11.0695 31.9666C10.7521 30.1298 8.05511 14.8139 9.41323 13.5474Z" fill="#711890"/>
<path d="M34.3144 22.3537L29.3558 31.72C29.2994 31.8272 29.2134 31.916 29.1081 31.9757C29.0027 32.0354 28.8824 32.0635 28.7614 32.0568L22.8731 31.7124C22.7741 31.7053 22.6782 31.6754 22.5928 31.6249C22.5075 31.5744 22.435 31.5048 22.3811 31.4215C22.3272 31.3383 22.2934 31.2436 22.2823 31.1451C22.2713 31.0465 22.2832 30.9468 22.3173 30.8536L25.3524 22.3027C25.3935 22.1852 25.4684 22.0825 25.5676 22.0073C25.6668 21.9321 25.786 21.8878 25.9102 21.8799L33.718 21.4116C33.8312 21.4059 33.944 21.4305 34.0446 21.4827C34.1453 21.5349 34.2303 21.6129 34.291 21.7087C34.3516 21.8045 34.3858 21.9147 34.3899 22.028C34.394 22.1413 34.3679 22.2537 34.3144 22.3537Z" fill="#411052"/>
<path d="M21.8511 30.8047L24.9262 22.3337C24.9692 22.2163 25.0457 22.1141 25.1461 22.0397C25.2466 21.9652 25.3667 21.9219 25.4916 21.915L25.7967 21.8971C25.7077 21.929 25.6268 21.9801 25.5599 22.0469C25.493 22.1137 25.4417 22.1945 25.4096 22.2835L22.3339 30.8336C22.3034 30.9187 22.2912 31.0093 22.2981 31.0994C22.305 31.1895 22.3309 31.2772 22.3741 31.3566C22.4173 31.436 22.4768 31.5054 22.5487 31.5602C22.6205 31.6149 22.7032 31.6539 22.7912 31.6745L22.4172 31.6532C22.3183 31.6481 22.2219 31.62 22.1357 31.571C22.0496 31.522 21.976 31.4536 21.921 31.3712C21.866 31.2887 21.8311 31.1946 21.8189 31.0962C21.8068 30.9979 21.8178 30.898 21.8511 30.8047Z" fill="#DB9044"/>
<path d="M10.752 24.9997L11.2197 26.6822C11.2197 26.6822 21.1837 24.1106 22.3532 23.5493C23.2994 23.0948 27.0604 22.0893 28.4605 22.1871C28.5082 22.1895 28.5535 22.2091 28.5879 22.2423C28.6223 22.2754 28.6436 22.3198 28.6479 22.3674C28.6522 22.415 28.6391 22.4625 28.6111 22.5013C28.5832 22.54 28.5422 22.5673 28.4957 22.5783C27.6141 22.7904 25.8614 23.2339 25.8614 23.4095C25.8614 23.6437 27.6265 23.988 27.4984 24.2752C27.2408 24.8544 26.3758 25.1877 26.2119 25.7256C26.048 26.2635 24.2567 25.8427 23.6438 25.8427C23.0308 25.8427 11.6604 32.7427 8.22452 31.1057C4.7886 29.4687 6.86778 22.2057 6.86778 22.2057L10.752 24.9997Z" fill="#F99662"/>
<path d="M29.4391 28.6002C29.667 28.3723 29.6553 27.811 29.9212 27.5479C30.187 27.2848 30.4721 27.8172 30.541 27.2208C30.6099 26.6244 30.1905 25.7001 30.5995 25.747C31.0086 25.7938 31.5679 27.479 31.5679 27.479C31.8626 28.1677 30.5389 30.7304 29.8378 30.5554C29.1368 30.3805 28.8647 29.5451 28.8647 29.1615C28.8647 28.7779 29.2091 28.8282 29.4391 28.6002Z" fill="#F99662"/>
<path d="M19.037 11.9943L19.0515 12.004L19.0583 12.0081L19.0701 12.0157L19.0783 12.0212L19.1017 12.0363L19.1114 12.0425L19.1396 12.0611H19.1444L19.152 12.066L19.1582 12.0701L19.1734 12.0804L19.1809 12.0852L19.2436 12.1259L19.256 12.1341C19.6293 12.3779 20.4268 12.9062 21.3138 13.5288C21.3138 13.5288 21.6823 15.0067 21.5067 15.9537C21.331 16.9006 20.9626 17.1995 20.4364 16.9867C19.9103 16.7739 18.9213 15.3738 18.6968 15.4523C18.4723 15.5308 16.9502 17.4488 16.2099 17.1486C15.7147 16.9481 14.2285 13.6954 13.4847 11.7616L13.6431 11.7202C14.4154 11.5209 15.2192 11.4742 16.0095 11.5825L19.0349 11.9957L19.037 11.9943Z" fill="white"/>
<path d="M20.6217 9.59975C20.3855 10.8394 20.2739 12.181 20.484 12.9592C20.484 12.9592 19.9936 15.0839 18.7698 15.1872C17.546 15.2905 15.2285 11.5295 15.2285 11.5295L17.7767 7.52539L20.6217 9.59975Z" fill="#F99662"/>
<g style="mix-blend-mode:multiply" opacity="0.4">
<path d="M20.3814 11.5495C18.9131 11.2919 17.5385 10.1721 17.157 8.50059L17.7768 7.52539L20.6225 9.59975C20.4962 10.2431 20.4157 10.8947 20.3814 11.5495Z" fill="#F26E5A"/>
</g>
<path d="M23.2285 2.08254C23.2285 2.08254 24.4275 9.6045 22.2829 10.4723C20.1383 11.34 17.2389 9.94816 17.0233 7.39584C16.8077 4.84353 17.3532 -0.360961 23.2285 2.08254Z" fill="#F99662"/>
<path d="M21.0563 0.541289C21.0563 0.541289 25.1458 -0.667376 25.3861 0.527515C25.6265 1.72241 24.2814 2.61014 23.3434 2.6859C22.4054 2.76165 20.0101 2.64182 19.2801 3.50476C18.5501 4.3677 17.2485 8.35388 17.2485 8.35388L16.5122 9.50814C16.5122 9.50814 16.214 7.41105 15.1555 6.12939C14.097 4.84772 14.6913 2.63562 15.7065 1.12393C16.7216 -0.387765 20.13 0.619801 21.0563 0.541289Z" fill="#271798"/>
<path d="M18.4496 5.58797C18.4496 5.58797 18.0605 4.53426 17.4854 4.68371C16.1769 5.02323 17.1369 7.35172 17.5667 7.41508C18.4393 7.54525 18.7926 6.85586 18.4496 5.58797Z" fill="#F99662"/>
<path d="M13.0447 16.8358C13.0881 19.331 11.7362 26.6939 11.7362 26.6939C11.7362 26.6939 6.49724 26.5885 6.07644 26.1705C5.65565 25.7524 7.00481 14.6389 9.31883 13.0852C12.0826 11.2195 13.0027 14.4282 13.0447 16.8358Z" fill="#9429BA"/>
<path d="M49.1392 40.1723C50.4723 39.7881 50.5079 40.0259 50.6771 39.9708C50.8786 39.907 52.4903 37.723 52.4903 37.723C52.4903 37.723 57.2901 31.3203 57.5358 30.9644L59.0496 22.6792L63.5974 22.6429C63.5974 22.6429 61.6976 31.5903 61.5122 32.0328C61.3269 32.4754 53.722 40.2931 53.0753 41.0077C53.0753 41.0077 52.6589 42.1635 52.3715 42.8787C52.084 43.5939 51.4696 44.1164 51.3554 44.3024C51.0224 44.7556 50.629 45.1612 50.1862 45.5079C49.5549 46.0075 49.8887 45.2298 49.8887 45.2298C49.8887 45.2298 50.8658 44.0842 50.751 44.0156C50.663 43.9633 50.1707 44.6201 49.479 45.1835C49.3011 45.3272 49.1251 45.4689 48.9619 45.5979C48.5341 45.9337 48.1715 45.7557 48.5543 45.3292C48.7258 45.1327 48.9126 44.9501 49.113 44.7833C49.3212 44.6214 49.4488 44.4025 49.6026 44.2386C49.9021 43.9129 50.1251 43.6799 50.1036 43.6738C50.0821 43.6678 50.0834 43.5563 49.8887 43.7027C49.655 43.8793 49.2554 44.3689 48.8887 44.6006C48.6805 44.7349 48.2662 45.0337 48.2662 45.0337C48.2662 45.0337 47.5395 45.3695 47.5006 45.3306C47.2917 45.1291 47.7074 44.7611 48.0177 44.6214C48.158 44.4287 48.6046 44.1244 48.6046 44.1244C48.6046 44.1244 49.3434 43.2977 49.2158 43.1842C49.1607 43.1352 48.6376 43.5832 48.0459 43.9377C47.4966 44.2668 46.8767 44.5066 46.7827 44.4038C46.6222 44.2306 47.1856 43.7994 47.1856 43.7994C47.1856 43.7994 47.5993 43.5187 47.7282 43.4146C47.8793 43.2924 48.2998 42.8901 48.2998 42.8901C48.2998 42.8901 49.6879 41.4113 49.5563 41.3092C49.4246 41.2071 48.9942 41.0742 48.8726 41.1339C48.751 41.1937 48.5986 41.4207 48.4764 41.4798C48.3994 41.5115 48.3142 41.5171 48.2337 41.4959C48.1532 41.4747 48.0818 41.4278 48.0305 41.3623C47.929 41.2152 48.3817 40.6994 48.3817 40.6994C48.3817 40.6994 48.7544 40.2831 49.1392 40.1723Z" fill="#F48C7F"/>
<path d="M56.6897 81.7356C56.6897 81.7356 56.8516 84.5938 56.8522 84.5998C56.912 84.9625 57.1457 85.8597 57.1457 86.1894C57.1457 87.4292 51.6308 85.1371 52.8671 84.5878C52.9793 84.5381 53.5649 84.162 53.6018 83.7402C53.6582 83.0902 53.8033 81.7752 53.8033 81.7752L56.6897 81.7356Z" fill="#F7A491"/>
<path d="M52.8812 84.5764C52.8812 84.5764 54.176 84.9559 54.8388 85.0506C55.5016 85.1453 56.376 84.3474 56.8454 84.563C57.3619 84.8001 57.3095 87.1371 57.3095 87.1371C57.3095 87.1371 50.3984 87.5448 48.4448 86.9155C47.6725 86.6657 50.2345 85.4595 52.8812 84.5764Z" fill="#184655"/>
<path d="M68.8396 82.0096C68.8396 82.0096 69.0015 84.8685 69.0022 84.8739C69.0613 85.2365 69.2956 86.1337 69.2956 86.4635C69.2956 87.7032 63.7807 85.4111 65.0171 84.8618C65.1292 84.8121 65.8901 84.1553 65.9257 83.7336C65.9821 83.0835 65.9526 82.0493 65.9526 82.0493L68.8396 82.0096Z" fill="#F7A491"/>
<path d="M65.0313 84.8504C65.0313 84.8504 66.326 85.2298 66.9889 85.3245C67.6517 85.4192 68.5261 84.6214 68.9955 84.8369C69.512 85.074 69.5328 87.2103 69.5328 87.2103C69.5328 87.2103 62.1455 87.7475 60.4068 87.2432C59.6258 87.0168 62.3839 85.7348 65.0313 84.8504Z" fill="#184655"/>
<path d="M60.1006 40.7457L57.7689 41.7531L52.8658 65.1727L53.0672 82.7302L56.9986 82.8216C56.9986 82.8216 58.8273 67.4628 58.8273 66.2728C58.8273 65.0827 67.2938 45.4407 67.2938 45.4407L60.1006 40.7457Z" fill="#355389"/>
<path d="M61.8997 42.0345C61.8997 42.0345 63.6175 60.0796 63.6175 63.1218C63.6175 66.164 65.0104 83.1876 65.0104 83.1876L68.9511 83.1648C68.9511 83.1648 69.2352 77.9756 69.6583 70.3419C69.7255 69.1465 69.573 66.7335 69.6583 65.4958C70.2714 56.5935 71.4836 48.213 70.9047 44.8907C70.8114 44.3535 70.6361 42.9579 70.2956 42.6074C67.7141 39.9339 61.8997 42.0345 61.8997 42.0345Z" fill="#466EB6"/>
<path d="M57.0926 27.7938L61.8608 27.4742C61.8608 27.4742 62.0958 23.2117 62.0958 21.1782C62.0958 18.7115 62.848 15.0743 62.5538 15.1428C61.7305 15.3349 60.3054 16.0931 59.6446 17.0151C57.3559 20.2024 57.0926 27.7938 57.0926 27.7938Z" fill="#711890"/>
<path d="M68.3905 15.0488C68.3905 15.0488 71.1097 15.4268 71.8256 15.9527C72.6315 16.5443 73.526 17.8693 73.526 17.8693C73.526 17.8693 70.1876 33.6512 70.1816 36.3066C70.1769 38.3609 70.9042 43.4058 70.9042 43.4058C70.9042 43.4058 60.8152 44.0424 56.994 42.5327C56.994 42.5327 58.2028 36.5329 58.2028 34.9574C58.2028 33.3819 59.646 19.056 59.9744 18.0554C60.2726 17.1474 60.8172 15.5162 62.6607 15.1139C64.5041 14.7116 68.3905 15.0488 68.3905 15.0488Z" fill="#9429BA"/>
<path d="M67.6484 10.7997L68.32 15.2065C68.32 15.2065 65.862 20.4542 64.3947 19.9988C63.1637 19.6167 63.9212 14.9742 63.9212 14.9742C63.9212 14.9742 64.5928 12.4806 64.3913 11.2329C64.1898 9.98508 67.6484 10.7997 67.6484 10.7997Z" fill="#F7A491"/>
<path d="M64.3919 11.2329C64.1904 9.98508 67.6483 10.7997 67.6483 10.7997L67.7041 11.165C67.6168 11.3905 67.4899 11.5987 67.3293 11.7795C66.557 12.6049 65.3496 13.1012 64.3073 13.1388C64.41 12.4665 64.4745 11.7446 64.3919 11.2329Z" fill="#F47458"/>
<path d="M68.2159 4.56485C68.3132 4.52926 68.9989 9.58416 67.6981 10.975C66.3972 12.3658 63.8621 12.8205 62.9528 11.7278C61.9454 10.519 61.9978 5.08397 64.0206 3.65286C66.0433 2.22174 68.2159 4.56485 68.2159 4.56485Z" fill="#F7A491"/>
<path d="M64.7901 0.947123C66.3535 1.2641 67.3662 2.21303 67.7382 2.61732C68.4481 2.70059 69.4131 3.08742 70.4097 4.7294C71.6347 6.74411 70.7301 8.97708 69.3037 10.0724C67.8773 11.1677 67.8934 12.4397 67.8934 12.4397L67.6718 11.7789C67.5015 11.2829 67.4406 10.756 67.4931 10.2343C67.5199 9.91501 67.5976 9.60211 67.7235 9.30749C68.0666 8.57615 66.9847 8.08994 66.6839 7.48149C66.4508 7.0114 66.4394 5.94091 66.0721 5.16592L65.6335 4.57427C65.6335 4.57427 64.6215 3.79189 63.6316 4.01284C62.6417 4.23378 62.7841 0.540152 64.7901 0.947123Z" fill="#13375B"/>
<path d="M68.0491 8.4052C68.0595 7.78849 67.7773 7.28362 67.4187 7.27755C67.0601 7.27148 66.7609 7.7665 66.7505 8.38322C66.74 8.99993 67.0223 9.5048 67.3809 9.51087C67.7395 9.51694 68.0387 9.02192 68.0491 8.4052Z" fill="#F7A491"/>
<path d="M61.4565 31.1019L61.3894 31.478C61.3733 31.571 61.321 31.6537 61.2439 31.7081C61.1668 31.7625 61.0713 31.7841 60.9784 31.7681L53.1814 30.4169C53.0885 30.4009 53.0057 30.3485 52.9513 30.2715C52.8969 30.1944 52.8753 30.0989 52.8913 30.0059L52.9585 29.6299C52.9745 29.5369 53.0269 29.4541 53.1039 29.3997C53.181 29.3453 53.2765 29.3238 53.3695 29.3397L61.1664 30.6903C61.2125 30.6982 61.2566 30.7152 61.2961 30.7402C61.3356 30.7652 61.3698 30.7977 61.3968 30.836C61.4237 30.8742 61.4429 30.9174 61.4531 30.963C61.4634 31.0086 61.4645 31.0559 61.4565 31.1019Z" fill="#13375B"/>
<path d="M72.5112 17.0809C71.5966 17.0547 70.7873 23.0894 71.3696 23.6851C71.9518 24.2808 72.0599 31.7137 72.0599 31.7137L63.4262 31.4988C63.2577 31.386 61.4498 30.1718 61.1913 29.9059C60.9226 29.6272 59.6023 29.7668 59.2538 30.1496C58.9052 30.5324 60.0288 30.2168 60.339 30.4283C60.6493 30.6399 60.1067 31.159 60.1067 31.159C60.1067 31.159 57.9194 31.4767 57.4929 31.0247C57.0665 30.5727 55.9275 29.8065 55.7724 30.2591C55.6924 30.4928 56.2801 31.1993 56.6105 31.4968C56.1975 31.1879 55.7032 30.8595 55.536 30.9166C55.2257 31.0207 55.3553 31.4156 55.5232 31.5317C55.6911 31.6479 57.4278 32.9736 57.6991 33.0663C57.9704 33.1589 62.0032 33.257 62.7009 33.4115C62.7009 33.4115 74.0834 36.003 74.7301 35.8419C75.2976 35.7002 75.8657 32.0569 75.8657 29.2659C75.8657 26.4748 75.3708 17.1635 72.5112 17.0809Z" fill="#F7A491"/>
<path d="M71.3246 15.7036C71.3246 15.7036 72.9169 16.0703 74.5616 17.9198C76.0572 19.5987 77 29.0135 77 29.0135L71.835 29.8482L71.4226 25.2936L70.0426 23.2118L71.3246 15.7036Z" fill="#9429BA"/>
<defs>
<filter id="filter0_f" x="0" y="82" width="38" height="9" filterUnits="userSpaceOnUse" color-interpolation-filters="sRGB">
<feFlood flood-opacity="0" result="BackgroundImageFix"/>
<feBlend mode="normal" in="SourceGraphic" in2="BackgroundImageFix" result="shape"/>
<feGaussianBlur stdDeviation="1" result="effect1_foregroundBlur"/>
</filter>
<filter id="filter1_f" x="41" y="84" width="38" height="7" filterUnits="userSpaceOnUse" color-interpolation-filters="sRGB">
<feFlood flood-opacity="0" result="BackgroundImageFix"/>
<feBlend mode="normal" in="SourceGraphic" in2="BackgroundImageFix" result="shape"/>
<feGaussianBlur stdDeviation="1" result="effect1_foregroundBlur"/>
</filter>
</defs>
</svg>
