<svg width="96" height="87" viewBox="0 0 96 87" fill="none" xmlns="http://www.w3.org/2000/svg">
<g clip-path="url(#clip0)">
<g opacity="0.5">
<g opacity="0.7">
<path opacity="0.7" d="M43.618 87.0004C34.9912 87.001 26.5579 84.4501 19.3847 79.6704C12.2116 74.8908 6.62077 68.097 3.31934 60.1482C0.017905 52.1995 -0.845842 43.4529 0.837334 35.0145C2.52051 26.5762 6.675 18.8252 12.7754 12.7417C16.8256 8.70246 21.6338 5.49833 26.9256 3.31228C32.2174 1.12624 37.8891 0.00109868 43.6168 0.00109863C49.3446 0.00109859 55.0163 1.12624 60.3081 3.31228C65.5999 5.49833 70.4081 8.70246 74.4583 12.7417C78.5084 16.781 81.7212 21.5763 83.9131 26.8539C86.1051 32.1315 87.2332 37.788 87.2332 43.5004C87.2332 49.2128 86.1051 54.8692 83.9131 60.1468C81.7212 65.4244 78.5084 70.2197 74.4583 74.259C70.418 78.3113 65.6118 81.5239 60.318 83.711C55.0242 85.8981 49.348 87.0161 43.618 87.0004ZM43.618 11.1024C25.7031 11.1024 11.1317 25.6347 11.1317 43.5015C11.1317 61.3684 25.7031 75.8983 43.618 75.8983C61.533 75.8983 76.102 61.366 76.102 43.5015C76.102 25.637 61.5306 11.1024 43.618 11.1024Z" fill="black"/>
</g>
</g>
<path d="M43.618 87.0004C34.9912 87.001 26.5579 84.4501 19.3847 79.6704C12.2116 74.8908 6.62077 68.097 3.31934 60.1482C0.017905 52.1995 -0.845842 43.4529 0.837334 35.0145C2.52051 26.5762 6.675 18.8252 12.7754 12.7417C16.8256 8.70246 21.6338 5.49833 26.9256 3.31228C32.2174 1.12624 37.8891 0.00109868 43.6168 0.00109863C49.3446 0.00109859 55.0163 1.12624 60.3081 3.31228C65.5999 5.49833 70.4081 8.70246 74.4583 12.7417C78.5084 16.781 81.7212 21.5763 83.9131 26.8539C86.1051 32.1315 87.2332 37.788 87.2332 43.5004C87.2332 49.2128 86.1051 54.8692 83.9131 60.1468C81.7212 65.4244 78.5084 70.2197 74.4583 74.259C70.418 78.3113 65.6118 81.5239 60.318 83.711C55.0242 85.8981 49.348 87.0161 43.618 87.0004ZM43.618 11.1024C25.7031 11.1024 11.1317 25.6347 11.1317 43.5015C11.1317 61.3684 25.7031 75.8983 43.618 75.8983C61.533 75.8983 76.102 61.366 76.102 43.5015C76.102 25.637 61.5306 11.1024 43.618 11.1024Z" fill="#711890"/>
<g opacity="0.5">
<path opacity="0.5" d="M96 16.477L86.1751 6.67847L44.4039 47.8944L27.8942 31.6762L18.0693 41.4747L44.287 67.3772L44.8108 66.8549L44.9277 66.9691L96 16.477Z" fill="black"/>
</g>
<path d="M96 16.477L86.1751 6.67847L44.4039 47.8944L27.8942 31.6762L18.0693 41.4747L44.287 67.3772L44.8108 66.8549L44.9277 66.9691L96 16.477Z" fill="#A114D3"/>
</g>
<defs>
<clipPath id="clip0">
<rect width="96" height="87" fill="white"/>
</clipPath>
</defs>
</svg>
